M48
;DRILL file {KiCad 4.0.7} date 09/08/18 06:04:24
;FORMAT={-:-/ absolute / inch / decimal}
FMAT,2
INCH,TZ
T1C0.016
T2C0.020
T3C0.030
T4C0.031
T5C0.035
T6C0.037
T7C0.039
T8C0.040
T9C0.040
T10C0.043
T11C0.047
T12C0.047
T13C0.120
T14C0.126
%
G90
G05
M72
T1
X3.65Y-3.05
X4.05Y-2.1
X4.05Y-3.15
X4.25Y-3.4
X4.55Y-3.15
X4.55Y-3.25
X4.6Y-3.3
X4.7Y-3.3
X4.85Y-3.3
X5.25Y-2.05
X5.45Y-2.35
X6.1Y-4.15
X6.15Y-1.7
X6.15Y-4.05
T2
X3.6Y-2.85
X3.65Y-2.85
X3.7Y-2.85
X4.8Y-3.2
X4.85Y-3.2
X4.9Y-3.2
X5.Y-3.35
X5.05Y-3.35
X5.1Y-3.35
T3
X5.35Y-2.15
X5.35Y-2.25
X5.35Y-2.35
X5.35Y-2.45
X5.35Y-2.55
X5.35Y-2.65
X5.35Y-2.75
X5.35Y-2.85
X5.35Y-2.95
X5.35Y-3.05
X5.5Y-3.45
X5.5Y-3.55
X5.5Y-3.65
X5.5Y-3.75
X5.5Y-3.85
X5.5Y-3.95
X5.5Y-4.05
X5.5Y-4.15
X5.5Y-4.25
X5.5Y-4.35
X5.5Y-4.45
X5.5Y-4.55
X5.5Y-4.65
X5.5Y-4.75
X5.5Y-4.85
X5.8Y-2.15
X5.8Y-2.25
X5.8Y-2.35
X5.8Y-2.45
X5.8Y-2.55
X5.8Y-2.65
X5.8Y-2.75
X5.8Y-2.85
X5.8Y-2.95
X5.8Y-3.05
X6.4Y-3.45
X6.4Y-3.55
X6.4Y-3.65
X6.4Y-3.75
X6.4Y-3.85
X6.4Y-3.95
X6.4Y-4.05
X6.4Y-4.15
X6.4Y-4.25
X6.4Y-4.35
X6.4Y-4.45
X6.4Y-4.55
X6.4Y-4.65
X6.4Y-4.75
X6.4Y-4.85
T4
X3.65Y-3.6031
X3.65Y-3.8
X5.4Y-1.55
X5.5Y-1.75
X5.5Y-1.9469
X5.5969Y-1.55
X5.8126Y-1.9
X6.4Y-2.1626
X6.4Y-2.95
X6.6Y-1.9
X6.6Y-4.6531
X6.6Y-4.85
T5
X3.6Y-1.8
X3.6Y-1.9
X3.6Y-2.
X3.85Y-1.8
X3.95Y-1.8
X4.05Y-1.8
T6
X6.05Y-2.3
X6.05Y-2.4
X6.05Y-2.5
X6.05Y-2.6
X6.05Y-2.7
X6.05Y-2.8
X6.05Y-2.9
X6.05Y-3.
T7
X3.4Y-2.
X3.4Y-2.1
X3.4Y-2.2
X3.4Y-2.3
X3.4Y-2.4
X3.4Y-2.5
X3.4Y-2.6
X3.4Y-2.7
X3.4Y-2.8
X3.4Y-2.9
X3.4Y-3.
X3.4Y-3.1
X3.4Y-3.2
X3.5Y-1.55
X3.6Y-1.55
X3.7Y-1.55
X4.25Y-4.45
X4.25Y-4.55
X4.25Y-4.65
X4.25Y-4.75
X5.05Y-4.5
X5.05Y-4.6
X5.05Y-4.7
X5.15Y-4.5
X5.15Y-4.6
X5.15Y-4.7
X5.8Y-1.45
X5.9Y-1.45
X6.Y-1.45
T8
X3.85Y-2.15
X3.85Y-2.25
X3.85Y-2.35
X3.85Y-2.45
X3.85Y-2.55
X3.85Y-2.65
X3.85Y-2.75
X3.85Y-2.85
X3.85Y-2.95
X3.85Y-3.05
X3.85Y-3.15
X3.85Y-3.25
X3.85Y-3.35
X3.85Y-3.45
X3.85Y-3.55
X4.45Y-2.15
X4.45Y-2.25
X4.45Y-2.35
X4.45Y-2.45
X4.45Y-2.55
X4.45Y-2.65
X4.45Y-2.75
X4.45Y-2.85
X4.45Y-2.95
X4.45Y-3.05
X4.45Y-3.15
X4.45Y-3.25
X4.45Y-3.35
X4.45Y-3.45
X4.45Y-3.55
T9
X3.9Y-3.9
X3.9Y-4.
X4.Y-3.9
X4.Y-4.
X4.1Y-3.9
X4.1Y-4.
X4.2Y-3.9
X4.2Y-4.
X4.3Y-3.9
X4.3Y-4.
X4.4Y-3.9
X4.4Y-4.
T10
X3.4Y-3.6
X3.4Y-4.
X4.85Y-3.55
X4.85Y-3.95
X5.1Y-3.6
X5.1Y-4.
T11
X6.8311Y-1.9
X6.9689Y-1.9
T12
X3.65Y-2.15
X3.65Y-2.65
X4.2531Y-1.6
X4.45Y-1.6
X4.55Y-4.35
X4.55Y-4.85
X4.6Y-2.1
X4.65Y-2.7
X4.65Y-3.2
X4.65Y-3.5
X4.65Y-4.
X4.8Y-4.35
X4.8Y-4.85
X4.85Y-2.45
X4.85Y-2.95
X4.95Y-1.55
X4.95Y-1.7469
X5.05Y-2.6
X5.05Y-3.1
X5.1Y-2.1
X6.6Y-3.15
X6.6Y-3.65
X6.6Y-3.95
X6.6Y-4.45
X6.75Y-2.3
X6.75Y-2.8
T13
X6.95Y-4.95
T14
X3.45Y-4.95
X3.95Y-1.5
X6.95Y-1.45
T0
M30
