%TF.GenerationSoftware,KiCad,Pcbnew,4.0.7*%
%TF.CreationDate,2018-09-08T06:02:45+02:00*%
%TF.ProjectId,BrauNxGen,427261754E7847656E2E6B696361645F,rev?*%
%TF.FileFunction,Copper,L2,Bot,Signal*%
%FSLAX46Y46*%
G04 Gerber Fmt 4.6, Leading zero omitted, Abs format (unit mm)*
G04 Created by KiCad (PCBNEW 4.0.7) date 09/08/18 06:02:45*
%MOMM*%
%LPD*%
G01*
G04 APERTURE LIST*
%ADD10C,0.100000*%
%ADD11C,0.150000*%
%ADD12C,1.727200*%
%ADD13R,1.727200X1.727200*%
%ADD14C,1.600000*%
%ADD15O,1.600000X1.600000*%
%ADD16R,2.400000X2.400000*%
%ADD17C,2.400000*%
%ADD18R,1.600000X1.600000*%
%ADD19R,2.200000X2.200000*%
%ADD20O,2.200000X2.200000*%
%ADD21C,1.998980*%
%ADD22R,2.000000X2.000000*%
%ADD23C,2.000000*%
%ADD24O,2.400000X2.400000*%
%ADD25C,1.524000*%
%ADD26C,2.020000*%
%ADD27R,1.000000X1.000000*%
%ADD28C,1.000000*%
%ADD29R,1.800000X1.800000*%
%ADD30O,1.800000X1.800000*%
%ADD31C,1.800000*%
%ADD32R,1.700000X1.700000*%
%ADD33O,1.700000X1.700000*%
%ADD34C,4.064000*%
%ADD35C,5.000000*%
%ADD36C,0.600000*%
%ADD37C,0.250000*%
%ADD38C,0.254000*%
G04 APERTURE END LIST*
D10*
D11*
X82550000Y-130810000D02*
X82550000Y-31750000D01*
X181610000Y-130810000D02*
X82550000Y-130810000D01*
X82550000Y-31750000D02*
X181610000Y-31750000D01*
X181610000Y-130810000D02*
X181610000Y-31750000D01*
D12*
X97790000Y-90170000D03*
X97790000Y-87630000D03*
X97790000Y-85090000D03*
X97790000Y-82550000D03*
X97790000Y-80010000D03*
X97790000Y-77470000D03*
X97790000Y-74930000D03*
X97790000Y-72390000D03*
X97790000Y-69850000D03*
X97790000Y-67310000D03*
X97790000Y-64770000D03*
X97790000Y-62230000D03*
X97790000Y-59690000D03*
X97790000Y-57150000D03*
X97790000Y-54610000D03*
X113030000Y-54610000D03*
X113030000Y-57150000D03*
X113030000Y-59690000D03*
X113030000Y-62230000D03*
X113030000Y-64770000D03*
X113030000Y-67310000D03*
X113030000Y-69850000D03*
X113030000Y-72390000D03*
X113030000Y-74930000D03*
X113030000Y-77470000D03*
X113030000Y-80010000D03*
X113030000Y-82550000D03*
X113030000Y-85090000D03*
X113030000Y-87630000D03*
D13*
X113030000Y-90170000D03*
D14*
X167640000Y-123190000D03*
X167640000Y-118190000D03*
X167640000Y-48260000D03*
D15*
X147640000Y-48260000D03*
D16*
X113030000Y-40640000D03*
D17*
X108030000Y-40640000D03*
D18*
X139700000Y-44450000D03*
D14*
X139700000Y-49450000D03*
D16*
X125730000Y-39370000D03*
D17*
X125730000Y-44370000D03*
D14*
X137160000Y-39370000D03*
X142160000Y-39370000D03*
X92710000Y-96520000D03*
X92710000Y-91520000D03*
D19*
X129540000Y-101600000D03*
D20*
X129540000Y-91440000D03*
D19*
X86360000Y-91440000D03*
D20*
X86360000Y-101600000D03*
D21*
X173509940Y-48260000D03*
X177010060Y-48260000D03*
D22*
X153670000Y-58420000D03*
D23*
X153670000Y-60960000D03*
X153670000Y-63500000D03*
X153670000Y-66040000D03*
X153670000Y-68580000D03*
X153670000Y-71120000D03*
X153670000Y-73660000D03*
X153670000Y-76200000D03*
D17*
X129540000Y-53340000D03*
D24*
X116840000Y-53340000D03*
D17*
X118110000Y-81280000D03*
D24*
X118110000Y-68580000D03*
D17*
X167640000Y-113030000D03*
D24*
X167640000Y-100330000D03*
D17*
X115570000Y-110490000D03*
D24*
X115570000Y-123190000D03*
D17*
X171450000Y-71120000D03*
D24*
X171450000Y-58420000D03*
D17*
X167640000Y-92710000D03*
D24*
X167640000Y-80010000D03*
D17*
X121920000Y-110490000D03*
D24*
X121920000Y-123190000D03*
D17*
X118110000Y-101600000D03*
D24*
X118110000Y-88900000D03*
D17*
X128270000Y-78740000D03*
D24*
X128270000Y-66040000D03*
D17*
X123190000Y-74930000D03*
D24*
X123190000Y-62230000D03*
D17*
X92710000Y-67310000D03*
D24*
X92710000Y-54610000D03*
D25*
X162560000Y-123190000D03*
X162560000Y-120650000D03*
X162560000Y-118110000D03*
X162560000Y-115570000D03*
X162560000Y-113030000D03*
X162560000Y-110490000D03*
X162560000Y-107950000D03*
X162560000Y-105410000D03*
X162560000Y-102870000D03*
X162560000Y-100330000D03*
X162560000Y-97790000D03*
X162560000Y-95250000D03*
X162560000Y-92710000D03*
X162560000Y-90170000D03*
X162560000Y-87630000D03*
X139700000Y-87630000D03*
X139700000Y-90170000D03*
X139700000Y-92710000D03*
X139700000Y-95250000D03*
X139700000Y-97790000D03*
X139700000Y-100330000D03*
X139700000Y-102870000D03*
X139700000Y-105410000D03*
X139700000Y-107950000D03*
X139700000Y-110490000D03*
X139700000Y-113030000D03*
X139700000Y-115570000D03*
X139700000Y-118110000D03*
X139700000Y-120650000D03*
X139700000Y-123190000D03*
X147320000Y-77470000D03*
X147320000Y-74930000D03*
X147320000Y-72390000D03*
X147320000Y-69850000D03*
X147320000Y-67310000D03*
X147320000Y-64770000D03*
X147320000Y-62230000D03*
X147320000Y-59690000D03*
X147320000Y-57150000D03*
X147320000Y-54610000D03*
X135890000Y-54610000D03*
X135890000Y-57150000D03*
X135890000Y-59690000D03*
X135890000Y-62230000D03*
X135890000Y-64770000D03*
X135890000Y-67310000D03*
X135890000Y-69850000D03*
X135890000Y-72390000D03*
X135890000Y-74930000D03*
X135890000Y-77470000D03*
D14*
X162560000Y-74930000D03*
D15*
X162560000Y-54930000D03*
D19*
X123190000Y-90170000D03*
D20*
X123190000Y-100330000D03*
D26*
X99060000Y-101600000D03*
X101600000Y-101600000D03*
X104140000Y-101600000D03*
X106680000Y-101600000D03*
X109220000Y-101600000D03*
X111760000Y-101600000D03*
X111760000Y-99060000D03*
X109220000Y-99060000D03*
X106680000Y-99060000D03*
X104140000Y-99060000D03*
X101600000Y-99060000D03*
X99060000Y-99060000D03*
D27*
X127000000Y-85090000D03*
D28*
X128270000Y-85090000D03*
X129540000Y-85090000D03*
D27*
X124460000Y-81280000D03*
D28*
X123190000Y-81280000D03*
X121920000Y-81280000D03*
D27*
X93980000Y-72390000D03*
D28*
X92710000Y-72390000D03*
X91440000Y-72390000D03*
D29*
X88900000Y-39370000D03*
D30*
X91440000Y-39370000D03*
X93980000Y-39370000D03*
D29*
X147320000Y-36830000D03*
D30*
X149860000Y-36830000D03*
X152400000Y-36830000D03*
D29*
X91440000Y-50800000D03*
D31*
X91440000Y-48260000D03*
X91440000Y-45720000D03*
D29*
X97790000Y-45720000D03*
D31*
X100330000Y-45720000D03*
X102870000Y-45720000D03*
D32*
X130810000Y-119380000D03*
D33*
X128270000Y-119380000D03*
X130810000Y-116840000D03*
X128270000Y-116840000D03*
X130810000Y-114300000D03*
X128270000Y-114300000D03*
D32*
X107950000Y-113030000D03*
D33*
X107950000Y-115570000D03*
X107950000Y-118110000D03*
X107950000Y-120650000D03*
D32*
X86360000Y-81280000D03*
D33*
X86360000Y-78740000D03*
X86360000Y-76200000D03*
X86360000Y-73660000D03*
X86360000Y-71120000D03*
X86360000Y-68580000D03*
X86360000Y-66040000D03*
X86360000Y-63500000D03*
X86360000Y-60960000D03*
X86360000Y-58420000D03*
X86360000Y-55880000D03*
X86360000Y-53340000D03*
X86360000Y-50800000D03*
D34*
X176530000Y-36830000D03*
X176530000Y-125730000D03*
D35*
X100330000Y-38100000D03*
X87630000Y-125730000D03*
D36*
X156210000Y-43180000D03*
X107950000Y-86360000D03*
X102870000Y-80010000D03*
X92710000Y-77470000D03*
X156210000Y-102870000D03*
X115570000Y-82550000D03*
X115570000Y-80010000D03*
X102870000Y-53340000D03*
X116840000Y-83820000D03*
X119380000Y-83820000D03*
X123190000Y-83820000D03*
X154940000Y-105410000D03*
X133350000Y-52070000D03*
X138430000Y-59690000D03*
D37*
X167640000Y-113030000D02*
X166370000Y-114300000D01*
X166370000Y-114300000D02*
X138430000Y-114300000D01*
X138430000Y-114300000D02*
X137160000Y-113030000D01*
X137160000Y-113030000D02*
X129540000Y-113030000D01*
X129540000Y-113030000D02*
X128270000Y-114300000D01*
X167640000Y-92710000D02*
X167640000Y-85090000D01*
X167640000Y-85090000D02*
X170180000Y-82550000D01*
X170180000Y-82550000D02*
X170180000Y-72390000D01*
X170180000Y-72390000D02*
X171450000Y-71120000D01*
X162560000Y-97790000D02*
X163830000Y-99060000D01*
X163830000Y-99060000D02*
X163830000Y-109220000D01*
X163830000Y-109220000D02*
X167640000Y-113030000D01*
X162560000Y-97790000D02*
X167640000Y-92710000D01*
X128270000Y-114300000D02*
X124460000Y-110490000D01*
X124460000Y-110490000D02*
X121920000Y-110490000D01*
X171450000Y-71120000D02*
X153670000Y-71120000D01*
X115570000Y-110490000D02*
X113030000Y-113030000D01*
X113030000Y-113030000D02*
X107950000Y-113030000D01*
X167640000Y-113030000D02*
X167640000Y-115570000D01*
X167640000Y-115570000D02*
X168910000Y-116840000D01*
X168910000Y-116840000D02*
X168910000Y-121920000D01*
X168910000Y-121920000D02*
X167640000Y-123190000D01*
X121920000Y-110490000D02*
X115570000Y-110490000D01*
X154940000Y-71120000D02*
X153670000Y-71120000D01*
X156210000Y-69850000D02*
X154940000Y-71120000D01*
X156210000Y-43180000D02*
X156210000Y-69850000D01*
X147320000Y-67310000D02*
X146050000Y-68580000D01*
X146050000Y-71120000D02*
X153670000Y-71120000D01*
X146050000Y-68580000D02*
X146050000Y-71120000D01*
X167640000Y-118110000D02*
X167640000Y-118190000D01*
X107950000Y-120650000D02*
X111760000Y-116840000D01*
X111760000Y-116840000D02*
X128270000Y-116840000D01*
X139700000Y-90170000D02*
X138430000Y-88900000D01*
X138430000Y-88900000D02*
X138430000Y-76200000D01*
X138430000Y-76200000D02*
X137160000Y-74930000D01*
X137160000Y-74930000D02*
X137160000Y-73660000D01*
X137160000Y-73660000D02*
X134620000Y-73660000D01*
X134620000Y-73660000D02*
X132080000Y-76200000D01*
X132080000Y-76200000D02*
X132080000Y-93980000D01*
X132080000Y-93980000D02*
X127000000Y-93980000D01*
X127000000Y-93980000D02*
X127000000Y-85090000D01*
X162560000Y-90170000D02*
X139700000Y-90170000D01*
X125730000Y-44370000D02*
X125730000Y-44450000D01*
X88900000Y-39370000D02*
X86360000Y-41910000D01*
X86360000Y-41910000D02*
X86360000Y-50800000D01*
X108030000Y-40640000D02*
X107950000Y-40640000D01*
X107950000Y-40640000D02*
X105410000Y-43180000D01*
X105410000Y-43180000D02*
X88900000Y-43180000D01*
X88900000Y-43180000D02*
X87630000Y-44450000D01*
X125730000Y-44450000D02*
X124460000Y-43180000D01*
X124460000Y-43180000D02*
X110490000Y-43180000D01*
X110490000Y-43180000D02*
X107950000Y-40640000D01*
X92710000Y-96520000D02*
X92710000Y-93980000D01*
X92710000Y-93980000D02*
X93980000Y-92710000D01*
X93980000Y-92710000D02*
X93980000Y-91440000D01*
X93980000Y-91440000D02*
X97790000Y-87630000D01*
X97790000Y-87630000D02*
X99060000Y-86360000D01*
X99060000Y-86360000D02*
X99060000Y-76200000D01*
X99060000Y-76200000D02*
X96520000Y-76200000D01*
X96520000Y-76200000D02*
X96520000Y-74930000D01*
X96520000Y-74930000D02*
X93980000Y-72390000D01*
X173509940Y-48260000D02*
X173990000Y-48260000D01*
X139700000Y-49450000D02*
X139700000Y-46990000D01*
X139700000Y-46990000D02*
X140970000Y-45720000D01*
X140970000Y-45720000D02*
X140970000Y-40640000D01*
X140970000Y-40640000D02*
X142240000Y-39370000D01*
X142240000Y-39370000D02*
X142160000Y-39370000D01*
X147640000Y-48260000D02*
X147320000Y-48260000D01*
X147320000Y-48260000D02*
X147320000Y-52070000D01*
X147320000Y-52070000D02*
X148590000Y-53340000D01*
X148590000Y-53340000D02*
X148590000Y-63500000D01*
X148590000Y-63500000D02*
X147320000Y-64770000D01*
X142240000Y-39370000D02*
X143510000Y-38100000D01*
X143510000Y-38100000D02*
X148590000Y-38100000D01*
X148590000Y-38100000D02*
X149860000Y-36830000D01*
X113030000Y-82550000D02*
X114300000Y-81280000D01*
X114300000Y-81280000D02*
X114300000Y-80010000D01*
X114300000Y-80010000D02*
X121920000Y-72390000D01*
X121920000Y-72390000D02*
X124460000Y-72390000D01*
X124460000Y-72390000D02*
X125730000Y-73660000D01*
X125730000Y-73660000D02*
X125730000Y-80010000D01*
X125730000Y-80010000D02*
X124460000Y-81280000D01*
X124460000Y-81280000D02*
X124460000Y-82550000D01*
X124460000Y-82550000D02*
X127000000Y-85090000D01*
X139700000Y-49450000D02*
X139700000Y-49530000D01*
X139700000Y-49530000D02*
X140970000Y-48260000D01*
X140970000Y-48260000D02*
X147640000Y-48260000D01*
X147320000Y-64770000D02*
X135890000Y-64770000D01*
X87630000Y-44450000D02*
X87630000Y-49530000D01*
X87630000Y-49530000D02*
X86360000Y-50800000D01*
X177010060Y-48260000D02*
X177010060Y-49049940D01*
X177010060Y-49049940D02*
X175260000Y-50800000D01*
X167640000Y-49530000D02*
X167640000Y-48260000D01*
X168910000Y-50800000D02*
X167640000Y-49530000D01*
X175260000Y-50800000D02*
X168910000Y-50800000D01*
X176530000Y-48260000D02*
X177010060Y-48260000D01*
X129540000Y-85090000D02*
X129540000Y-91440000D01*
X107950000Y-86360000D02*
X102870000Y-81280000D01*
X102870000Y-81280000D02*
X102870000Y-80010000D01*
X92710000Y-77470000D02*
X91440000Y-76200000D01*
X91440000Y-76200000D02*
X91440000Y-72390000D01*
X156210000Y-102870000D02*
X139700000Y-102870000D01*
X130810000Y-116840000D02*
X129540000Y-118110000D01*
X129540000Y-118110000D02*
X127000000Y-118110000D01*
X127000000Y-118110000D02*
X121920000Y-123190000D01*
X153670000Y-58420000D02*
X153670000Y-40640000D01*
X153670000Y-40640000D02*
X151130000Y-38100000D01*
X151130000Y-38100000D02*
X151130000Y-35560000D01*
X151130000Y-35560000D02*
X146050000Y-35560000D01*
X146050000Y-35560000D02*
X144780000Y-36830000D01*
X144780000Y-36830000D02*
X142240000Y-36830000D01*
X142240000Y-36830000D02*
X139700000Y-39370000D01*
X139700000Y-39370000D02*
X139700000Y-41910000D01*
X139700000Y-41910000D02*
X138430000Y-43180000D01*
X138430000Y-43180000D02*
X138430000Y-50800000D01*
X138430000Y-50800000D02*
X142240000Y-54610000D01*
X142240000Y-54610000D02*
X147320000Y-54610000D01*
X153670000Y-60960000D02*
X152400000Y-60960000D01*
X152400000Y-60960000D02*
X151130000Y-62230000D01*
X151130000Y-62230000D02*
X151130000Y-63500000D01*
X151130000Y-63500000D02*
X148590000Y-66040000D01*
X148590000Y-66040000D02*
X134620000Y-66040000D01*
X134620000Y-66040000D02*
X134620000Y-63500000D01*
X134620000Y-63500000D02*
X137160000Y-63500000D01*
X137160000Y-63500000D02*
X143510000Y-57150000D01*
X143510000Y-57150000D02*
X147320000Y-57150000D01*
X147320000Y-69850000D02*
X148590000Y-68580000D01*
X148590000Y-68580000D02*
X153670000Y-68580000D01*
X101600000Y-99060000D02*
X101600000Y-97790000D01*
X101600000Y-97790000D02*
X110490000Y-88900000D01*
X110490000Y-88900000D02*
X118110000Y-88900000D01*
X115570000Y-80010000D02*
X115570000Y-82550000D01*
X118110000Y-101600000D02*
X114300000Y-105410000D01*
X97790000Y-99060000D02*
X99060000Y-99060000D01*
X96520000Y-100330000D02*
X97790000Y-99060000D01*
X96520000Y-102870000D02*
X96520000Y-100330000D01*
X97790000Y-104140000D02*
X96520000Y-102870000D01*
X105410000Y-104140000D02*
X97790000Y-104140000D01*
X106680000Y-105410000D02*
X105410000Y-104140000D01*
X114300000Y-105410000D02*
X106680000Y-105410000D01*
X162560000Y-123190000D02*
X160020000Y-125730000D01*
X160020000Y-125730000D02*
X113030000Y-125730000D01*
X113030000Y-125730000D02*
X109220000Y-121920000D01*
X109220000Y-121920000D02*
X106680000Y-121920000D01*
X106680000Y-121920000D02*
X106680000Y-116840000D01*
X106680000Y-116840000D02*
X107950000Y-115570000D01*
X97790000Y-62230000D02*
X92710000Y-57150000D01*
X92710000Y-57150000D02*
X90170000Y-57150000D01*
X90170000Y-57150000D02*
X86360000Y-53340000D01*
X86360000Y-55880000D02*
X92710000Y-62230000D01*
X92710000Y-62230000D02*
X96520000Y-62230000D01*
X96520000Y-62230000D02*
X96520000Y-63500000D01*
X96520000Y-63500000D02*
X97790000Y-63500000D01*
X97790000Y-63500000D02*
X97790000Y-64770000D01*
X86360000Y-58420000D02*
X91440000Y-63500000D01*
X91440000Y-63500000D02*
X95250000Y-63500000D01*
X95250000Y-63500000D02*
X96520000Y-64770000D01*
X96520000Y-64770000D02*
X96520000Y-66040000D01*
X96520000Y-66040000D02*
X97790000Y-67310000D01*
X97790000Y-77470000D02*
X95250000Y-80010000D01*
X95250000Y-80010000D02*
X90170000Y-80010000D01*
X90170000Y-80010000D02*
X90170000Y-67310000D01*
X90170000Y-67310000D02*
X86360000Y-63500000D01*
X86360000Y-60960000D02*
X90170000Y-64770000D01*
X90170000Y-64770000D02*
X93980000Y-64770000D01*
X93980000Y-64770000D02*
X95250000Y-66040000D01*
X95250000Y-66040000D02*
X95250000Y-67310000D01*
X95250000Y-67310000D02*
X97790000Y-69850000D01*
X128270000Y-85090000D02*
X128270000Y-78740000D01*
X123190000Y-81280000D02*
X123190000Y-74930000D01*
X92710000Y-67310000D02*
X92710000Y-72390000D01*
X95250000Y-48260000D02*
X91440000Y-48260000D01*
X96520000Y-49530000D02*
X95250000Y-48260000D01*
X101600000Y-49530000D02*
X96520000Y-49530000D01*
X102870000Y-50800000D02*
X101600000Y-49530000D01*
X102870000Y-53340000D02*
X102870000Y-50800000D01*
X116840000Y-53340000D02*
X116840000Y-64770000D01*
X109220000Y-71120000D02*
X113030000Y-74930000D01*
X109220000Y-67310000D02*
X109220000Y-71120000D01*
X110490000Y-66040000D02*
X109220000Y-67310000D01*
X115570000Y-66040000D02*
X110490000Y-66040000D01*
X116840000Y-64770000D02*
X115570000Y-66040000D01*
X118110000Y-68580000D02*
X114300000Y-72390000D01*
X114300000Y-72390000D02*
X113030000Y-72390000D01*
X92710000Y-54610000D02*
X97790000Y-54610000D01*
X113030000Y-62230000D02*
X111760000Y-60960000D01*
X111760000Y-60960000D02*
X111760000Y-50800000D01*
X111760000Y-50800000D02*
X130810000Y-50800000D01*
X130810000Y-50800000D02*
X134620000Y-54610000D01*
X134620000Y-54610000D02*
X134620000Y-55880000D01*
X134620000Y-55880000D02*
X137160000Y-55880000D01*
X137160000Y-55880000D02*
X137160000Y-60960000D01*
X137160000Y-60960000D02*
X135890000Y-62230000D01*
X113030000Y-64770000D02*
X109220000Y-64770000D01*
X109220000Y-64770000D02*
X107950000Y-66040000D01*
X107950000Y-66040000D02*
X107950000Y-72390000D01*
X107950000Y-72390000D02*
X111760000Y-76200000D01*
X111760000Y-76200000D02*
X114300000Y-76200000D01*
X114300000Y-76200000D02*
X119380000Y-71120000D01*
X119380000Y-71120000D02*
X120650000Y-71120000D01*
X120650000Y-71120000D02*
X121920000Y-69850000D01*
X121920000Y-69850000D02*
X135890000Y-69850000D01*
X97790000Y-74930000D02*
X100330000Y-74930000D01*
X100330000Y-74930000D02*
X100330000Y-93980000D01*
X100330000Y-93980000D02*
X95250000Y-99060000D01*
X95250000Y-99060000D02*
X95250000Y-104140000D01*
X95250000Y-104140000D02*
X97790000Y-106680000D01*
X97790000Y-106680000D02*
X115570000Y-106680000D01*
X115570000Y-106680000D02*
X118110000Y-104140000D01*
X118110000Y-104140000D02*
X132080000Y-104140000D01*
X132080000Y-104140000D02*
X132080000Y-96520000D01*
X132080000Y-96520000D02*
X133350000Y-95250000D01*
X133350000Y-95250000D02*
X133350000Y-77470000D01*
X133350000Y-77470000D02*
X135890000Y-74930000D01*
X102870000Y-72390000D02*
X97790000Y-72390000D01*
X104140000Y-73660000D02*
X102870000Y-72390000D01*
X104140000Y-80010000D02*
X104140000Y-73660000D01*
X107950000Y-83820000D02*
X104140000Y-80010000D01*
X116840000Y-83820000D02*
X107950000Y-83820000D01*
X123190000Y-83820000D02*
X119380000Y-83820000D01*
X154940000Y-105410000D02*
X139700000Y-105410000D01*
X133350000Y-52070000D02*
X137160000Y-52070000D01*
X137160000Y-52070000D02*
X138430000Y-53340000D01*
X138430000Y-53340000D02*
X138430000Y-59690000D01*
X129540000Y-101600000D02*
X128270000Y-100330000D01*
X128270000Y-100330000D02*
X128270000Y-99060000D01*
X128270000Y-99060000D02*
X123190000Y-93980000D01*
X123190000Y-93980000D02*
X123190000Y-90170000D01*
X123190000Y-90170000D02*
X120650000Y-87630000D01*
X120650000Y-87630000D02*
X120650000Y-86360000D01*
X120650000Y-86360000D02*
X118110000Y-83820000D01*
X118110000Y-83820000D02*
X118110000Y-81280000D01*
X86360000Y-81280000D02*
X86360000Y-91440000D01*
X97790000Y-82550000D02*
X92710000Y-87630000D01*
X123190000Y-96520000D02*
X128270000Y-101600000D01*
X128270000Y-101600000D02*
X129540000Y-101600000D01*
X137160000Y-39370000D02*
X142240000Y-34290000D01*
X142240000Y-34290000D02*
X152400000Y-34290000D01*
X152400000Y-34290000D02*
X152400000Y-36830000D01*
X111760000Y-99060000D02*
X114300000Y-96520000D01*
X114300000Y-96520000D02*
X123190000Y-96520000D01*
X97790000Y-82550000D02*
X96520000Y-81280000D01*
X96520000Y-81280000D02*
X86360000Y-81280000D01*
X125730000Y-39370000D02*
X137160000Y-39370000D01*
X106680000Y-101600000D02*
X106680000Y-102870000D01*
X106680000Y-102870000D02*
X107950000Y-104140000D01*
X107950000Y-104140000D02*
X110490000Y-104140000D01*
X110490000Y-104140000D02*
X111760000Y-102870000D01*
X111760000Y-102870000D02*
X111760000Y-101600000D01*
X92710000Y-87630000D02*
X92710000Y-91520000D01*
X111760000Y-101600000D02*
X111760000Y-99060000D01*
D38*
G36*
X180213000Y-129413000D02*
X83947000Y-129413000D01*
X83947000Y-126350854D01*
X84494457Y-126350854D01*
X84970727Y-127503515D01*
X85851847Y-128386174D01*
X87003674Y-128864454D01*
X88250854Y-128865543D01*
X89403515Y-128389273D01*
X90286174Y-127508153D01*
X90764454Y-126356326D01*
X90765543Y-125109146D01*
X90289273Y-123956485D01*
X89408153Y-123073826D01*
X88256326Y-122595546D01*
X87009146Y-122594457D01*
X85856485Y-123070727D01*
X84973826Y-123951847D01*
X84495546Y-125103674D01*
X84494457Y-126350854D01*
X83947000Y-126350854D01*
X83947000Y-101566009D01*
X84625000Y-101566009D01*
X84625000Y-101633991D01*
X84757069Y-102297947D01*
X85133170Y-102860821D01*
X85696044Y-103236922D01*
X86360000Y-103368991D01*
X87023956Y-103236922D01*
X87586830Y-102860821D01*
X87962931Y-102297947D01*
X88095000Y-101633991D01*
X88095000Y-101566009D01*
X87962931Y-100902053D01*
X87586830Y-100339179D01*
X87023956Y-99963078D01*
X86360000Y-99831009D01*
X85696044Y-99963078D01*
X85133170Y-100339179D01*
X84757069Y-100902053D01*
X84625000Y-101566009D01*
X83947000Y-101566009D01*
X83947000Y-97527745D01*
X91881861Y-97527745D01*
X91955995Y-97773864D01*
X92493223Y-97966965D01*
X93063454Y-97939778D01*
X93464005Y-97773864D01*
X93538139Y-97527745D01*
X92710000Y-96699605D01*
X91881861Y-97527745D01*
X83947000Y-97527745D01*
X83947000Y-96303223D01*
X91263035Y-96303223D01*
X91290222Y-96873454D01*
X91456136Y-97274005D01*
X91702255Y-97348139D01*
X92530395Y-96520000D01*
X92889605Y-96520000D01*
X93717745Y-97348139D01*
X93963864Y-97274005D01*
X94156965Y-96736777D01*
X94129778Y-96166546D01*
X93963864Y-95765995D01*
X93717745Y-95691861D01*
X92889605Y-96520000D01*
X92530395Y-96520000D01*
X91702255Y-95691861D01*
X91456136Y-95765995D01*
X91263035Y-96303223D01*
X83947000Y-96303223D01*
X83947000Y-95512255D01*
X91881861Y-95512255D01*
X92710000Y-96340395D01*
X93538139Y-95512255D01*
X93464005Y-95266136D01*
X92926777Y-95073035D01*
X92356546Y-95100222D01*
X91955995Y-95266136D01*
X91881861Y-95512255D01*
X83947000Y-95512255D01*
X83947000Y-90340000D01*
X84612560Y-90340000D01*
X84612560Y-92540000D01*
X84656838Y-92775317D01*
X84795910Y-92991441D01*
X85008110Y-93136431D01*
X85260000Y-93187440D01*
X87460000Y-93187440D01*
X87695317Y-93143162D01*
X87888360Y-93018942D01*
X96229730Y-93018942D01*
X96466725Y-93592514D01*
X96905177Y-94031732D01*
X97478336Y-94269728D01*
X98098942Y-94270270D01*
X98672514Y-94033275D01*
X99111732Y-93594823D01*
X99349728Y-93021664D01*
X99350270Y-92401058D01*
X99113275Y-91827486D01*
X98682796Y-91396255D01*
X99059710Y-91019997D01*
X99288339Y-90469398D01*
X99288859Y-89873218D01*
X99061192Y-89322220D01*
X98639997Y-88900290D01*
X98599463Y-88883459D01*
X98664200Y-88683805D01*
X97790000Y-87809605D01*
X96915800Y-88683805D01*
X96980399Y-88883033D01*
X96942220Y-88898808D01*
X96520290Y-89320003D01*
X96291661Y-89870602D01*
X96291141Y-90466782D01*
X96518808Y-91017780D01*
X96897280Y-91396913D01*
X96468268Y-91825177D01*
X96230272Y-92398336D01*
X96229730Y-93018942D01*
X87888360Y-93018942D01*
X87911441Y-93004090D01*
X88056431Y-92791890D01*
X88107440Y-92540000D01*
X88107440Y-90340000D01*
X88063162Y-90104683D01*
X87924090Y-89888559D01*
X87711890Y-89743569D01*
X87460000Y-89692560D01*
X87120000Y-89692560D01*
X87120000Y-82777440D01*
X87210000Y-82777440D01*
X87445317Y-82733162D01*
X87661441Y-82594090D01*
X87806431Y-82381890D01*
X87857440Y-82130000D01*
X87857440Y-82040000D01*
X96205198Y-82040000D01*
X96328084Y-82162886D01*
X96291661Y-82250602D01*
X96291141Y-82846782D01*
X96328354Y-82936844D01*
X92172599Y-87092599D01*
X92007852Y-87339161D01*
X91950000Y-87630000D01*
X91950000Y-90281354D01*
X91898200Y-90302757D01*
X91494176Y-90706077D01*
X91275250Y-91233309D01*
X91274752Y-91804187D01*
X91492757Y-92331800D01*
X91896077Y-92735824D01*
X92423309Y-92954750D01*
X92994187Y-92955248D01*
X93521800Y-92737243D01*
X93925824Y-92333923D01*
X94144750Y-91806691D01*
X94145248Y-91235813D01*
X93927243Y-90708200D01*
X93523923Y-90304176D01*
X93470000Y-90281785D01*
X93470000Y-87944802D01*
X94016772Y-87398030D01*
X96279752Y-87398030D01*
X96305942Y-87993635D01*
X96483484Y-88422259D01*
X96736195Y-88504200D01*
X97610395Y-87630000D01*
X97969605Y-87630000D01*
X98843805Y-88504200D01*
X99096516Y-88422259D01*
X99300248Y-87861970D01*
X99274058Y-87266365D01*
X99096516Y-86837741D01*
X98843805Y-86755800D01*
X97969605Y-87630000D01*
X97610395Y-87630000D01*
X96736195Y-86755800D01*
X96483484Y-86837741D01*
X96279752Y-87398030D01*
X94016772Y-87398030D01*
X96291371Y-85123431D01*
X96291141Y-85386782D01*
X96518808Y-85937780D01*
X96940003Y-86359710D01*
X96980537Y-86376541D01*
X96915800Y-86576195D01*
X97790000Y-87450395D01*
X98664200Y-86576195D01*
X98599601Y-86376967D01*
X98637780Y-86361192D01*
X99059710Y-85939997D01*
X99288339Y-85389398D01*
X99288859Y-84793218D01*
X99061192Y-84242220D01*
X98639997Y-83820290D01*
X98639069Y-83819905D01*
X99059710Y-83399997D01*
X99288339Y-82849398D01*
X99288859Y-82253218D01*
X99061192Y-81702220D01*
X98639997Y-81280290D01*
X98639069Y-81279905D01*
X99059710Y-80859997D01*
X99288339Y-80309398D01*
X99288859Y-79713218D01*
X99061192Y-79162220D01*
X98639997Y-78740290D01*
X98639069Y-78739905D01*
X99059710Y-78319997D01*
X99288339Y-77769398D01*
X99288859Y-77173218D01*
X99061192Y-76622220D01*
X98639997Y-76200290D01*
X98639069Y-76199905D01*
X99059710Y-75779997D01*
X99097080Y-75690000D01*
X99570000Y-75690000D01*
X99570000Y-93665198D01*
X94712599Y-98522599D01*
X94547852Y-98769161D01*
X94490000Y-99060000D01*
X94490000Y-104140000D01*
X94547852Y-104430839D01*
X94712599Y-104677401D01*
X97252599Y-107217401D01*
X97499160Y-107382148D01*
X97547414Y-107391746D01*
X97790000Y-107440000D01*
X115570000Y-107440000D01*
X115860839Y-107382148D01*
X116107401Y-107217401D01*
X118424802Y-104900000D01*
X132080000Y-104900000D01*
X132370839Y-104842148D01*
X132617401Y-104677401D01*
X132782148Y-104430839D01*
X132840000Y-104140000D01*
X132840000Y-96834802D01*
X133887401Y-95787401D01*
X134052148Y-95540840D01*
X134110000Y-95250000D01*
X134110000Y-89962302D01*
X138290856Y-89962302D01*
X138318638Y-90517368D01*
X138477603Y-90901143D01*
X138719787Y-90970608D01*
X139520395Y-90170000D01*
X139879605Y-90170000D01*
X140680213Y-90970608D01*
X140922397Y-90901143D01*
X141109144Y-90377698D01*
X141088353Y-89962302D01*
X161150856Y-89962302D01*
X161178638Y-90517368D01*
X161337603Y-90901143D01*
X161579787Y-90970608D01*
X162380395Y-90170000D01*
X162739605Y-90170000D01*
X163540213Y-90970608D01*
X163782397Y-90901143D01*
X163969144Y-90377698D01*
X163941362Y-89822632D01*
X163782397Y-89438857D01*
X163540213Y-89369392D01*
X162739605Y-90170000D01*
X162380395Y-90170000D01*
X161579787Y-89369392D01*
X161337603Y-89438857D01*
X161150856Y-89962302D01*
X141088353Y-89962302D01*
X141081362Y-89822632D01*
X140922397Y-89438857D01*
X140680213Y-89369392D01*
X139879605Y-90170000D01*
X139520395Y-90170000D01*
X138719787Y-89369392D01*
X138477603Y-89438857D01*
X138290856Y-89962302D01*
X134110000Y-89962302D01*
X134110000Y-87906661D01*
X138302758Y-87906661D01*
X138514990Y-88420303D01*
X138907630Y-88813629D01*
X139099727Y-88893395D01*
X138968857Y-88947603D01*
X138899392Y-89189787D01*
X139700000Y-89990395D01*
X140500608Y-89189787D01*
X140431143Y-88947603D01*
X140290682Y-88897491D01*
X140490303Y-88815010D01*
X140883629Y-88422370D01*
X141096757Y-87909100D01*
X141096759Y-87906661D01*
X161162758Y-87906661D01*
X161374990Y-88420303D01*
X161767630Y-88813629D01*
X161959727Y-88893395D01*
X161828857Y-88947603D01*
X161759392Y-89189787D01*
X162560000Y-89990395D01*
X163360608Y-89189787D01*
X163291143Y-88947603D01*
X163150682Y-88897491D01*
X163350303Y-88815010D01*
X163743629Y-88422370D01*
X163956757Y-87909100D01*
X163957242Y-87353339D01*
X163745010Y-86839697D01*
X163352370Y-86446371D01*
X162839100Y-86233243D01*
X162283339Y-86232758D01*
X161769697Y-86444990D01*
X161376371Y-86837630D01*
X161163243Y-87350900D01*
X161162758Y-87906661D01*
X141096759Y-87906661D01*
X141097242Y-87353339D01*
X140885010Y-86839697D01*
X140492370Y-86446371D01*
X139979100Y-86233243D01*
X139423339Y-86232758D01*
X138909697Y-86444990D01*
X138516371Y-86837630D01*
X138303243Y-87350900D01*
X138302758Y-87906661D01*
X134110000Y-87906661D01*
X134110000Y-77784802D01*
X134493059Y-77401743D01*
X134492758Y-77746661D01*
X134704990Y-78260303D01*
X135097630Y-78653629D01*
X135610900Y-78866757D01*
X136166661Y-78867242D01*
X136680303Y-78655010D01*
X137073629Y-78262370D01*
X137286757Y-77749100D01*
X137287242Y-77193339D01*
X137075010Y-76679697D01*
X136682370Y-76286371D01*
X136474488Y-76200051D01*
X136680303Y-76115010D01*
X137073629Y-75722370D01*
X137286757Y-75209100D01*
X137287242Y-74653339D01*
X137075010Y-74139697D01*
X136682370Y-73746371D01*
X136474488Y-73660051D01*
X136680303Y-73575010D01*
X137073629Y-73182370D01*
X137286757Y-72669100D01*
X137287242Y-72113339D01*
X137075010Y-71599697D01*
X136682370Y-71206371D01*
X136474488Y-71120051D01*
X136680303Y-71035010D01*
X137073629Y-70642370D01*
X137286757Y-70129100D01*
X137287242Y-69573339D01*
X137075010Y-69059697D01*
X136682370Y-68666371D01*
X136474488Y-68580051D01*
X136680303Y-68495010D01*
X137073629Y-68102370D01*
X137286757Y-67589100D01*
X137287242Y-67033339D01*
X137190829Y-66800000D01*
X146019121Y-66800000D01*
X145923243Y-67030900D01*
X145922758Y-67586661D01*
X145936143Y-67619055D01*
X145512599Y-68042599D01*
X145347852Y-68289161D01*
X145290000Y-68580000D01*
X145290000Y-71120000D01*
X145347852Y-71410839D01*
X145512599Y-71657401D01*
X145759161Y-71822148D01*
X146021477Y-71874326D01*
X145923243Y-72110900D01*
X145922758Y-72666661D01*
X146134990Y-73180303D01*
X146527630Y-73573629D01*
X146735512Y-73659949D01*
X146529697Y-73744990D01*
X146136371Y-74137630D01*
X145923243Y-74650900D01*
X145922758Y-75206661D01*
X146134990Y-75720303D01*
X146527630Y-76113629D01*
X146735512Y-76199949D01*
X146529697Y-76284990D01*
X146136371Y-76677630D01*
X145923243Y-77190900D01*
X145922758Y-77746661D01*
X146134990Y-78260303D01*
X146527630Y-78653629D01*
X147040900Y-78866757D01*
X147596661Y-78867242D01*
X148110303Y-78655010D01*
X148503629Y-78262370D01*
X148716757Y-77749100D01*
X148717103Y-77352532D01*
X152697073Y-77352532D01*
X152795736Y-77619387D01*
X153405461Y-77845908D01*
X154055460Y-77821856D01*
X154544264Y-77619387D01*
X154642927Y-77352532D01*
X153670000Y-76379605D01*
X152697073Y-77352532D01*
X148717103Y-77352532D01*
X148717242Y-77193339D01*
X148505010Y-76679697D01*
X148112370Y-76286371D01*
X147904488Y-76200051D01*
X148110303Y-76115010D01*
X148290165Y-75935461D01*
X152024092Y-75935461D01*
X152048144Y-76585460D01*
X152250613Y-77074264D01*
X152517468Y-77172927D01*
X153490395Y-76200000D01*
X153849605Y-76200000D01*
X154822532Y-77172927D01*
X155089387Y-77074264D01*
X155315908Y-76464539D01*
X155291856Y-75814540D01*
X155089387Y-75325736D01*
X154822532Y-75227073D01*
X153849605Y-76200000D01*
X153490395Y-76200000D01*
X152517468Y-75227073D01*
X152250613Y-75325736D01*
X152024092Y-75935461D01*
X148290165Y-75935461D01*
X148503629Y-75722370D01*
X148716757Y-75209100D01*
X148717242Y-74653339D01*
X148505010Y-74139697D01*
X148112370Y-73746371D01*
X147904488Y-73660051D01*
X148110303Y-73575010D01*
X148503629Y-73182370D01*
X148716757Y-72669100D01*
X148717242Y-72113339D01*
X148620829Y-71880000D01*
X152214953Y-71880000D01*
X152283106Y-72044943D01*
X152627759Y-72390199D01*
X152284722Y-72732637D01*
X152035284Y-73333352D01*
X152034716Y-73983795D01*
X152283106Y-74584943D01*
X152709978Y-75012562D01*
X152697073Y-75047468D01*
X153670000Y-76020395D01*
X154476208Y-75214187D01*
X161124752Y-75214187D01*
X161342757Y-75741800D01*
X161746077Y-76145824D01*
X162273309Y-76364750D01*
X162844187Y-76365248D01*
X163371800Y-76147243D01*
X163775824Y-75743923D01*
X163994750Y-75216691D01*
X163995248Y-74645813D01*
X163777243Y-74118200D01*
X163373923Y-73714176D01*
X162846691Y-73495250D01*
X162275813Y-73494752D01*
X161748200Y-73712757D01*
X161344176Y-74116077D01*
X161125250Y-74643309D01*
X161124752Y-75214187D01*
X154476208Y-75214187D01*
X154642927Y-75047468D01*
X154629836Y-75012062D01*
X155055278Y-74587363D01*
X155304716Y-73986648D01*
X155305284Y-73336205D01*
X155056894Y-72735057D01*
X154712241Y-72389801D01*
X155055278Y-72047363D01*
X155124773Y-71880000D01*
X169624290Y-71880000D01*
X169477852Y-72099161D01*
X169420000Y-72390000D01*
X169420000Y-79697546D01*
X169335319Y-79271826D01*
X168937541Y-78676509D01*
X168342224Y-78278731D01*
X167640000Y-78139050D01*
X166937776Y-78278731D01*
X166342459Y-78676509D01*
X165944681Y-79271826D01*
X165805000Y-79974050D01*
X165805000Y-80045950D01*
X165944681Y-80748174D01*
X166342459Y-81343491D01*
X166937776Y-81741269D01*
X167640000Y-81880950D01*
X168342224Y-81741269D01*
X168937541Y-81343491D01*
X169335319Y-80748174D01*
X169420000Y-80322454D01*
X169420000Y-82235198D01*
X167102599Y-84552599D01*
X166937852Y-84799161D01*
X166880000Y-85090000D01*
X166880000Y-91038552D01*
X166601914Y-91153455D01*
X166085270Y-91669199D01*
X165805319Y-92343395D01*
X165804682Y-93073403D01*
X165920791Y-93354407D01*
X163956941Y-95318257D01*
X163957242Y-94973339D01*
X163745010Y-94459697D01*
X163352370Y-94066371D01*
X163144488Y-93980051D01*
X163350303Y-93895010D01*
X163743629Y-93502370D01*
X163956757Y-92989100D01*
X163957242Y-92433339D01*
X163745010Y-91919697D01*
X163352370Y-91526371D01*
X163160273Y-91446605D01*
X163291143Y-91392397D01*
X163360608Y-91150213D01*
X162560000Y-90349605D01*
X161759392Y-91150213D01*
X161828857Y-91392397D01*
X161969318Y-91442509D01*
X161769697Y-91524990D01*
X161376371Y-91917630D01*
X161163243Y-92430900D01*
X161162758Y-92986661D01*
X161374990Y-93500303D01*
X161767630Y-93893629D01*
X161975512Y-93979949D01*
X161769697Y-94064990D01*
X161376371Y-94457630D01*
X161163243Y-94970900D01*
X161162758Y-95526661D01*
X161374990Y-96040303D01*
X161767630Y-96433629D01*
X161975512Y-96519949D01*
X161769697Y-96604990D01*
X161376371Y-96997630D01*
X161163243Y-97510900D01*
X161162758Y-98066661D01*
X161374990Y-98580303D01*
X161767630Y-98973629D01*
X161975512Y-99059949D01*
X161769697Y-99144990D01*
X161376371Y-99537630D01*
X161163243Y-100050900D01*
X161162758Y-100606661D01*
X161374990Y-101120303D01*
X161767630Y-101513629D01*
X161975512Y-101599949D01*
X161769697Y-101684990D01*
X161376371Y-102077630D01*
X161163243Y-102590900D01*
X161162758Y-103146661D01*
X161374990Y-103660303D01*
X161767630Y-104053629D01*
X161975512Y-104139949D01*
X161769697Y-104224990D01*
X161376371Y-104617630D01*
X161163243Y-105130900D01*
X161162758Y-105686661D01*
X161374990Y-106200303D01*
X161767630Y-106593629D01*
X161975512Y-106679949D01*
X161769697Y-106764990D01*
X161376371Y-107157630D01*
X161163243Y-107670900D01*
X161162758Y-108226661D01*
X161374990Y-108740303D01*
X161767630Y-109133629D01*
X161975512Y-109219949D01*
X161769697Y-109304990D01*
X161376371Y-109697630D01*
X161163243Y-110210900D01*
X161162758Y-110766661D01*
X161374990Y-111280303D01*
X161767630Y-111673629D01*
X161975512Y-111759949D01*
X161769697Y-111844990D01*
X161376371Y-112237630D01*
X161163243Y-112750900D01*
X161162758Y-113306661D01*
X161259171Y-113540000D01*
X141000879Y-113540000D01*
X141096757Y-113309100D01*
X141097242Y-112753339D01*
X140885010Y-112239697D01*
X140492370Y-111846371D01*
X140284488Y-111760051D01*
X140490303Y-111675010D01*
X140883629Y-111282370D01*
X141096757Y-110769100D01*
X141097242Y-110213339D01*
X140885010Y-109699697D01*
X140492370Y-109306371D01*
X140284488Y-109220051D01*
X140490303Y-109135010D01*
X140883629Y-108742370D01*
X141096757Y-108229100D01*
X141097242Y-107673339D01*
X140885010Y-107159697D01*
X140492370Y-106766371D01*
X140284488Y-106680051D01*
X140490303Y-106595010D01*
X140883629Y-106202370D01*
X140897070Y-106170000D01*
X154377537Y-106170000D01*
X154409673Y-106202192D01*
X154753201Y-106344838D01*
X155125167Y-106345162D01*
X155468943Y-106203117D01*
X155732192Y-105940327D01*
X155874838Y-105596799D01*
X155875162Y-105224833D01*
X155733117Y-104881057D01*
X155470327Y-104617808D01*
X155126799Y-104475162D01*
X154754833Y-104474838D01*
X154411057Y-104616883D01*
X154377882Y-104650000D01*
X140897531Y-104650000D01*
X140885010Y-104619697D01*
X140492370Y-104226371D01*
X140284488Y-104140051D01*
X140490303Y-104055010D01*
X140883629Y-103662370D01*
X140897070Y-103630000D01*
X155647537Y-103630000D01*
X155679673Y-103662192D01*
X156023201Y-103804838D01*
X156395167Y-103805162D01*
X156738943Y-103663117D01*
X157002192Y-103400327D01*
X157144838Y-103056799D01*
X157145162Y-102684833D01*
X157003117Y-102341057D01*
X156740327Y-102077808D01*
X156396799Y-101935162D01*
X156024833Y-101934838D01*
X155681057Y-102076883D01*
X155647882Y-102110000D01*
X140897531Y-102110000D01*
X140885010Y-102079697D01*
X140492370Y-101686371D01*
X140284488Y-101600051D01*
X140490303Y-101515010D01*
X140883629Y-101122370D01*
X141096757Y-100609100D01*
X141097242Y-100053339D01*
X140885010Y-99539697D01*
X140492370Y-99146371D01*
X140284488Y-99060051D01*
X140490303Y-98975010D01*
X140883629Y-98582370D01*
X141096757Y-98069100D01*
X141097242Y-97513339D01*
X140885010Y-96999697D01*
X140492370Y-96606371D01*
X140284488Y-96520051D01*
X140490303Y-96435010D01*
X140883629Y-96042370D01*
X141096757Y-95529100D01*
X141097242Y-94973339D01*
X140885010Y-94459697D01*
X140492370Y-94066371D01*
X140284488Y-93980051D01*
X140490303Y-93895010D01*
X140883629Y-93502370D01*
X141096757Y-92989100D01*
X141097242Y-92433339D01*
X140885010Y-91919697D01*
X140492370Y-91526371D01*
X140300273Y-91446605D01*
X140431143Y-91392397D01*
X140500608Y-91150213D01*
X139700000Y-90349605D01*
X138899392Y-91150213D01*
X138968857Y-91392397D01*
X139109318Y-91442509D01*
X138909697Y-91524990D01*
X138516371Y-91917630D01*
X138303243Y-92430900D01*
X138302758Y-92986661D01*
X138514990Y-93500303D01*
X138907630Y-93893629D01*
X139115512Y-93979949D01*
X138909697Y-94064990D01*
X138516371Y-94457630D01*
X138303243Y-94970900D01*
X138302758Y-95526661D01*
X138514990Y-96040303D01*
X138907630Y-96433629D01*
X139115512Y-96519949D01*
X138909697Y-96604990D01*
X138516371Y-96997630D01*
X138303243Y-97510900D01*
X138302758Y-98066661D01*
X138514990Y-98580303D01*
X138907630Y-98973629D01*
X139115512Y-99059949D01*
X138909697Y-99144990D01*
X138516371Y-99537630D01*
X138303243Y-100050900D01*
X138302758Y-100606661D01*
X138514990Y-101120303D01*
X138907630Y-101513629D01*
X139115512Y-101599949D01*
X138909697Y-101684990D01*
X138516371Y-102077630D01*
X138303243Y-102590900D01*
X138302758Y-103146661D01*
X138514990Y-103660303D01*
X138907630Y-104053629D01*
X139115512Y-104139949D01*
X138909697Y-104224990D01*
X138516371Y-104617630D01*
X138303243Y-105130900D01*
X138302758Y-105686661D01*
X138514990Y-106200303D01*
X138907630Y-106593629D01*
X139115512Y-106679949D01*
X138909697Y-106764990D01*
X138516371Y-107157630D01*
X138303243Y-107670900D01*
X138302758Y-108226661D01*
X138514990Y-108740303D01*
X138907630Y-109133629D01*
X139115512Y-109219949D01*
X138909697Y-109304990D01*
X138516371Y-109697630D01*
X138303243Y-110210900D01*
X138302758Y-110766661D01*
X138514990Y-111280303D01*
X138907630Y-111673629D01*
X139115512Y-111759949D01*
X138909697Y-111844990D01*
X138516371Y-112237630D01*
X138303243Y-112750900D01*
X138302940Y-113098138D01*
X137697401Y-112492599D01*
X137450839Y-112327852D01*
X137160000Y-112270000D01*
X129540000Y-112270000D01*
X129249160Y-112327852D01*
X129002599Y-112492599D01*
X128616969Y-112878229D01*
X128299093Y-112815000D01*
X128240907Y-112815000D01*
X127923031Y-112878229D01*
X124997401Y-109952599D01*
X124750839Y-109787852D01*
X124460000Y-109730000D01*
X123591448Y-109730000D01*
X123476545Y-109451914D01*
X122960801Y-108935270D01*
X122286605Y-108655319D01*
X121556597Y-108654682D01*
X120881914Y-108933455D01*
X120365270Y-109449199D01*
X120248671Y-109730000D01*
X117241448Y-109730000D01*
X117126545Y-109451914D01*
X116610801Y-108935270D01*
X115936605Y-108655319D01*
X115206597Y-108654682D01*
X114531914Y-108933455D01*
X114015270Y-109449199D01*
X113735319Y-110123395D01*
X113734682Y-110853403D01*
X113850791Y-111134407D01*
X112715198Y-112270000D01*
X109447440Y-112270000D01*
X109447440Y-112180000D01*
X109403162Y-111944683D01*
X109264090Y-111728559D01*
X109051890Y-111583569D01*
X108800000Y-111532560D01*
X107100000Y-111532560D01*
X106864683Y-111576838D01*
X106648559Y-111715910D01*
X106503569Y-111928110D01*
X106452560Y-112180000D01*
X106452560Y-113880000D01*
X106496838Y-114115317D01*
X106635910Y-114331441D01*
X106848110Y-114476431D01*
X106915541Y-114490086D01*
X106870853Y-114519946D01*
X106548946Y-115001715D01*
X106435907Y-115570000D01*
X106508790Y-115936408D01*
X106142599Y-116302599D01*
X105977852Y-116549161D01*
X105920000Y-116840000D01*
X105920000Y-121920000D01*
X105977852Y-122210839D01*
X106142599Y-122457401D01*
X106389161Y-122622148D01*
X106680000Y-122680000D01*
X108905198Y-122680000D01*
X112492599Y-126267401D01*
X112739161Y-126432148D01*
X113030000Y-126490000D01*
X160020000Y-126490000D01*
X160310839Y-126432148D01*
X160557401Y-126267401D01*
X160566630Y-126258172D01*
X173862538Y-126258172D01*
X174267709Y-127238761D01*
X175017293Y-127989655D01*
X175997173Y-128396536D01*
X177058172Y-128397462D01*
X178038761Y-127992291D01*
X178789655Y-127242707D01*
X179196536Y-126262827D01*
X179197462Y-125201828D01*
X178792291Y-124221239D01*
X178042707Y-123470345D01*
X177062827Y-123063464D01*
X176001828Y-123062538D01*
X175021239Y-123467709D01*
X174270345Y-124217293D01*
X173863464Y-125197173D01*
X173862538Y-126258172D01*
X160566630Y-126258172D01*
X162250619Y-124574183D01*
X162280900Y-124586757D01*
X162836661Y-124587242D01*
X163350303Y-124375010D01*
X163743629Y-123982370D01*
X163956757Y-123469100D01*
X163957242Y-122913339D01*
X163745010Y-122399697D01*
X163352370Y-122006371D01*
X163144488Y-121920051D01*
X163350303Y-121835010D01*
X163743629Y-121442370D01*
X163956757Y-120929100D01*
X163957242Y-120373339D01*
X163745010Y-119859697D01*
X163352370Y-119466371D01*
X163144488Y-119380051D01*
X163350303Y-119295010D01*
X163743629Y-118902370D01*
X163956757Y-118389100D01*
X163957119Y-117973223D01*
X166193035Y-117973223D01*
X166220222Y-118543454D01*
X166386136Y-118944005D01*
X166632255Y-119018139D01*
X167460395Y-118190000D01*
X166632255Y-117361861D01*
X166386136Y-117435995D01*
X166193035Y-117973223D01*
X163957119Y-117973223D01*
X163957242Y-117833339D01*
X163745010Y-117319697D01*
X163352370Y-116926371D01*
X163144488Y-116840051D01*
X163350303Y-116755010D01*
X163743629Y-116362370D01*
X163956757Y-115849100D01*
X163957242Y-115293339D01*
X163860829Y-115060000D01*
X166370000Y-115060000D01*
X166660839Y-115002148D01*
X166880000Y-114855710D01*
X166880000Y-115570000D01*
X166937852Y-115860839D01*
X167102599Y-116107401D01*
X167743628Y-116748430D01*
X167286546Y-116770222D01*
X166885995Y-116936136D01*
X166811861Y-117182255D01*
X167640000Y-118010395D01*
X167654142Y-117996252D01*
X167833748Y-118175858D01*
X167819605Y-118190000D01*
X167833748Y-118204143D01*
X167654142Y-118383748D01*
X167640000Y-118369605D01*
X166811861Y-119197745D01*
X166885995Y-119443864D01*
X167423223Y-119636965D01*
X167993454Y-119609778D01*
X168150000Y-119544934D01*
X168150000Y-121605198D01*
X167978454Y-121776744D01*
X167926691Y-121755250D01*
X167355813Y-121754752D01*
X166828200Y-121972757D01*
X166424176Y-122376077D01*
X166205250Y-122903309D01*
X166204752Y-123474187D01*
X166422757Y-124001800D01*
X166826077Y-124405824D01*
X167353309Y-124624750D01*
X167924187Y-124625248D01*
X168451800Y-124407243D01*
X168855824Y-124003923D01*
X169074750Y-123476691D01*
X169075248Y-122905813D01*
X169052951Y-122851851D01*
X169447401Y-122457401D01*
X169612148Y-122210840D01*
X169670000Y-121920000D01*
X169670000Y-116840000D01*
X169644690Y-116712758D01*
X169612148Y-116549160D01*
X169447401Y-116302599D01*
X168400000Y-115255198D01*
X168400000Y-114701448D01*
X168678086Y-114586545D01*
X169194730Y-114070801D01*
X169474681Y-113396605D01*
X169475318Y-112666597D01*
X169196545Y-111991914D01*
X168680801Y-111475270D01*
X168006605Y-111195319D01*
X167276597Y-111194682D01*
X166995593Y-111310791D01*
X164590000Y-108905198D01*
X164590000Y-100294050D01*
X165805000Y-100294050D01*
X165805000Y-100365950D01*
X165944681Y-101068174D01*
X166342459Y-101663491D01*
X166937776Y-102061269D01*
X167640000Y-102200950D01*
X168342224Y-102061269D01*
X168937541Y-101663491D01*
X169335319Y-101068174D01*
X169475000Y-100365950D01*
X169475000Y-100294050D01*
X169335319Y-99591826D01*
X168937541Y-98996509D01*
X168342224Y-98598731D01*
X167640000Y-98459050D01*
X166937776Y-98598731D01*
X166342459Y-98996509D01*
X165944681Y-99591826D01*
X165805000Y-100294050D01*
X164590000Y-100294050D01*
X164590000Y-99060000D01*
X164532148Y-98769161D01*
X164532148Y-98769160D01*
X164367401Y-98522599D01*
X163944183Y-98099381D01*
X163956757Y-98069100D01*
X163957242Y-97513339D01*
X163943857Y-97480945D01*
X166995509Y-94429293D01*
X167273395Y-94544681D01*
X168003403Y-94545318D01*
X168678086Y-94266545D01*
X169194730Y-93750801D01*
X169474681Y-93076605D01*
X169475318Y-92346597D01*
X169196545Y-91671914D01*
X168680801Y-91155270D01*
X168400000Y-91038671D01*
X168400000Y-85404802D01*
X170717401Y-83087401D01*
X170882148Y-82840840D01*
X170902843Y-82736799D01*
X170940000Y-82550000D01*
X170940000Y-72895138D01*
X171083395Y-72954681D01*
X171813403Y-72955318D01*
X172488086Y-72676545D01*
X173004730Y-72160801D01*
X173284681Y-71486605D01*
X173285318Y-70756597D01*
X173006545Y-70081914D01*
X172490801Y-69565270D01*
X171816605Y-69285319D01*
X171086597Y-69284682D01*
X170411914Y-69563455D01*
X169895270Y-70079199D01*
X169778671Y-70360000D01*
X156765710Y-70360000D01*
X156912148Y-70140840D01*
X156970000Y-69850000D01*
X156970000Y-58384050D01*
X169615000Y-58384050D01*
X169615000Y-58455950D01*
X169754681Y-59158174D01*
X170152459Y-59753491D01*
X170747776Y-60151269D01*
X171450000Y-60290950D01*
X172152224Y-60151269D01*
X172747541Y-59753491D01*
X173145319Y-59158174D01*
X173285000Y-58455950D01*
X173285000Y-58384050D01*
X173145319Y-57681826D01*
X172747541Y-57086509D01*
X172152224Y-56688731D01*
X171450000Y-56549050D01*
X170747776Y-56688731D01*
X170152459Y-57086509D01*
X169754681Y-57681826D01*
X169615000Y-58384050D01*
X156970000Y-58384050D01*
X156970000Y-55279041D01*
X161168086Y-55279041D01*
X161407611Y-55785134D01*
X161822577Y-56161041D01*
X162210961Y-56321904D01*
X162433000Y-56199915D01*
X162433000Y-55057000D01*
X162687000Y-55057000D01*
X162687000Y-56199915D01*
X162909039Y-56321904D01*
X163297423Y-56161041D01*
X163712389Y-55785134D01*
X163951914Y-55279041D01*
X163830629Y-55057000D01*
X162687000Y-55057000D01*
X162433000Y-55057000D01*
X161289371Y-55057000D01*
X161168086Y-55279041D01*
X156970000Y-55279041D01*
X156970000Y-54580959D01*
X161168086Y-54580959D01*
X161289371Y-54803000D01*
X162433000Y-54803000D01*
X162433000Y-53660085D01*
X162687000Y-53660085D01*
X162687000Y-54803000D01*
X163830629Y-54803000D01*
X163951914Y-54580959D01*
X163712389Y-54074866D01*
X163297423Y-53698959D01*
X162909039Y-53538096D01*
X162687000Y-53660085D01*
X162433000Y-53660085D01*
X162210961Y-53538096D01*
X161822577Y-53698959D01*
X161407611Y-54074866D01*
X161168086Y-54580959D01*
X156970000Y-54580959D01*
X156970000Y-48544187D01*
X166204752Y-48544187D01*
X166422757Y-49071800D01*
X166826077Y-49475824D01*
X166880000Y-49498215D01*
X166880000Y-49530000D01*
X166937852Y-49820839D01*
X167102599Y-50067401D01*
X168372599Y-51337401D01*
X168619160Y-51502148D01*
X168910000Y-51560000D01*
X175260000Y-51560000D01*
X175550839Y-51502148D01*
X175797401Y-51337401D01*
X177240110Y-49894692D01*
X177333754Y-49894774D01*
X177934715Y-49646462D01*
X178394906Y-49187073D01*
X178644266Y-48586547D01*
X178644834Y-47936306D01*
X178396522Y-47335345D01*
X177937133Y-46875154D01*
X177336607Y-46625794D01*
X176686366Y-46625226D01*
X176085405Y-46873538D01*
X175625214Y-47332927D01*
X175375854Y-47933453D01*
X175375286Y-48583694D01*
X175623598Y-49184655D01*
X175711993Y-49273205D01*
X174945198Y-50040000D01*
X169224802Y-50040000D01*
X168596965Y-49412163D01*
X172537383Y-49412163D01*
X172635982Y-49678965D01*
X173245522Y-49905401D01*
X173895317Y-49881341D01*
X174383898Y-49678965D01*
X174482497Y-49412163D01*
X173509940Y-48439605D01*
X172537383Y-49412163D01*
X168596965Y-49412163D01*
X168557014Y-49372212D01*
X168855824Y-49073923D01*
X169074750Y-48546691D01*
X169075230Y-47995582D01*
X171864539Y-47995582D01*
X171888599Y-48645377D01*
X172090975Y-49133958D01*
X172357777Y-49232557D01*
X173330335Y-48260000D01*
X173689545Y-48260000D01*
X174662103Y-49232557D01*
X174928905Y-49133958D01*
X175155341Y-48524418D01*
X175131281Y-47874623D01*
X174928905Y-47386042D01*
X174662103Y-47287443D01*
X173689545Y-48260000D01*
X173330335Y-48260000D01*
X172357777Y-47287443D01*
X172090975Y-47386042D01*
X171864539Y-47995582D01*
X169075230Y-47995582D01*
X169075248Y-47975813D01*
X168857243Y-47448200D01*
X168517474Y-47107837D01*
X172537383Y-47107837D01*
X173509940Y-48080395D01*
X174482497Y-47107837D01*
X174383898Y-46841035D01*
X173774358Y-46614599D01*
X173124563Y-46638659D01*
X172635982Y-46841035D01*
X172537383Y-47107837D01*
X168517474Y-47107837D01*
X168453923Y-47044176D01*
X167926691Y-46825250D01*
X167355813Y-46824752D01*
X166828200Y-47042757D01*
X166424176Y-47446077D01*
X166205250Y-47973309D01*
X166204752Y-48544187D01*
X156970000Y-48544187D01*
X156970000Y-43742463D01*
X157002192Y-43710327D01*
X157144838Y-43366799D01*
X157145162Y-42994833D01*
X157003117Y-42651057D01*
X156740327Y-42387808D01*
X156396799Y-42245162D01*
X156024833Y-42244838D01*
X155681057Y-42386883D01*
X155417808Y-42649673D01*
X155275162Y-42993201D01*
X155274838Y-43365167D01*
X155416883Y-43708943D01*
X155450000Y-43742118D01*
X155450000Y-69535198D01*
X154923634Y-70061564D01*
X154712241Y-69849801D01*
X155055278Y-69507363D01*
X155304716Y-68906648D01*
X155305284Y-68256205D01*
X155056894Y-67655057D01*
X154712241Y-67309801D01*
X155055278Y-66967363D01*
X155304716Y-66366648D01*
X155305284Y-65716205D01*
X155056894Y-65115057D01*
X154712241Y-64769801D01*
X155055278Y-64427363D01*
X155304716Y-63826648D01*
X155305284Y-63176205D01*
X155056894Y-62575057D01*
X154712241Y-62229801D01*
X155055278Y-61887363D01*
X155304716Y-61286648D01*
X155305284Y-60636205D01*
X155056894Y-60035057D01*
X154990379Y-59968426D01*
X155121441Y-59884090D01*
X155266431Y-59671890D01*
X155317440Y-59420000D01*
X155317440Y-57420000D01*
X155273162Y-57184683D01*
X155134090Y-56968559D01*
X154921890Y-56823569D01*
X154670000Y-56772560D01*
X154430000Y-56772560D01*
X154430000Y-40640000D01*
X154372148Y-40349161D01*
X154372148Y-40349160D01*
X154207401Y-40102599D01*
X152463210Y-38358408D01*
X153017491Y-38248155D01*
X153515481Y-37915409D01*
X153848227Y-37417419D01*
X153860011Y-37358172D01*
X173862538Y-37358172D01*
X174267709Y-38338761D01*
X175017293Y-39089655D01*
X175997173Y-39496536D01*
X177058172Y-39497462D01*
X178038761Y-39092291D01*
X178789655Y-38342707D01*
X179196536Y-37362827D01*
X179197462Y-36301828D01*
X178792291Y-35321239D01*
X178042707Y-34570345D01*
X177062827Y-34163464D01*
X176001828Y-34162538D01*
X175021239Y-34567709D01*
X174270345Y-35317293D01*
X173863464Y-36297173D01*
X173862538Y-37358172D01*
X153860011Y-37358172D01*
X153965072Y-36830000D01*
X153848227Y-36242581D01*
X153515481Y-35744591D01*
X153160000Y-35507066D01*
X153160000Y-34290000D01*
X153102148Y-33999161D01*
X152937401Y-33752599D01*
X152690839Y-33587852D01*
X152400000Y-33530000D01*
X142240000Y-33530000D01*
X141949161Y-33587852D01*
X141702599Y-33752599D01*
X137498454Y-37956744D01*
X137446691Y-37935250D01*
X136875813Y-37934752D01*
X136348200Y-38152757D01*
X135944176Y-38556077D01*
X135921785Y-38610000D01*
X127577440Y-38610000D01*
X127577440Y-38170000D01*
X127533162Y-37934683D01*
X127394090Y-37718559D01*
X127181890Y-37573569D01*
X126930000Y-37522560D01*
X124530000Y-37522560D01*
X124294683Y-37566838D01*
X124078559Y-37705910D01*
X123933569Y-37918110D01*
X123882560Y-38170000D01*
X123882560Y-40570000D01*
X123926838Y-40805317D01*
X124065910Y-41021441D01*
X124278110Y-41166431D01*
X124530000Y-41217440D01*
X126930000Y-41217440D01*
X127165317Y-41173162D01*
X127381441Y-41034090D01*
X127526431Y-40821890D01*
X127577440Y-40570000D01*
X127577440Y-40130000D01*
X135921354Y-40130000D01*
X135942757Y-40181800D01*
X136346077Y-40585824D01*
X136873309Y-40804750D01*
X137444187Y-40805248D01*
X137971800Y-40587243D01*
X138375824Y-40183923D01*
X138594750Y-39656691D01*
X138595248Y-39085813D01*
X138572951Y-39031851D01*
X142554802Y-35050000D01*
X145485198Y-35050000D01*
X144465198Y-36070000D01*
X142240000Y-36070000D01*
X141997414Y-36118254D01*
X141949160Y-36127852D01*
X141702599Y-36292599D01*
X139162599Y-38832599D01*
X138997852Y-39079161D01*
X138940000Y-39370000D01*
X138940000Y-41595198D01*
X137892599Y-42642599D01*
X137727852Y-42889161D01*
X137670000Y-43180000D01*
X137670000Y-50800000D01*
X137727852Y-51090839D01*
X137892599Y-51337401D01*
X141702599Y-55147401D01*
X141949161Y-55312148D01*
X142240000Y-55370000D01*
X146122469Y-55370000D01*
X146134990Y-55400303D01*
X146527630Y-55793629D01*
X146735512Y-55879949D01*
X146529697Y-55964990D01*
X146136371Y-56357630D01*
X146122930Y-56390000D01*
X143510000Y-56390000D01*
X143219161Y-56447852D01*
X142972599Y-56612599D01*
X137286941Y-62298257D01*
X137287242Y-61953339D01*
X137273857Y-61920945D01*
X137697401Y-61497401D01*
X137862148Y-61250840D01*
X137920000Y-60960000D01*
X137920000Y-60490633D01*
X138243201Y-60624838D01*
X138615167Y-60625162D01*
X138958943Y-60483117D01*
X139222192Y-60220327D01*
X139364838Y-59876799D01*
X139365162Y-59504833D01*
X139223117Y-59161057D01*
X139190000Y-59127882D01*
X139190000Y-53340000D01*
X139132148Y-53049161D01*
X139132148Y-53049160D01*
X138967401Y-52802599D01*
X137697401Y-51532599D01*
X137450839Y-51367852D01*
X137160000Y-51310000D01*
X133912463Y-51310000D01*
X133880327Y-51277808D01*
X133536799Y-51135162D01*
X133164833Y-51134838D01*
X132821057Y-51276883D01*
X132591171Y-51506369D01*
X131347401Y-50262599D01*
X131100839Y-50097852D01*
X130810000Y-50040000D01*
X111760000Y-50040000D01*
X111469161Y-50097852D01*
X111222599Y-50262599D01*
X111057852Y-50509161D01*
X111000000Y-50800000D01*
X111000000Y-60960000D01*
X111057852Y-61250839D01*
X111222599Y-61497401D01*
X111568084Y-61842886D01*
X111531661Y-61930602D01*
X111531141Y-62526782D01*
X111758808Y-63077780D01*
X112180003Y-63499710D01*
X112180931Y-63500095D01*
X111760290Y-63920003D01*
X111722920Y-64010000D01*
X109220000Y-64010000D01*
X108929160Y-64067852D01*
X108682599Y-64232599D01*
X107412599Y-65502599D01*
X107247852Y-65749161D01*
X107190000Y-66040000D01*
X107190000Y-72390000D01*
X107247852Y-72680839D01*
X107412599Y-72927401D01*
X111222599Y-76737401D01*
X111469161Y-76902148D01*
X111629860Y-76934113D01*
X111531661Y-77170602D01*
X111531141Y-77766782D01*
X111758808Y-78317780D01*
X112180003Y-78739710D01*
X112180931Y-78740095D01*
X111760290Y-79160003D01*
X111531661Y-79710602D01*
X111531141Y-80306782D01*
X111758808Y-80857780D01*
X112180003Y-81279710D01*
X112220537Y-81296541D01*
X112155800Y-81496195D01*
X113030000Y-82370395D01*
X113904200Y-81496195D01*
X113839601Y-81296967D01*
X113877780Y-81281192D01*
X114299710Y-80859997D01*
X114528339Y-80309398D01*
X114528859Y-79713218D01*
X114301192Y-79162220D01*
X113879997Y-78740290D01*
X113879069Y-78739905D01*
X114299710Y-78319997D01*
X114528339Y-77769398D01*
X114528859Y-77173218D01*
X114430069Y-76934127D01*
X114590839Y-76902148D01*
X114837401Y-76737401D01*
X119694802Y-71880000D01*
X120650000Y-71880000D01*
X120940839Y-71822148D01*
X121187401Y-71657401D01*
X122234802Y-70610000D01*
X134692469Y-70610000D01*
X134704990Y-70640303D01*
X135097630Y-71033629D01*
X135305512Y-71119949D01*
X135099697Y-71204990D01*
X134706371Y-71597630D01*
X134493243Y-72110900D01*
X134492758Y-72666661D01*
X134704990Y-73180303D01*
X135097630Y-73573629D01*
X135305512Y-73659949D01*
X135099697Y-73744990D01*
X134706371Y-74137630D01*
X134493243Y-74650900D01*
X134492758Y-75206661D01*
X134506143Y-75239055D01*
X132812599Y-76932599D01*
X132647852Y-77179161D01*
X132590000Y-77470000D01*
X132590000Y-94935198D01*
X131542599Y-95982599D01*
X131377852Y-96229161D01*
X131320000Y-96520000D01*
X131320000Y-103380000D01*
X118607283Y-103380000D01*
X119148086Y-103156545D01*
X119664730Y-102640801D01*
X119944681Y-101966605D01*
X119945318Y-101236597D01*
X119666545Y-100561914D01*
X119401104Y-100296009D01*
X121455000Y-100296009D01*
X121455000Y-100363991D01*
X121587069Y-101027947D01*
X121963170Y-101590821D01*
X122526044Y-101966922D01*
X123190000Y-102098991D01*
X123853956Y-101966922D01*
X124416830Y-101590821D01*
X124792931Y-101027947D01*
X124925000Y-100363991D01*
X124925000Y-100296009D01*
X124792931Y-99632053D01*
X124416830Y-99069179D01*
X123853956Y-98693078D01*
X123190000Y-98561009D01*
X122526044Y-98693078D01*
X121963170Y-99069179D01*
X121587069Y-99632053D01*
X121455000Y-100296009D01*
X119401104Y-100296009D01*
X119150801Y-100045270D01*
X118476605Y-99765319D01*
X117746597Y-99764682D01*
X117071914Y-100043455D01*
X116555270Y-100559199D01*
X116275319Y-101233395D01*
X116274682Y-101963403D01*
X116390791Y-102244407D01*
X113985198Y-104650000D01*
X111054802Y-104650000D01*
X112297401Y-103407401D01*
X112462148Y-103160840D01*
X112477551Y-103083406D01*
X112690600Y-102995376D01*
X113153750Y-102533034D01*
X113404713Y-101928646D01*
X113405284Y-101274225D01*
X113155376Y-100669400D01*
X112816382Y-100329814D01*
X113153750Y-99993034D01*
X113404713Y-99388646D01*
X113405284Y-98734225D01*
X113333736Y-98561066D01*
X114614802Y-97280000D01*
X122875198Y-97280000D01*
X127732599Y-102137401D01*
X127792560Y-102177466D01*
X127792560Y-102700000D01*
X127836838Y-102935317D01*
X127975910Y-103151441D01*
X128188110Y-103296431D01*
X128440000Y-103347440D01*
X130640000Y-103347440D01*
X130875317Y-103303162D01*
X131091441Y-103164090D01*
X131236431Y-102951890D01*
X131287440Y-102700000D01*
X131287440Y-100500000D01*
X131243162Y-100264683D01*
X131104090Y-100048559D01*
X130891890Y-99903569D01*
X130640000Y-99852560D01*
X129030000Y-99852560D01*
X129030000Y-99060000D01*
X128972148Y-98769161D01*
X128807401Y-98522599D01*
X123950000Y-93665198D01*
X123950000Y-91917440D01*
X124290000Y-91917440D01*
X124525317Y-91873162D01*
X124741441Y-91734090D01*
X124886431Y-91521890D01*
X124937440Y-91270000D01*
X124937440Y-89070000D01*
X124893162Y-88834683D01*
X124754090Y-88618559D01*
X124541890Y-88473569D01*
X124290000Y-88422560D01*
X122517362Y-88422560D01*
X121410000Y-87315198D01*
X121410000Y-86360000D01*
X121352148Y-86069161D01*
X121352148Y-86069160D01*
X121187401Y-85822599D01*
X120740552Y-85375750D01*
X125865000Y-85375750D01*
X125865000Y-85716310D01*
X125961673Y-85949699D01*
X126140302Y-86128327D01*
X126373691Y-86225000D01*
X126714250Y-86225000D01*
X126873000Y-86066250D01*
X126873000Y-85217000D01*
X126023750Y-85217000D01*
X125865000Y-85375750D01*
X120740552Y-85375750D01*
X119944802Y-84580000D01*
X122627537Y-84580000D01*
X122659673Y-84612192D01*
X123003201Y-84754838D01*
X123375167Y-84755162D01*
X123718943Y-84613117D01*
X123868630Y-84463690D01*
X125865000Y-84463690D01*
X125865000Y-84804250D01*
X126023750Y-84963000D01*
X126873000Y-84963000D01*
X126873000Y-84113750D01*
X126714250Y-83955000D01*
X126373691Y-83955000D01*
X126140302Y-84051673D01*
X125961673Y-84230301D01*
X125865000Y-84463690D01*
X123868630Y-84463690D01*
X123982192Y-84350327D01*
X124124838Y-84006799D01*
X124125162Y-83634833D01*
X123983117Y-83291057D01*
X123720327Y-83027808D01*
X123376799Y-82885162D01*
X123004833Y-82884838D01*
X122661057Y-83026883D01*
X122627882Y-83060000D01*
X119942463Y-83060000D01*
X119910327Y-83027808D01*
X119566799Y-82885162D01*
X119194833Y-82884838D01*
X118870000Y-83019056D01*
X118870000Y-82951448D01*
X119148086Y-82836545D01*
X119664730Y-82320801D01*
X119944681Y-81646605D01*
X119944804Y-81504775D01*
X120784803Y-81504775D01*
X120957233Y-81922086D01*
X121276235Y-82241645D01*
X121693244Y-82414803D01*
X122144775Y-82415197D01*
X122555495Y-82245490D01*
X122963244Y-82414803D01*
X123414775Y-82415197D01*
X123624730Y-82328445D01*
X123833691Y-82415000D01*
X124174250Y-82415000D01*
X124333000Y-82256250D01*
X124333000Y-81407000D01*
X124587000Y-81407000D01*
X124587000Y-82256250D01*
X124745750Y-82415000D01*
X125086309Y-82415000D01*
X125319698Y-82318327D01*
X125498327Y-82139699D01*
X125595000Y-81906310D01*
X125595000Y-81565750D01*
X125436250Y-81407000D01*
X124587000Y-81407000D01*
X124333000Y-81407000D01*
X124324890Y-81407000D01*
X124325112Y-81153000D01*
X124333000Y-81153000D01*
X124333000Y-80303750D01*
X124587000Y-80303750D01*
X124587000Y-81153000D01*
X125436250Y-81153000D01*
X125595000Y-80994250D01*
X125595000Y-80653690D01*
X125498327Y-80420301D01*
X125319698Y-80241673D01*
X125086309Y-80145000D01*
X124745750Y-80145000D01*
X124587000Y-80303750D01*
X124333000Y-80303750D01*
X124174250Y-80145000D01*
X123950000Y-80145000D01*
X123950000Y-79103403D01*
X126434682Y-79103403D01*
X126713455Y-79778086D01*
X127229199Y-80294730D01*
X127510000Y-80411329D01*
X127510000Y-83955000D01*
X127285750Y-83955000D01*
X127127000Y-84113750D01*
X127127000Y-84963000D01*
X127135110Y-84963000D01*
X127134888Y-85217000D01*
X127127000Y-85217000D01*
X127127000Y-86066250D01*
X127285750Y-86225000D01*
X127626309Y-86225000D01*
X127835271Y-86138445D01*
X128043244Y-86224803D01*
X128494775Y-86225197D01*
X128780000Y-86107344D01*
X128780000Y-89867253D01*
X128313170Y-90179179D01*
X127937069Y-90742053D01*
X127805000Y-91406009D01*
X127805000Y-91473991D01*
X127937069Y-92137947D01*
X128313170Y-92700821D01*
X128876044Y-93076922D01*
X129540000Y-93208991D01*
X130203956Y-93076922D01*
X130766830Y-92700821D01*
X131142931Y-92137947D01*
X131275000Y-91473991D01*
X131275000Y-91406009D01*
X131142931Y-90742053D01*
X130766830Y-90179179D01*
X130300000Y-89867253D01*
X130300000Y-85935059D01*
X130501645Y-85733765D01*
X130674803Y-85316756D01*
X130675197Y-84865225D01*
X130502767Y-84447914D01*
X130183765Y-84128355D01*
X129766756Y-83955197D01*
X129315225Y-83954803D01*
X129030000Y-84072656D01*
X129030000Y-80411448D01*
X129308086Y-80296545D01*
X129824730Y-79780801D01*
X130104681Y-79106605D01*
X130105318Y-78376597D01*
X129826545Y-77701914D01*
X129310801Y-77185270D01*
X128636605Y-76905319D01*
X127906597Y-76904682D01*
X127231914Y-77183455D01*
X126715270Y-77699199D01*
X126435319Y-78373395D01*
X126434682Y-79103403D01*
X123950000Y-79103403D01*
X123950000Y-76601448D01*
X124228086Y-76486545D01*
X124744730Y-75970801D01*
X125024681Y-75296605D01*
X125025318Y-74566597D01*
X124746545Y-73891914D01*
X124230801Y-73375270D01*
X123556605Y-73095319D01*
X122826597Y-73094682D01*
X122151914Y-73373455D01*
X121635270Y-73889199D01*
X121355319Y-74563395D01*
X121354682Y-75293403D01*
X121633455Y-75968086D01*
X122149199Y-76484730D01*
X122430000Y-76601329D01*
X122430000Y-80262811D01*
X122146756Y-80145197D01*
X121695225Y-80144803D01*
X121277914Y-80317233D01*
X120958355Y-80636235D01*
X120785197Y-81053244D01*
X120784803Y-81504775D01*
X119944804Y-81504775D01*
X119945318Y-80916597D01*
X119666545Y-80241914D01*
X119150801Y-79725270D01*
X118476605Y-79445319D01*
X117746597Y-79444682D01*
X117071914Y-79723455D01*
X116555270Y-80239199D01*
X116330000Y-80781709D01*
X116330000Y-80572463D01*
X116362192Y-80540327D01*
X116504838Y-80196799D01*
X116505162Y-79824833D01*
X116363117Y-79481057D01*
X116100327Y-79217808D01*
X115756799Y-79075162D01*
X115384833Y-79074838D01*
X115041057Y-79216883D01*
X114777808Y-79479673D01*
X114635162Y-79823201D01*
X114634838Y-80195167D01*
X114776883Y-80538943D01*
X114810000Y-80572118D01*
X114810000Y-81987537D01*
X114777808Y-82019673D01*
X114635162Y-82363201D01*
X114634838Y-82735167D01*
X114769056Y-83060000D01*
X114439151Y-83060000D01*
X114540248Y-82781970D01*
X114514058Y-82186365D01*
X114336516Y-81757741D01*
X114083805Y-81675800D01*
X113209605Y-82550000D01*
X113223748Y-82564143D01*
X113044143Y-82743748D01*
X113030000Y-82729605D01*
X113015858Y-82743748D01*
X112836253Y-82564143D01*
X112850395Y-82550000D01*
X111976195Y-81675800D01*
X111723484Y-81757741D01*
X111519752Y-82318030D01*
X111545942Y-82913635D01*
X111606568Y-83060000D01*
X108264802Y-83060000D01*
X104900000Y-79695198D01*
X104900000Y-73660000D01*
X104842148Y-73369161D01*
X104842148Y-73369160D01*
X104677401Y-73122599D01*
X103407401Y-71852599D01*
X103160839Y-71687852D01*
X102870000Y-71630000D01*
X99097462Y-71630000D01*
X99061192Y-71542220D01*
X98639997Y-71120290D01*
X98639069Y-71119905D01*
X99059710Y-70699997D01*
X99288339Y-70149398D01*
X99288859Y-69553218D01*
X99061192Y-69002220D01*
X98639997Y-68580290D01*
X98639069Y-68579905D01*
X99059710Y-68159997D01*
X99288339Y-67609398D01*
X99288859Y-67013218D01*
X99061192Y-66462220D01*
X98639997Y-66040290D01*
X98639069Y-66039905D01*
X99059710Y-65619997D01*
X99288339Y-65069398D01*
X99288859Y-64473218D01*
X99061192Y-63922220D01*
X98639997Y-63500290D01*
X98639069Y-63499905D01*
X99059710Y-63079997D01*
X99288339Y-62529398D01*
X99288859Y-61933218D01*
X99061192Y-61382220D01*
X98639997Y-60960290D01*
X98639069Y-60959905D01*
X99059710Y-60539997D01*
X99288339Y-59989398D01*
X99288859Y-59393218D01*
X99061192Y-58842220D01*
X98639997Y-58420290D01*
X98639069Y-58419905D01*
X99059710Y-57999997D01*
X99288339Y-57449398D01*
X99288859Y-56853218D01*
X99061192Y-56302220D01*
X98639997Y-55880290D01*
X98639069Y-55879905D01*
X99059710Y-55459997D01*
X99288339Y-54909398D01*
X99288859Y-54313218D01*
X99061192Y-53762220D01*
X98682720Y-53383087D01*
X99111732Y-52954823D01*
X99349728Y-52381664D01*
X99350270Y-51761058D01*
X99113275Y-51187486D01*
X98674823Y-50748268D01*
X98101664Y-50510272D01*
X97481058Y-50509730D01*
X96907486Y-50746725D01*
X96468268Y-51185177D01*
X96230272Y-51758336D01*
X96229730Y-52378942D01*
X96466725Y-52952514D01*
X96897204Y-53383745D01*
X96520290Y-53760003D01*
X96482920Y-53850000D01*
X94390735Y-53850000D01*
X94007541Y-53276509D01*
X93412224Y-52878731D01*
X92710000Y-52739050D01*
X92007776Y-52878731D01*
X91412459Y-53276509D01*
X91014681Y-53871826D01*
X90875000Y-54574050D01*
X90875000Y-54645950D01*
X91014681Y-55348174D01*
X91412459Y-55943491D01*
X92007776Y-56341269D01*
X92252763Y-56390000D01*
X90484802Y-56390000D01*
X87801210Y-53706408D01*
X87874093Y-53340000D01*
X87761054Y-52771715D01*
X87439147Y-52289946D01*
X87098447Y-52062298D01*
X87241358Y-51995183D01*
X87631645Y-51566924D01*
X87801476Y-51156890D01*
X87763933Y-51085750D01*
X89905000Y-51085750D01*
X89905000Y-51826309D01*
X90001673Y-52059698D01*
X90180301Y-52238327D01*
X90413690Y-52335000D01*
X91154250Y-52335000D01*
X91313000Y-52176250D01*
X91313000Y-50927000D01*
X91567000Y-50927000D01*
X91567000Y-52176250D01*
X91725750Y-52335000D01*
X92466310Y-52335000D01*
X92699699Y-52238327D01*
X92878327Y-52059698D01*
X92975000Y-51826309D01*
X92975000Y-51085750D01*
X92816250Y-50927000D01*
X91567000Y-50927000D01*
X91313000Y-50927000D01*
X90063750Y-50927000D01*
X89905000Y-51085750D01*
X87763933Y-51085750D01*
X87680155Y-50927000D01*
X86487000Y-50927000D01*
X86487000Y-50947000D01*
X86233000Y-50947000D01*
X86233000Y-50927000D01*
X85039845Y-50927000D01*
X84918524Y-51156890D01*
X85088355Y-51566924D01*
X85478642Y-51995183D01*
X85621553Y-52062298D01*
X85280853Y-52289946D01*
X84958946Y-52771715D01*
X84845907Y-53340000D01*
X84958946Y-53908285D01*
X85280853Y-54390054D01*
X85610026Y-54610000D01*
X85280853Y-54829946D01*
X84958946Y-55311715D01*
X84845907Y-55880000D01*
X84958946Y-56448285D01*
X85280853Y-56930054D01*
X85610026Y-57150000D01*
X85280853Y-57369946D01*
X84958946Y-57851715D01*
X84845907Y-58420000D01*
X84958946Y-58988285D01*
X85280853Y-59470054D01*
X85610026Y-59690000D01*
X85280853Y-59909946D01*
X84958946Y-60391715D01*
X84845907Y-60960000D01*
X84958946Y-61528285D01*
X85280853Y-62010054D01*
X85610026Y-62230000D01*
X85280853Y-62449946D01*
X84958946Y-62931715D01*
X84845907Y-63500000D01*
X84958946Y-64068285D01*
X85280853Y-64550054D01*
X85610026Y-64770000D01*
X85280853Y-64989946D01*
X84958946Y-65471715D01*
X84845907Y-66040000D01*
X84958946Y-66608285D01*
X85280853Y-67090054D01*
X85610026Y-67310000D01*
X85280853Y-67529946D01*
X84958946Y-68011715D01*
X84845907Y-68580000D01*
X84958946Y-69148285D01*
X85280853Y-69630054D01*
X85610026Y-69850000D01*
X85280853Y-70069946D01*
X84958946Y-70551715D01*
X84845907Y-71120000D01*
X84958946Y-71688285D01*
X85280853Y-72170054D01*
X85610026Y-72390000D01*
X85280853Y-72609946D01*
X84958946Y-73091715D01*
X84845907Y-73660000D01*
X84958946Y-74228285D01*
X85280853Y-74710054D01*
X85610026Y-74930000D01*
X85280853Y-75149946D01*
X84958946Y-75631715D01*
X84845907Y-76200000D01*
X84958946Y-76768285D01*
X85280853Y-77250054D01*
X85610026Y-77470000D01*
X85280853Y-77689946D01*
X84958946Y-78171715D01*
X84845907Y-78740000D01*
X84958946Y-79308285D01*
X85280853Y-79790054D01*
X85322452Y-79817850D01*
X85274683Y-79826838D01*
X85058559Y-79965910D01*
X84913569Y-80178110D01*
X84862560Y-80430000D01*
X84862560Y-82130000D01*
X84906838Y-82365317D01*
X85045910Y-82581441D01*
X85258110Y-82726431D01*
X85510000Y-82777440D01*
X85600000Y-82777440D01*
X85600000Y-89692560D01*
X85260000Y-89692560D01*
X85024683Y-89736838D01*
X84808559Y-89875910D01*
X84663569Y-90088110D01*
X84612560Y-90340000D01*
X83947000Y-90340000D01*
X83947000Y-50443110D01*
X84918524Y-50443110D01*
X85039845Y-50673000D01*
X86233000Y-50673000D01*
X86233000Y-49479181D01*
X86487000Y-49479181D01*
X86487000Y-50673000D01*
X87680155Y-50673000D01*
X87801476Y-50443110D01*
X87631645Y-50033076D01*
X87241358Y-49604817D01*
X86716892Y-49358514D01*
X86487000Y-49479181D01*
X86233000Y-49479181D01*
X86003108Y-49358514D01*
X85478642Y-49604817D01*
X85088355Y-50033076D01*
X84918524Y-50443110D01*
X83947000Y-50443110D01*
X83947000Y-46023991D01*
X89904735Y-46023991D01*
X90137932Y-46588371D01*
X90539182Y-46990323D01*
X90139449Y-47389357D01*
X89905267Y-47953330D01*
X89904735Y-48563991D01*
X90137932Y-49128371D01*
X90315092Y-49305841D01*
X90180301Y-49361673D01*
X90001673Y-49540302D01*
X89905000Y-49773691D01*
X89905000Y-50514250D01*
X90063750Y-50673000D01*
X91313000Y-50673000D01*
X91313000Y-50653000D01*
X91567000Y-50653000D01*
X91567000Y-50673000D01*
X92816250Y-50673000D01*
X92975000Y-50514250D01*
X92975000Y-49773691D01*
X92878327Y-49540302D01*
X92699699Y-49361673D01*
X92565006Y-49305881D01*
X92740551Y-49130643D01*
X92786494Y-49020000D01*
X94935198Y-49020000D01*
X95982599Y-50067401D01*
X96229160Y-50232148D01*
X96520000Y-50290000D01*
X101285198Y-50290000D01*
X102110000Y-51114802D01*
X102110000Y-52777537D01*
X102077808Y-52809673D01*
X101935162Y-53153201D01*
X101934838Y-53525167D01*
X102076883Y-53868943D01*
X102339673Y-54132192D01*
X102683201Y-54274838D01*
X103055167Y-54275162D01*
X103398943Y-54133117D01*
X103662192Y-53870327D01*
X103804838Y-53526799D01*
X103805162Y-53154833D01*
X103663117Y-52811057D01*
X103630000Y-52777882D01*
X103630000Y-50800000D01*
X103572148Y-50509161D01*
X103572148Y-50509160D01*
X103407401Y-50262599D01*
X102137401Y-48992599D01*
X101890839Y-48827852D01*
X101600000Y-48770000D01*
X96834802Y-48770000D01*
X95787401Y-47722599D01*
X95540839Y-47557852D01*
X95250000Y-47500000D01*
X92786846Y-47500000D01*
X92742068Y-47391629D01*
X92340818Y-46989677D01*
X92740551Y-46590643D01*
X92974733Y-46026670D01*
X92974751Y-46005750D01*
X96255000Y-46005750D01*
X96255000Y-46746310D01*
X96351673Y-46979699D01*
X96530302Y-47158327D01*
X96763691Y-47255000D01*
X97504250Y-47255000D01*
X97663000Y-47096250D01*
X97663000Y-45847000D01*
X96413750Y-45847000D01*
X96255000Y-46005750D01*
X92974751Y-46005750D01*
X92975265Y-45416009D01*
X92742068Y-44851629D01*
X92584405Y-44693690D01*
X96255000Y-44693690D01*
X96255000Y-45434250D01*
X96413750Y-45593000D01*
X97663000Y-45593000D01*
X97663000Y-44343750D01*
X97917000Y-44343750D01*
X97917000Y-45593000D01*
X97937000Y-45593000D01*
X97937000Y-45847000D01*
X97917000Y-45847000D01*
X97917000Y-47096250D01*
X98075750Y-47255000D01*
X98816309Y-47255000D01*
X99049698Y-47158327D01*
X99228327Y-46979699D01*
X99284119Y-46845006D01*
X99459357Y-47020551D01*
X100023330Y-47254733D01*
X100633991Y-47255265D01*
X101198371Y-47022068D01*
X101600323Y-46620818D01*
X101999357Y-47020551D01*
X102563330Y-47254733D01*
X103173991Y-47255265D01*
X103738371Y-47022068D01*
X104170551Y-46590643D01*
X104404733Y-46026670D01*
X104405046Y-45667175D01*
X124612430Y-45667175D01*
X124735565Y-45954788D01*
X125417734Y-46214707D01*
X126147443Y-46193786D01*
X126724435Y-45954788D01*
X126847570Y-45667175D01*
X125730000Y-44549605D01*
X124612430Y-45667175D01*
X104405046Y-45667175D01*
X104405265Y-45416009D01*
X104172068Y-44851629D01*
X103740643Y-44419449D01*
X103176670Y-44185267D01*
X102566009Y-44184735D01*
X102001629Y-44417932D01*
X101599677Y-44819182D01*
X101200643Y-44419449D01*
X100636670Y-44185267D01*
X100026009Y-44184735D01*
X99461629Y-44417932D01*
X99284159Y-44595092D01*
X99228327Y-44460301D01*
X99049698Y-44281673D01*
X98816309Y-44185000D01*
X98075750Y-44185000D01*
X97917000Y-44343750D01*
X97663000Y-44343750D01*
X97504250Y-44185000D01*
X96763691Y-44185000D01*
X96530302Y-44281673D01*
X96351673Y-44460301D01*
X96255000Y-44693690D01*
X92584405Y-44693690D01*
X92310643Y-44419449D01*
X91746670Y-44185267D01*
X91136009Y-44184735D01*
X90571629Y-44417932D01*
X90139449Y-44849357D01*
X89905267Y-45413330D01*
X89904735Y-46023991D01*
X83947000Y-46023991D01*
X83947000Y-44057734D01*
X123885293Y-44057734D01*
X123906214Y-44787443D01*
X124145212Y-45364435D01*
X124432825Y-45487570D01*
X125550395Y-44370000D01*
X125909605Y-44370000D01*
X127027175Y-45487570D01*
X127314788Y-45364435D01*
X127574707Y-44682266D01*
X127553786Y-43952557D01*
X127314788Y-43375565D01*
X127027175Y-43252430D01*
X125909605Y-44370000D01*
X125550395Y-44370000D01*
X124432825Y-43252430D01*
X124145212Y-43375565D01*
X123885293Y-44057734D01*
X83947000Y-44057734D01*
X83947000Y-43072825D01*
X124612430Y-43072825D01*
X125730000Y-44190395D01*
X126847570Y-43072825D01*
X126724435Y-42785212D01*
X126042266Y-42525293D01*
X125312557Y-42546214D01*
X124735565Y-42785212D01*
X124612430Y-43072825D01*
X83947000Y-43072825D01*
X83947000Y-41937175D01*
X106912430Y-41937175D01*
X107035565Y-42224788D01*
X107717734Y-42484707D01*
X108447443Y-42463786D01*
X109024435Y-42224788D01*
X109147570Y-41937175D01*
X108030000Y-40819605D01*
X106912430Y-41937175D01*
X83947000Y-41937175D01*
X83947000Y-39655750D01*
X87365000Y-39655750D01*
X87365000Y-40396310D01*
X87461673Y-40629699D01*
X87640302Y-40808327D01*
X87873691Y-40905000D01*
X88614250Y-40905000D01*
X88773000Y-40746250D01*
X88773000Y-39497000D01*
X87523750Y-39497000D01*
X87365000Y-39655750D01*
X83947000Y-39655750D01*
X83947000Y-38343690D01*
X87365000Y-38343690D01*
X87365000Y-39084250D01*
X87523750Y-39243000D01*
X88773000Y-39243000D01*
X88773000Y-37993750D01*
X89027000Y-37993750D01*
X89027000Y-39243000D01*
X89047000Y-39243000D01*
X89047000Y-39497000D01*
X89027000Y-39497000D01*
X89027000Y-40746250D01*
X89185750Y-40905000D01*
X89926309Y-40905000D01*
X90159698Y-40808327D01*
X90338327Y-40629699D01*
X90391878Y-40500417D01*
X90822509Y-40788155D01*
X91409928Y-40905000D01*
X91470072Y-40905000D01*
X92057491Y-40788155D01*
X92555481Y-40455409D01*
X92710000Y-40224155D01*
X92864519Y-40455409D01*
X93362509Y-40788155D01*
X93949928Y-40905000D01*
X94010072Y-40905000D01*
X94597491Y-40788155D01*
X95095481Y-40455409D01*
X95428227Y-39957419D01*
X95545072Y-39370000D01*
X95428227Y-38782581D01*
X95386983Y-38720854D01*
X97194457Y-38720854D01*
X97670727Y-39873515D01*
X98551847Y-40756174D01*
X99703674Y-41234454D01*
X100950854Y-41235543D01*
X102103515Y-40759273D01*
X102535807Y-40327734D01*
X106185293Y-40327734D01*
X106206214Y-41057443D01*
X106445212Y-41634435D01*
X106732825Y-41757570D01*
X107850395Y-40640000D01*
X108209605Y-40640000D01*
X109327175Y-41757570D01*
X109614788Y-41634435D01*
X109874707Y-40952266D01*
X109853786Y-40222557D01*
X109614788Y-39645565D01*
X109327175Y-39522430D01*
X108209605Y-40640000D01*
X107850395Y-40640000D01*
X106732825Y-39522430D01*
X106445212Y-39645565D01*
X106185293Y-40327734D01*
X102535807Y-40327734D01*
X102986174Y-39878153D01*
X103208461Y-39342825D01*
X106912430Y-39342825D01*
X108030000Y-40460395D01*
X109050395Y-39440000D01*
X111182560Y-39440000D01*
X111182560Y-41840000D01*
X111226838Y-42075317D01*
X111365910Y-42291441D01*
X111578110Y-42436431D01*
X111830000Y-42487440D01*
X114230000Y-42487440D01*
X114465317Y-42443162D01*
X114681441Y-42304090D01*
X114826431Y-42091890D01*
X114877440Y-41840000D01*
X114877440Y-39440000D01*
X114833162Y-39204683D01*
X114694090Y-38988559D01*
X114481890Y-38843569D01*
X114230000Y-38792560D01*
X111830000Y-38792560D01*
X111594683Y-38836838D01*
X111378559Y-38975910D01*
X111233569Y-39188110D01*
X111182560Y-39440000D01*
X109050395Y-39440000D01*
X109147570Y-39342825D01*
X109024435Y-39055212D01*
X108342266Y-38795293D01*
X107612557Y-38816214D01*
X107035565Y-39055212D01*
X106912430Y-39342825D01*
X103208461Y-39342825D01*
X103464454Y-38726326D01*
X103465543Y-37479146D01*
X102989273Y-36326485D01*
X102108153Y-35443826D01*
X100956326Y-34965546D01*
X99709146Y-34964457D01*
X98556485Y-35440727D01*
X97673826Y-36321847D01*
X97195546Y-37473674D01*
X97194457Y-38720854D01*
X95386983Y-38720854D01*
X95095481Y-38284591D01*
X94597491Y-37951845D01*
X94010072Y-37835000D01*
X93949928Y-37835000D01*
X93362509Y-37951845D01*
X92864519Y-38284591D01*
X92710000Y-38515845D01*
X92555481Y-38284591D01*
X92057491Y-37951845D01*
X91470072Y-37835000D01*
X91409928Y-37835000D01*
X90822509Y-37951845D01*
X90391878Y-38239583D01*
X90338327Y-38110301D01*
X90159698Y-37931673D01*
X89926309Y-37835000D01*
X89185750Y-37835000D01*
X89027000Y-37993750D01*
X88773000Y-37993750D01*
X88614250Y-37835000D01*
X87873691Y-37835000D01*
X87640302Y-37931673D01*
X87461673Y-38110301D01*
X87365000Y-38343690D01*
X83947000Y-38343690D01*
X83947000Y-33147000D01*
X180213000Y-33147000D01*
X180213000Y-129413000D01*
X180213000Y-129413000D01*
G37*
X180213000Y-129413000D02*
X83947000Y-129413000D01*
X83947000Y-126350854D01*
X84494457Y-126350854D01*
X84970727Y-127503515D01*
X85851847Y-128386174D01*
X87003674Y-128864454D01*
X88250854Y-128865543D01*
X89403515Y-128389273D01*
X90286174Y-127508153D01*
X90764454Y-126356326D01*
X90765543Y-125109146D01*
X90289273Y-123956485D01*
X89408153Y-123073826D01*
X88256326Y-122595546D01*
X87009146Y-122594457D01*
X85856485Y-123070727D01*
X84973826Y-123951847D01*
X84495546Y-125103674D01*
X84494457Y-126350854D01*
X83947000Y-126350854D01*
X83947000Y-101566009D01*
X84625000Y-101566009D01*
X84625000Y-101633991D01*
X84757069Y-102297947D01*
X85133170Y-102860821D01*
X85696044Y-103236922D01*
X86360000Y-103368991D01*
X87023956Y-103236922D01*
X87586830Y-102860821D01*
X87962931Y-102297947D01*
X88095000Y-101633991D01*
X88095000Y-101566009D01*
X87962931Y-100902053D01*
X87586830Y-100339179D01*
X87023956Y-99963078D01*
X86360000Y-99831009D01*
X85696044Y-99963078D01*
X85133170Y-100339179D01*
X84757069Y-100902053D01*
X84625000Y-101566009D01*
X83947000Y-101566009D01*
X83947000Y-97527745D01*
X91881861Y-97527745D01*
X91955995Y-97773864D01*
X92493223Y-97966965D01*
X93063454Y-97939778D01*
X93464005Y-97773864D01*
X93538139Y-97527745D01*
X92710000Y-96699605D01*
X91881861Y-97527745D01*
X83947000Y-97527745D01*
X83947000Y-96303223D01*
X91263035Y-96303223D01*
X91290222Y-96873454D01*
X91456136Y-97274005D01*
X91702255Y-97348139D01*
X92530395Y-96520000D01*
X92889605Y-96520000D01*
X93717745Y-97348139D01*
X93963864Y-97274005D01*
X94156965Y-96736777D01*
X94129778Y-96166546D01*
X93963864Y-95765995D01*
X93717745Y-95691861D01*
X92889605Y-96520000D01*
X92530395Y-96520000D01*
X91702255Y-95691861D01*
X91456136Y-95765995D01*
X91263035Y-96303223D01*
X83947000Y-96303223D01*
X83947000Y-95512255D01*
X91881861Y-95512255D01*
X92710000Y-96340395D01*
X93538139Y-95512255D01*
X93464005Y-95266136D01*
X92926777Y-95073035D01*
X92356546Y-95100222D01*
X91955995Y-95266136D01*
X91881861Y-95512255D01*
X83947000Y-95512255D01*
X83947000Y-90340000D01*
X84612560Y-90340000D01*
X84612560Y-92540000D01*
X84656838Y-92775317D01*
X84795910Y-92991441D01*
X85008110Y-93136431D01*
X85260000Y-93187440D01*
X87460000Y-93187440D01*
X87695317Y-93143162D01*
X87888360Y-93018942D01*
X96229730Y-93018942D01*
X96466725Y-93592514D01*
X96905177Y-94031732D01*
X97478336Y-94269728D01*
X98098942Y-94270270D01*
X98672514Y-94033275D01*
X99111732Y-93594823D01*
X99349728Y-93021664D01*
X99350270Y-92401058D01*
X99113275Y-91827486D01*
X98682796Y-91396255D01*
X99059710Y-91019997D01*
X99288339Y-90469398D01*
X99288859Y-89873218D01*
X99061192Y-89322220D01*
X98639997Y-88900290D01*
X98599463Y-88883459D01*
X98664200Y-88683805D01*
X97790000Y-87809605D01*
X96915800Y-88683805D01*
X96980399Y-88883033D01*
X96942220Y-88898808D01*
X96520290Y-89320003D01*
X96291661Y-89870602D01*
X96291141Y-90466782D01*
X96518808Y-91017780D01*
X96897280Y-91396913D01*
X96468268Y-91825177D01*
X96230272Y-92398336D01*
X96229730Y-93018942D01*
X87888360Y-93018942D01*
X87911441Y-93004090D01*
X88056431Y-92791890D01*
X88107440Y-92540000D01*
X88107440Y-90340000D01*
X88063162Y-90104683D01*
X87924090Y-89888559D01*
X87711890Y-89743569D01*
X87460000Y-89692560D01*
X87120000Y-89692560D01*
X87120000Y-82777440D01*
X87210000Y-82777440D01*
X87445317Y-82733162D01*
X87661441Y-82594090D01*
X87806431Y-82381890D01*
X87857440Y-82130000D01*
X87857440Y-82040000D01*
X96205198Y-82040000D01*
X96328084Y-82162886D01*
X96291661Y-82250602D01*
X96291141Y-82846782D01*
X96328354Y-82936844D01*
X92172599Y-87092599D01*
X92007852Y-87339161D01*
X91950000Y-87630000D01*
X91950000Y-90281354D01*
X91898200Y-90302757D01*
X91494176Y-90706077D01*
X91275250Y-91233309D01*
X91274752Y-91804187D01*
X91492757Y-92331800D01*
X91896077Y-92735824D01*
X92423309Y-92954750D01*
X92994187Y-92955248D01*
X93521800Y-92737243D01*
X93925824Y-92333923D01*
X94144750Y-91806691D01*
X94145248Y-91235813D01*
X93927243Y-90708200D01*
X93523923Y-90304176D01*
X93470000Y-90281785D01*
X93470000Y-87944802D01*
X94016772Y-87398030D01*
X96279752Y-87398030D01*
X96305942Y-87993635D01*
X96483484Y-88422259D01*
X96736195Y-88504200D01*
X97610395Y-87630000D01*
X97969605Y-87630000D01*
X98843805Y-88504200D01*
X99096516Y-88422259D01*
X99300248Y-87861970D01*
X99274058Y-87266365D01*
X99096516Y-86837741D01*
X98843805Y-86755800D01*
X97969605Y-87630000D01*
X97610395Y-87630000D01*
X96736195Y-86755800D01*
X96483484Y-86837741D01*
X96279752Y-87398030D01*
X94016772Y-87398030D01*
X96291371Y-85123431D01*
X96291141Y-85386782D01*
X96518808Y-85937780D01*
X96940003Y-86359710D01*
X96980537Y-86376541D01*
X96915800Y-86576195D01*
X97790000Y-87450395D01*
X98664200Y-86576195D01*
X98599601Y-86376967D01*
X98637780Y-86361192D01*
X99059710Y-85939997D01*
X99288339Y-85389398D01*
X99288859Y-84793218D01*
X99061192Y-84242220D01*
X98639997Y-83820290D01*
X98639069Y-83819905D01*
X99059710Y-83399997D01*
X99288339Y-82849398D01*
X99288859Y-82253218D01*
X99061192Y-81702220D01*
X98639997Y-81280290D01*
X98639069Y-81279905D01*
X99059710Y-80859997D01*
X99288339Y-80309398D01*
X99288859Y-79713218D01*
X99061192Y-79162220D01*
X98639997Y-78740290D01*
X98639069Y-78739905D01*
X99059710Y-78319997D01*
X99288339Y-77769398D01*
X99288859Y-77173218D01*
X99061192Y-76622220D01*
X98639997Y-76200290D01*
X98639069Y-76199905D01*
X99059710Y-75779997D01*
X99097080Y-75690000D01*
X99570000Y-75690000D01*
X99570000Y-93665198D01*
X94712599Y-98522599D01*
X94547852Y-98769161D01*
X94490000Y-99060000D01*
X94490000Y-104140000D01*
X94547852Y-104430839D01*
X94712599Y-104677401D01*
X97252599Y-107217401D01*
X97499160Y-107382148D01*
X97547414Y-107391746D01*
X97790000Y-107440000D01*
X115570000Y-107440000D01*
X115860839Y-107382148D01*
X116107401Y-107217401D01*
X118424802Y-104900000D01*
X132080000Y-104900000D01*
X132370839Y-104842148D01*
X132617401Y-104677401D01*
X132782148Y-104430839D01*
X132840000Y-104140000D01*
X132840000Y-96834802D01*
X133887401Y-95787401D01*
X134052148Y-95540840D01*
X134110000Y-95250000D01*
X134110000Y-89962302D01*
X138290856Y-89962302D01*
X138318638Y-90517368D01*
X138477603Y-90901143D01*
X138719787Y-90970608D01*
X139520395Y-90170000D01*
X139879605Y-90170000D01*
X140680213Y-90970608D01*
X140922397Y-90901143D01*
X141109144Y-90377698D01*
X141088353Y-89962302D01*
X161150856Y-89962302D01*
X161178638Y-90517368D01*
X161337603Y-90901143D01*
X161579787Y-90970608D01*
X162380395Y-90170000D01*
X162739605Y-90170000D01*
X163540213Y-90970608D01*
X163782397Y-90901143D01*
X163969144Y-90377698D01*
X163941362Y-89822632D01*
X163782397Y-89438857D01*
X163540213Y-89369392D01*
X162739605Y-90170000D01*
X162380395Y-90170000D01*
X161579787Y-89369392D01*
X161337603Y-89438857D01*
X161150856Y-89962302D01*
X141088353Y-89962302D01*
X141081362Y-89822632D01*
X140922397Y-89438857D01*
X140680213Y-89369392D01*
X139879605Y-90170000D01*
X139520395Y-90170000D01*
X138719787Y-89369392D01*
X138477603Y-89438857D01*
X138290856Y-89962302D01*
X134110000Y-89962302D01*
X134110000Y-87906661D01*
X138302758Y-87906661D01*
X138514990Y-88420303D01*
X138907630Y-88813629D01*
X139099727Y-88893395D01*
X138968857Y-88947603D01*
X138899392Y-89189787D01*
X139700000Y-89990395D01*
X140500608Y-89189787D01*
X140431143Y-88947603D01*
X140290682Y-88897491D01*
X140490303Y-88815010D01*
X140883629Y-88422370D01*
X141096757Y-87909100D01*
X141096759Y-87906661D01*
X161162758Y-87906661D01*
X161374990Y-88420303D01*
X161767630Y-88813629D01*
X161959727Y-88893395D01*
X161828857Y-88947603D01*
X161759392Y-89189787D01*
X162560000Y-89990395D01*
X163360608Y-89189787D01*
X163291143Y-88947603D01*
X163150682Y-88897491D01*
X163350303Y-88815010D01*
X163743629Y-88422370D01*
X163956757Y-87909100D01*
X163957242Y-87353339D01*
X163745010Y-86839697D01*
X163352370Y-86446371D01*
X162839100Y-86233243D01*
X162283339Y-86232758D01*
X161769697Y-86444990D01*
X161376371Y-86837630D01*
X161163243Y-87350900D01*
X161162758Y-87906661D01*
X141096759Y-87906661D01*
X141097242Y-87353339D01*
X140885010Y-86839697D01*
X140492370Y-86446371D01*
X139979100Y-86233243D01*
X139423339Y-86232758D01*
X138909697Y-86444990D01*
X138516371Y-86837630D01*
X138303243Y-87350900D01*
X138302758Y-87906661D01*
X134110000Y-87906661D01*
X134110000Y-77784802D01*
X134493059Y-77401743D01*
X134492758Y-77746661D01*
X134704990Y-78260303D01*
X135097630Y-78653629D01*
X135610900Y-78866757D01*
X136166661Y-78867242D01*
X136680303Y-78655010D01*
X137073629Y-78262370D01*
X137286757Y-77749100D01*
X137287242Y-77193339D01*
X137075010Y-76679697D01*
X136682370Y-76286371D01*
X136474488Y-76200051D01*
X136680303Y-76115010D01*
X137073629Y-75722370D01*
X137286757Y-75209100D01*
X137287242Y-74653339D01*
X137075010Y-74139697D01*
X136682370Y-73746371D01*
X136474488Y-73660051D01*
X136680303Y-73575010D01*
X137073629Y-73182370D01*
X137286757Y-72669100D01*
X137287242Y-72113339D01*
X137075010Y-71599697D01*
X136682370Y-71206371D01*
X136474488Y-71120051D01*
X136680303Y-71035010D01*
X137073629Y-70642370D01*
X137286757Y-70129100D01*
X137287242Y-69573339D01*
X137075010Y-69059697D01*
X136682370Y-68666371D01*
X136474488Y-68580051D01*
X136680303Y-68495010D01*
X137073629Y-68102370D01*
X137286757Y-67589100D01*
X137287242Y-67033339D01*
X137190829Y-66800000D01*
X146019121Y-66800000D01*
X145923243Y-67030900D01*
X145922758Y-67586661D01*
X145936143Y-67619055D01*
X145512599Y-68042599D01*
X145347852Y-68289161D01*
X145290000Y-68580000D01*
X145290000Y-71120000D01*
X145347852Y-71410839D01*
X145512599Y-71657401D01*
X145759161Y-71822148D01*
X146021477Y-71874326D01*
X145923243Y-72110900D01*
X145922758Y-72666661D01*
X146134990Y-73180303D01*
X146527630Y-73573629D01*
X146735512Y-73659949D01*
X146529697Y-73744990D01*
X146136371Y-74137630D01*
X145923243Y-74650900D01*
X145922758Y-75206661D01*
X146134990Y-75720303D01*
X146527630Y-76113629D01*
X146735512Y-76199949D01*
X146529697Y-76284990D01*
X146136371Y-76677630D01*
X145923243Y-77190900D01*
X145922758Y-77746661D01*
X146134990Y-78260303D01*
X146527630Y-78653629D01*
X147040900Y-78866757D01*
X147596661Y-78867242D01*
X148110303Y-78655010D01*
X148503629Y-78262370D01*
X148716757Y-77749100D01*
X148717103Y-77352532D01*
X152697073Y-77352532D01*
X152795736Y-77619387D01*
X153405461Y-77845908D01*
X154055460Y-77821856D01*
X154544264Y-77619387D01*
X154642927Y-77352532D01*
X153670000Y-76379605D01*
X152697073Y-77352532D01*
X148717103Y-77352532D01*
X148717242Y-77193339D01*
X148505010Y-76679697D01*
X148112370Y-76286371D01*
X147904488Y-76200051D01*
X148110303Y-76115010D01*
X148290165Y-75935461D01*
X152024092Y-75935461D01*
X152048144Y-76585460D01*
X152250613Y-77074264D01*
X152517468Y-77172927D01*
X153490395Y-76200000D01*
X153849605Y-76200000D01*
X154822532Y-77172927D01*
X155089387Y-77074264D01*
X155315908Y-76464539D01*
X155291856Y-75814540D01*
X155089387Y-75325736D01*
X154822532Y-75227073D01*
X153849605Y-76200000D01*
X153490395Y-76200000D01*
X152517468Y-75227073D01*
X152250613Y-75325736D01*
X152024092Y-75935461D01*
X148290165Y-75935461D01*
X148503629Y-75722370D01*
X148716757Y-75209100D01*
X148717242Y-74653339D01*
X148505010Y-74139697D01*
X148112370Y-73746371D01*
X147904488Y-73660051D01*
X148110303Y-73575010D01*
X148503629Y-73182370D01*
X148716757Y-72669100D01*
X148717242Y-72113339D01*
X148620829Y-71880000D01*
X152214953Y-71880000D01*
X152283106Y-72044943D01*
X152627759Y-72390199D01*
X152284722Y-72732637D01*
X152035284Y-73333352D01*
X152034716Y-73983795D01*
X152283106Y-74584943D01*
X152709978Y-75012562D01*
X152697073Y-75047468D01*
X153670000Y-76020395D01*
X154476208Y-75214187D01*
X161124752Y-75214187D01*
X161342757Y-75741800D01*
X161746077Y-76145824D01*
X162273309Y-76364750D01*
X162844187Y-76365248D01*
X163371800Y-76147243D01*
X163775824Y-75743923D01*
X163994750Y-75216691D01*
X163995248Y-74645813D01*
X163777243Y-74118200D01*
X163373923Y-73714176D01*
X162846691Y-73495250D01*
X162275813Y-73494752D01*
X161748200Y-73712757D01*
X161344176Y-74116077D01*
X161125250Y-74643309D01*
X161124752Y-75214187D01*
X154476208Y-75214187D01*
X154642927Y-75047468D01*
X154629836Y-75012062D01*
X155055278Y-74587363D01*
X155304716Y-73986648D01*
X155305284Y-73336205D01*
X155056894Y-72735057D01*
X154712241Y-72389801D01*
X155055278Y-72047363D01*
X155124773Y-71880000D01*
X169624290Y-71880000D01*
X169477852Y-72099161D01*
X169420000Y-72390000D01*
X169420000Y-79697546D01*
X169335319Y-79271826D01*
X168937541Y-78676509D01*
X168342224Y-78278731D01*
X167640000Y-78139050D01*
X166937776Y-78278731D01*
X166342459Y-78676509D01*
X165944681Y-79271826D01*
X165805000Y-79974050D01*
X165805000Y-80045950D01*
X165944681Y-80748174D01*
X166342459Y-81343491D01*
X166937776Y-81741269D01*
X167640000Y-81880950D01*
X168342224Y-81741269D01*
X168937541Y-81343491D01*
X169335319Y-80748174D01*
X169420000Y-80322454D01*
X169420000Y-82235198D01*
X167102599Y-84552599D01*
X166937852Y-84799161D01*
X166880000Y-85090000D01*
X166880000Y-91038552D01*
X166601914Y-91153455D01*
X166085270Y-91669199D01*
X165805319Y-92343395D01*
X165804682Y-93073403D01*
X165920791Y-93354407D01*
X163956941Y-95318257D01*
X163957242Y-94973339D01*
X163745010Y-94459697D01*
X163352370Y-94066371D01*
X163144488Y-93980051D01*
X163350303Y-93895010D01*
X163743629Y-93502370D01*
X163956757Y-92989100D01*
X163957242Y-92433339D01*
X163745010Y-91919697D01*
X163352370Y-91526371D01*
X163160273Y-91446605D01*
X163291143Y-91392397D01*
X163360608Y-91150213D01*
X162560000Y-90349605D01*
X161759392Y-91150213D01*
X161828857Y-91392397D01*
X161969318Y-91442509D01*
X161769697Y-91524990D01*
X161376371Y-91917630D01*
X161163243Y-92430900D01*
X161162758Y-92986661D01*
X161374990Y-93500303D01*
X161767630Y-93893629D01*
X161975512Y-93979949D01*
X161769697Y-94064990D01*
X161376371Y-94457630D01*
X161163243Y-94970900D01*
X161162758Y-95526661D01*
X161374990Y-96040303D01*
X161767630Y-96433629D01*
X161975512Y-96519949D01*
X161769697Y-96604990D01*
X161376371Y-96997630D01*
X161163243Y-97510900D01*
X161162758Y-98066661D01*
X161374990Y-98580303D01*
X161767630Y-98973629D01*
X161975512Y-99059949D01*
X161769697Y-99144990D01*
X161376371Y-99537630D01*
X161163243Y-100050900D01*
X161162758Y-100606661D01*
X161374990Y-101120303D01*
X161767630Y-101513629D01*
X161975512Y-101599949D01*
X161769697Y-101684990D01*
X161376371Y-102077630D01*
X161163243Y-102590900D01*
X161162758Y-103146661D01*
X161374990Y-103660303D01*
X161767630Y-104053629D01*
X161975512Y-104139949D01*
X161769697Y-104224990D01*
X161376371Y-104617630D01*
X161163243Y-105130900D01*
X161162758Y-105686661D01*
X161374990Y-106200303D01*
X161767630Y-106593629D01*
X161975512Y-106679949D01*
X161769697Y-106764990D01*
X161376371Y-107157630D01*
X161163243Y-107670900D01*
X161162758Y-108226661D01*
X161374990Y-108740303D01*
X161767630Y-109133629D01*
X161975512Y-109219949D01*
X161769697Y-109304990D01*
X161376371Y-109697630D01*
X161163243Y-110210900D01*
X161162758Y-110766661D01*
X161374990Y-111280303D01*
X161767630Y-111673629D01*
X161975512Y-111759949D01*
X161769697Y-111844990D01*
X161376371Y-112237630D01*
X161163243Y-112750900D01*
X161162758Y-113306661D01*
X161259171Y-113540000D01*
X141000879Y-113540000D01*
X141096757Y-113309100D01*
X141097242Y-112753339D01*
X140885010Y-112239697D01*
X140492370Y-111846371D01*
X140284488Y-111760051D01*
X140490303Y-111675010D01*
X140883629Y-111282370D01*
X141096757Y-110769100D01*
X141097242Y-110213339D01*
X140885010Y-109699697D01*
X140492370Y-109306371D01*
X140284488Y-109220051D01*
X140490303Y-109135010D01*
X140883629Y-108742370D01*
X141096757Y-108229100D01*
X141097242Y-107673339D01*
X140885010Y-107159697D01*
X140492370Y-106766371D01*
X140284488Y-106680051D01*
X140490303Y-106595010D01*
X140883629Y-106202370D01*
X140897070Y-106170000D01*
X154377537Y-106170000D01*
X154409673Y-106202192D01*
X154753201Y-106344838D01*
X155125167Y-106345162D01*
X155468943Y-106203117D01*
X155732192Y-105940327D01*
X155874838Y-105596799D01*
X155875162Y-105224833D01*
X155733117Y-104881057D01*
X155470327Y-104617808D01*
X155126799Y-104475162D01*
X154754833Y-104474838D01*
X154411057Y-104616883D01*
X154377882Y-104650000D01*
X140897531Y-104650000D01*
X140885010Y-104619697D01*
X140492370Y-104226371D01*
X140284488Y-104140051D01*
X140490303Y-104055010D01*
X140883629Y-103662370D01*
X140897070Y-103630000D01*
X155647537Y-103630000D01*
X155679673Y-103662192D01*
X156023201Y-103804838D01*
X156395167Y-103805162D01*
X156738943Y-103663117D01*
X157002192Y-103400327D01*
X157144838Y-103056799D01*
X157145162Y-102684833D01*
X157003117Y-102341057D01*
X156740327Y-102077808D01*
X156396799Y-101935162D01*
X156024833Y-101934838D01*
X155681057Y-102076883D01*
X155647882Y-102110000D01*
X140897531Y-102110000D01*
X140885010Y-102079697D01*
X140492370Y-101686371D01*
X140284488Y-101600051D01*
X140490303Y-101515010D01*
X140883629Y-101122370D01*
X141096757Y-100609100D01*
X141097242Y-100053339D01*
X140885010Y-99539697D01*
X140492370Y-99146371D01*
X140284488Y-99060051D01*
X140490303Y-98975010D01*
X140883629Y-98582370D01*
X141096757Y-98069100D01*
X141097242Y-97513339D01*
X140885010Y-96999697D01*
X140492370Y-96606371D01*
X140284488Y-96520051D01*
X140490303Y-96435010D01*
X140883629Y-96042370D01*
X141096757Y-95529100D01*
X141097242Y-94973339D01*
X140885010Y-94459697D01*
X140492370Y-94066371D01*
X140284488Y-93980051D01*
X140490303Y-93895010D01*
X140883629Y-93502370D01*
X141096757Y-92989100D01*
X141097242Y-92433339D01*
X140885010Y-91919697D01*
X140492370Y-91526371D01*
X140300273Y-91446605D01*
X140431143Y-91392397D01*
X140500608Y-91150213D01*
X139700000Y-90349605D01*
X138899392Y-91150213D01*
X138968857Y-91392397D01*
X139109318Y-91442509D01*
X138909697Y-91524990D01*
X138516371Y-91917630D01*
X138303243Y-92430900D01*
X138302758Y-92986661D01*
X138514990Y-93500303D01*
X138907630Y-93893629D01*
X139115512Y-93979949D01*
X138909697Y-94064990D01*
X138516371Y-94457630D01*
X138303243Y-94970900D01*
X138302758Y-95526661D01*
X138514990Y-96040303D01*
X138907630Y-96433629D01*
X139115512Y-96519949D01*
X138909697Y-96604990D01*
X138516371Y-96997630D01*
X138303243Y-97510900D01*
X138302758Y-98066661D01*
X138514990Y-98580303D01*
X138907630Y-98973629D01*
X139115512Y-99059949D01*
X138909697Y-99144990D01*
X138516371Y-99537630D01*
X138303243Y-100050900D01*
X138302758Y-100606661D01*
X138514990Y-101120303D01*
X138907630Y-101513629D01*
X139115512Y-101599949D01*
X138909697Y-101684990D01*
X138516371Y-102077630D01*
X138303243Y-102590900D01*
X138302758Y-103146661D01*
X138514990Y-103660303D01*
X138907630Y-104053629D01*
X139115512Y-104139949D01*
X138909697Y-104224990D01*
X138516371Y-104617630D01*
X138303243Y-105130900D01*
X138302758Y-105686661D01*
X138514990Y-106200303D01*
X138907630Y-106593629D01*
X139115512Y-106679949D01*
X138909697Y-106764990D01*
X138516371Y-107157630D01*
X138303243Y-107670900D01*
X138302758Y-108226661D01*
X138514990Y-108740303D01*
X138907630Y-109133629D01*
X139115512Y-109219949D01*
X138909697Y-109304990D01*
X138516371Y-109697630D01*
X138303243Y-110210900D01*
X138302758Y-110766661D01*
X138514990Y-111280303D01*
X138907630Y-111673629D01*
X139115512Y-111759949D01*
X138909697Y-111844990D01*
X138516371Y-112237630D01*
X138303243Y-112750900D01*
X138302940Y-113098138D01*
X137697401Y-112492599D01*
X137450839Y-112327852D01*
X137160000Y-112270000D01*
X129540000Y-112270000D01*
X129249160Y-112327852D01*
X129002599Y-112492599D01*
X128616969Y-112878229D01*
X128299093Y-112815000D01*
X128240907Y-112815000D01*
X127923031Y-112878229D01*
X124997401Y-109952599D01*
X124750839Y-109787852D01*
X124460000Y-109730000D01*
X123591448Y-109730000D01*
X123476545Y-109451914D01*
X122960801Y-108935270D01*
X122286605Y-108655319D01*
X121556597Y-108654682D01*
X120881914Y-108933455D01*
X120365270Y-109449199D01*
X120248671Y-109730000D01*
X117241448Y-109730000D01*
X117126545Y-109451914D01*
X116610801Y-108935270D01*
X115936605Y-108655319D01*
X115206597Y-108654682D01*
X114531914Y-108933455D01*
X114015270Y-109449199D01*
X113735319Y-110123395D01*
X113734682Y-110853403D01*
X113850791Y-111134407D01*
X112715198Y-112270000D01*
X109447440Y-112270000D01*
X109447440Y-112180000D01*
X109403162Y-111944683D01*
X109264090Y-111728559D01*
X109051890Y-111583569D01*
X108800000Y-111532560D01*
X107100000Y-111532560D01*
X106864683Y-111576838D01*
X106648559Y-111715910D01*
X106503569Y-111928110D01*
X106452560Y-112180000D01*
X106452560Y-113880000D01*
X106496838Y-114115317D01*
X106635910Y-114331441D01*
X106848110Y-114476431D01*
X106915541Y-114490086D01*
X106870853Y-114519946D01*
X106548946Y-115001715D01*
X106435907Y-115570000D01*
X106508790Y-115936408D01*
X106142599Y-116302599D01*
X105977852Y-116549161D01*
X105920000Y-116840000D01*
X105920000Y-121920000D01*
X105977852Y-122210839D01*
X106142599Y-122457401D01*
X106389161Y-122622148D01*
X106680000Y-122680000D01*
X108905198Y-122680000D01*
X112492599Y-126267401D01*
X112739161Y-126432148D01*
X113030000Y-126490000D01*
X160020000Y-126490000D01*
X160310839Y-126432148D01*
X160557401Y-126267401D01*
X160566630Y-126258172D01*
X173862538Y-126258172D01*
X174267709Y-127238761D01*
X175017293Y-127989655D01*
X175997173Y-128396536D01*
X177058172Y-128397462D01*
X178038761Y-127992291D01*
X178789655Y-127242707D01*
X179196536Y-126262827D01*
X179197462Y-125201828D01*
X178792291Y-124221239D01*
X178042707Y-123470345D01*
X177062827Y-123063464D01*
X176001828Y-123062538D01*
X175021239Y-123467709D01*
X174270345Y-124217293D01*
X173863464Y-125197173D01*
X173862538Y-126258172D01*
X160566630Y-126258172D01*
X162250619Y-124574183D01*
X162280900Y-124586757D01*
X162836661Y-124587242D01*
X163350303Y-124375010D01*
X163743629Y-123982370D01*
X163956757Y-123469100D01*
X163957242Y-122913339D01*
X163745010Y-122399697D01*
X163352370Y-122006371D01*
X163144488Y-121920051D01*
X163350303Y-121835010D01*
X163743629Y-121442370D01*
X163956757Y-120929100D01*
X163957242Y-120373339D01*
X163745010Y-119859697D01*
X163352370Y-119466371D01*
X163144488Y-119380051D01*
X163350303Y-119295010D01*
X163743629Y-118902370D01*
X163956757Y-118389100D01*
X163957119Y-117973223D01*
X166193035Y-117973223D01*
X166220222Y-118543454D01*
X166386136Y-118944005D01*
X166632255Y-119018139D01*
X167460395Y-118190000D01*
X166632255Y-117361861D01*
X166386136Y-117435995D01*
X166193035Y-117973223D01*
X163957119Y-117973223D01*
X163957242Y-117833339D01*
X163745010Y-117319697D01*
X163352370Y-116926371D01*
X163144488Y-116840051D01*
X163350303Y-116755010D01*
X163743629Y-116362370D01*
X163956757Y-115849100D01*
X163957242Y-115293339D01*
X163860829Y-115060000D01*
X166370000Y-115060000D01*
X166660839Y-115002148D01*
X166880000Y-114855710D01*
X166880000Y-115570000D01*
X166937852Y-115860839D01*
X167102599Y-116107401D01*
X167743628Y-116748430D01*
X167286546Y-116770222D01*
X166885995Y-116936136D01*
X166811861Y-117182255D01*
X167640000Y-118010395D01*
X167654142Y-117996252D01*
X167833748Y-118175858D01*
X167819605Y-118190000D01*
X167833748Y-118204143D01*
X167654142Y-118383748D01*
X167640000Y-118369605D01*
X166811861Y-119197745D01*
X166885995Y-119443864D01*
X167423223Y-119636965D01*
X167993454Y-119609778D01*
X168150000Y-119544934D01*
X168150000Y-121605198D01*
X167978454Y-121776744D01*
X167926691Y-121755250D01*
X167355813Y-121754752D01*
X166828200Y-121972757D01*
X166424176Y-122376077D01*
X166205250Y-122903309D01*
X166204752Y-123474187D01*
X166422757Y-124001800D01*
X166826077Y-124405824D01*
X167353309Y-124624750D01*
X167924187Y-124625248D01*
X168451800Y-124407243D01*
X168855824Y-124003923D01*
X169074750Y-123476691D01*
X169075248Y-122905813D01*
X169052951Y-122851851D01*
X169447401Y-122457401D01*
X169612148Y-122210840D01*
X169670000Y-121920000D01*
X169670000Y-116840000D01*
X169644690Y-116712758D01*
X169612148Y-116549160D01*
X169447401Y-116302599D01*
X168400000Y-115255198D01*
X168400000Y-114701448D01*
X168678086Y-114586545D01*
X169194730Y-114070801D01*
X169474681Y-113396605D01*
X169475318Y-112666597D01*
X169196545Y-111991914D01*
X168680801Y-111475270D01*
X168006605Y-111195319D01*
X167276597Y-111194682D01*
X166995593Y-111310791D01*
X164590000Y-108905198D01*
X164590000Y-100294050D01*
X165805000Y-100294050D01*
X165805000Y-100365950D01*
X165944681Y-101068174D01*
X166342459Y-101663491D01*
X166937776Y-102061269D01*
X167640000Y-102200950D01*
X168342224Y-102061269D01*
X168937541Y-101663491D01*
X169335319Y-101068174D01*
X169475000Y-100365950D01*
X169475000Y-100294050D01*
X169335319Y-99591826D01*
X168937541Y-98996509D01*
X168342224Y-98598731D01*
X167640000Y-98459050D01*
X166937776Y-98598731D01*
X166342459Y-98996509D01*
X165944681Y-99591826D01*
X165805000Y-100294050D01*
X164590000Y-100294050D01*
X164590000Y-99060000D01*
X164532148Y-98769161D01*
X164532148Y-98769160D01*
X164367401Y-98522599D01*
X163944183Y-98099381D01*
X163956757Y-98069100D01*
X163957242Y-97513339D01*
X163943857Y-97480945D01*
X166995509Y-94429293D01*
X167273395Y-94544681D01*
X168003403Y-94545318D01*
X168678086Y-94266545D01*
X169194730Y-93750801D01*
X169474681Y-93076605D01*
X169475318Y-92346597D01*
X169196545Y-91671914D01*
X168680801Y-91155270D01*
X168400000Y-91038671D01*
X168400000Y-85404802D01*
X170717401Y-83087401D01*
X170882148Y-82840840D01*
X170902843Y-82736799D01*
X170940000Y-82550000D01*
X170940000Y-72895138D01*
X171083395Y-72954681D01*
X171813403Y-72955318D01*
X172488086Y-72676545D01*
X173004730Y-72160801D01*
X173284681Y-71486605D01*
X173285318Y-70756597D01*
X173006545Y-70081914D01*
X172490801Y-69565270D01*
X171816605Y-69285319D01*
X171086597Y-69284682D01*
X170411914Y-69563455D01*
X169895270Y-70079199D01*
X169778671Y-70360000D01*
X156765710Y-70360000D01*
X156912148Y-70140840D01*
X156970000Y-69850000D01*
X156970000Y-58384050D01*
X169615000Y-58384050D01*
X169615000Y-58455950D01*
X169754681Y-59158174D01*
X170152459Y-59753491D01*
X170747776Y-60151269D01*
X171450000Y-60290950D01*
X172152224Y-60151269D01*
X172747541Y-59753491D01*
X173145319Y-59158174D01*
X173285000Y-58455950D01*
X173285000Y-58384050D01*
X173145319Y-57681826D01*
X172747541Y-57086509D01*
X172152224Y-56688731D01*
X171450000Y-56549050D01*
X170747776Y-56688731D01*
X170152459Y-57086509D01*
X169754681Y-57681826D01*
X169615000Y-58384050D01*
X156970000Y-58384050D01*
X156970000Y-55279041D01*
X161168086Y-55279041D01*
X161407611Y-55785134D01*
X161822577Y-56161041D01*
X162210961Y-56321904D01*
X162433000Y-56199915D01*
X162433000Y-55057000D01*
X162687000Y-55057000D01*
X162687000Y-56199915D01*
X162909039Y-56321904D01*
X163297423Y-56161041D01*
X163712389Y-55785134D01*
X163951914Y-55279041D01*
X163830629Y-55057000D01*
X162687000Y-55057000D01*
X162433000Y-55057000D01*
X161289371Y-55057000D01*
X161168086Y-55279041D01*
X156970000Y-55279041D01*
X156970000Y-54580959D01*
X161168086Y-54580959D01*
X161289371Y-54803000D01*
X162433000Y-54803000D01*
X162433000Y-53660085D01*
X162687000Y-53660085D01*
X162687000Y-54803000D01*
X163830629Y-54803000D01*
X163951914Y-54580959D01*
X163712389Y-54074866D01*
X163297423Y-53698959D01*
X162909039Y-53538096D01*
X162687000Y-53660085D01*
X162433000Y-53660085D01*
X162210961Y-53538096D01*
X161822577Y-53698959D01*
X161407611Y-54074866D01*
X161168086Y-54580959D01*
X156970000Y-54580959D01*
X156970000Y-48544187D01*
X166204752Y-48544187D01*
X166422757Y-49071800D01*
X166826077Y-49475824D01*
X166880000Y-49498215D01*
X166880000Y-49530000D01*
X166937852Y-49820839D01*
X167102599Y-50067401D01*
X168372599Y-51337401D01*
X168619160Y-51502148D01*
X168910000Y-51560000D01*
X175260000Y-51560000D01*
X175550839Y-51502148D01*
X175797401Y-51337401D01*
X177240110Y-49894692D01*
X177333754Y-49894774D01*
X177934715Y-49646462D01*
X178394906Y-49187073D01*
X178644266Y-48586547D01*
X178644834Y-47936306D01*
X178396522Y-47335345D01*
X177937133Y-46875154D01*
X177336607Y-46625794D01*
X176686366Y-46625226D01*
X176085405Y-46873538D01*
X175625214Y-47332927D01*
X175375854Y-47933453D01*
X175375286Y-48583694D01*
X175623598Y-49184655D01*
X175711993Y-49273205D01*
X174945198Y-50040000D01*
X169224802Y-50040000D01*
X168596965Y-49412163D01*
X172537383Y-49412163D01*
X172635982Y-49678965D01*
X173245522Y-49905401D01*
X173895317Y-49881341D01*
X174383898Y-49678965D01*
X174482497Y-49412163D01*
X173509940Y-48439605D01*
X172537383Y-49412163D01*
X168596965Y-49412163D01*
X168557014Y-49372212D01*
X168855824Y-49073923D01*
X169074750Y-48546691D01*
X169075230Y-47995582D01*
X171864539Y-47995582D01*
X171888599Y-48645377D01*
X172090975Y-49133958D01*
X172357777Y-49232557D01*
X173330335Y-48260000D01*
X173689545Y-48260000D01*
X174662103Y-49232557D01*
X174928905Y-49133958D01*
X175155341Y-48524418D01*
X175131281Y-47874623D01*
X174928905Y-47386042D01*
X174662103Y-47287443D01*
X173689545Y-48260000D01*
X173330335Y-48260000D01*
X172357777Y-47287443D01*
X172090975Y-47386042D01*
X171864539Y-47995582D01*
X169075230Y-47995582D01*
X169075248Y-47975813D01*
X168857243Y-47448200D01*
X168517474Y-47107837D01*
X172537383Y-47107837D01*
X173509940Y-48080395D01*
X174482497Y-47107837D01*
X174383898Y-46841035D01*
X173774358Y-46614599D01*
X173124563Y-46638659D01*
X172635982Y-46841035D01*
X172537383Y-47107837D01*
X168517474Y-47107837D01*
X168453923Y-47044176D01*
X167926691Y-46825250D01*
X167355813Y-46824752D01*
X166828200Y-47042757D01*
X166424176Y-47446077D01*
X166205250Y-47973309D01*
X166204752Y-48544187D01*
X156970000Y-48544187D01*
X156970000Y-43742463D01*
X157002192Y-43710327D01*
X157144838Y-43366799D01*
X157145162Y-42994833D01*
X157003117Y-42651057D01*
X156740327Y-42387808D01*
X156396799Y-42245162D01*
X156024833Y-42244838D01*
X155681057Y-42386883D01*
X155417808Y-42649673D01*
X155275162Y-42993201D01*
X155274838Y-43365167D01*
X155416883Y-43708943D01*
X155450000Y-43742118D01*
X155450000Y-69535198D01*
X154923634Y-70061564D01*
X154712241Y-69849801D01*
X155055278Y-69507363D01*
X155304716Y-68906648D01*
X155305284Y-68256205D01*
X155056894Y-67655057D01*
X154712241Y-67309801D01*
X155055278Y-66967363D01*
X155304716Y-66366648D01*
X155305284Y-65716205D01*
X155056894Y-65115057D01*
X154712241Y-64769801D01*
X155055278Y-64427363D01*
X155304716Y-63826648D01*
X155305284Y-63176205D01*
X155056894Y-62575057D01*
X154712241Y-62229801D01*
X155055278Y-61887363D01*
X155304716Y-61286648D01*
X155305284Y-60636205D01*
X155056894Y-60035057D01*
X154990379Y-59968426D01*
X155121441Y-59884090D01*
X155266431Y-59671890D01*
X155317440Y-59420000D01*
X155317440Y-57420000D01*
X155273162Y-57184683D01*
X155134090Y-56968559D01*
X154921890Y-56823569D01*
X154670000Y-56772560D01*
X154430000Y-56772560D01*
X154430000Y-40640000D01*
X154372148Y-40349161D01*
X154372148Y-40349160D01*
X154207401Y-40102599D01*
X152463210Y-38358408D01*
X153017491Y-38248155D01*
X153515481Y-37915409D01*
X153848227Y-37417419D01*
X153860011Y-37358172D01*
X173862538Y-37358172D01*
X174267709Y-38338761D01*
X175017293Y-39089655D01*
X175997173Y-39496536D01*
X177058172Y-39497462D01*
X178038761Y-39092291D01*
X178789655Y-38342707D01*
X179196536Y-37362827D01*
X179197462Y-36301828D01*
X178792291Y-35321239D01*
X178042707Y-34570345D01*
X177062827Y-34163464D01*
X176001828Y-34162538D01*
X175021239Y-34567709D01*
X174270345Y-35317293D01*
X173863464Y-36297173D01*
X173862538Y-37358172D01*
X153860011Y-37358172D01*
X153965072Y-36830000D01*
X153848227Y-36242581D01*
X153515481Y-35744591D01*
X153160000Y-35507066D01*
X153160000Y-34290000D01*
X153102148Y-33999161D01*
X152937401Y-33752599D01*
X152690839Y-33587852D01*
X152400000Y-33530000D01*
X142240000Y-33530000D01*
X141949161Y-33587852D01*
X141702599Y-33752599D01*
X137498454Y-37956744D01*
X137446691Y-37935250D01*
X136875813Y-37934752D01*
X136348200Y-38152757D01*
X135944176Y-38556077D01*
X135921785Y-38610000D01*
X127577440Y-38610000D01*
X127577440Y-38170000D01*
X127533162Y-37934683D01*
X127394090Y-37718559D01*
X127181890Y-37573569D01*
X126930000Y-37522560D01*
X124530000Y-37522560D01*
X124294683Y-37566838D01*
X124078559Y-37705910D01*
X123933569Y-37918110D01*
X123882560Y-38170000D01*
X123882560Y-40570000D01*
X123926838Y-40805317D01*
X124065910Y-41021441D01*
X124278110Y-41166431D01*
X124530000Y-41217440D01*
X126930000Y-41217440D01*
X127165317Y-41173162D01*
X127381441Y-41034090D01*
X127526431Y-40821890D01*
X127577440Y-40570000D01*
X127577440Y-40130000D01*
X135921354Y-40130000D01*
X135942757Y-40181800D01*
X136346077Y-40585824D01*
X136873309Y-40804750D01*
X137444187Y-40805248D01*
X137971800Y-40587243D01*
X138375824Y-40183923D01*
X138594750Y-39656691D01*
X138595248Y-39085813D01*
X138572951Y-39031851D01*
X142554802Y-35050000D01*
X145485198Y-35050000D01*
X144465198Y-36070000D01*
X142240000Y-36070000D01*
X141997414Y-36118254D01*
X141949160Y-36127852D01*
X141702599Y-36292599D01*
X139162599Y-38832599D01*
X138997852Y-39079161D01*
X138940000Y-39370000D01*
X138940000Y-41595198D01*
X137892599Y-42642599D01*
X137727852Y-42889161D01*
X137670000Y-43180000D01*
X137670000Y-50800000D01*
X137727852Y-51090839D01*
X137892599Y-51337401D01*
X141702599Y-55147401D01*
X141949161Y-55312148D01*
X142240000Y-55370000D01*
X146122469Y-55370000D01*
X146134990Y-55400303D01*
X146527630Y-55793629D01*
X146735512Y-55879949D01*
X146529697Y-55964990D01*
X146136371Y-56357630D01*
X146122930Y-56390000D01*
X143510000Y-56390000D01*
X143219161Y-56447852D01*
X142972599Y-56612599D01*
X137286941Y-62298257D01*
X137287242Y-61953339D01*
X137273857Y-61920945D01*
X137697401Y-61497401D01*
X137862148Y-61250840D01*
X137920000Y-60960000D01*
X137920000Y-60490633D01*
X138243201Y-60624838D01*
X138615167Y-60625162D01*
X138958943Y-60483117D01*
X139222192Y-60220327D01*
X139364838Y-59876799D01*
X139365162Y-59504833D01*
X139223117Y-59161057D01*
X139190000Y-59127882D01*
X139190000Y-53340000D01*
X139132148Y-53049161D01*
X139132148Y-53049160D01*
X138967401Y-52802599D01*
X137697401Y-51532599D01*
X137450839Y-51367852D01*
X137160000Y-51310000D01*
X133912463Y-51310000D01*
X133880327Y-51277808D01*
X133536799Y-51135162D01*
X133164833Y-51134838D01*
X132821057Y-51276883D01*
X132591171Y-51506369D01*
X131347401Y-50262599D01*
X131100839Y-50097852D01*
X130810000Y-50040000D01*
X111760000Y-50040000D01*
X111469161Y-50097852D01*
X111222599Y-50262599D01*
X111057852Y-50509161D01*
X111000000Y-50800000D01*
X111000000Y-60960000D01*
X111057852Y-61250839D01*
X111222599Y-61497401D01*
X111568084Y-61842886D01*
X111531661Y-61930602D01*
X111531141Y-62526782D01*
X111758808Y-63077780D01*
X112180003Y-63499710D01*
X112180931Y-63500095D01*
X111760290Y-63920003D01*
X111722920Y-64010000D01*
X109220000Y-64010000D01*
X108929160Y-64067852D01*
X108682599Y-64232599D01*
X107412599Y-65502599D01*
X107247852Y-65749161D01*
X107190000Y-66040000D01*
X107190000Y-72390000D01*
X107247852Y-72680839D01*
X107412599Y-72927401D01*
X111222599Y-76737401D01*
X111469161Y-76902148D01*
X111629860Y-76934113D01*
X111531661Y-77170602D01*
X111531141Y-77766782D01*
X111758808Y-78317780D01*
X112180003Y-78739710D01*
X112180931Y-78740095D01*
X111760290Y-79160003D01*
X111531661Y-79710602D01*
X111531141Y-80306782D01*
X111758808Y-80857780D01*
X112180003Y-81279710D01*
X112220537Y-81296541D01*
X112155800Y-81496195D01*
X113030000Y-82370395D01*
X113904200Y-81496195D01*
X113839601Y-81296967D01*
X113877780Y-81281192D01*
X114299710Y-80859997D01*
X114528339Y-80309398D01*
X114528859Y-79713218D01*
X114301192Y-79162220D01*
X113879997Y-78740290D01*
X113879069Y-78739905D01*
X114299710Y-78319997D01*
X114528339Y-77769398D01*
X114528859Y-77173218D01*
X114430069Y-76934127D01*
X114590839Y-76902148D01*
X114837401Y-76737401D01*
X119694802Y-71880000D01*
X120650000Y-71880000D01*
X120940839Y-71822148D01*
X121187401Y-71657401D01*
X122234802Y-70610000D01*
X134692469Y-70610000D01*
X134704990Y-70640303D01*
X135097630Y-71033629D01*
X135305512Y-71119949D01*
X135099697Y-71204990D01*
X134706371Y-71597630D01*
X134493243Y-72110900D01*
X134492758Y-72666661D01*
X134704990Y-73180303D01*
X135097630Y-73573629D01*
X135305512Y-73659949D01*
X135099697Y-73744990D01*
X134706371Y-74137630D01*
X134493243Y-74650900D01*
X134492758Y-75206661D01*
X134506143Y-75239055D01*
X132812599Y-76932599D01*
X132647852Y-77179161D01*
X132590000Y-77470000D01*
X132590000Y-94935198D01*
X131542599Y-95982599D01*
X131377852Y-96229161D01*
X131320000Y-96520000D01*
X131320000Y-103380000D01*
X118607283Y-103380000D01*
X119148086Y-103156545D01*
X119664730Y-102640801D01*
X119944681Y-101966605D01*
X119945318Y-101236597D01*
X119666545Y-100561914D01*
X119401104Y-100296009D01*
X121455000Y-100296009D01*
X121455000Y-100363991D01*
X121587069Y-101027947D01*
X121963170Y-101590821D01*
X122526044Y-101966922D01*
X123190000Y-102098991D01*
X123853956Y-101966922D01*
X124416830Y-101590821D01*
X124792931Y-101027947D01*
X124925000Y-100363991D01*
X124925000Y-100296009D01*
X124792931Y-99632053D01*
X124416830Y-99069179D01*
X123853956Y-98693078D01*
X123190000Y-98561009D01*
X122526044Y-98693078D01*
X121963170Y-99069179D01*
X121587069Y-99632053D01*
X121455000Y-100296009D01*
X119401104Y-100296009D01*
X119150801Y-100045270D01*
X118476605Y-99765319D01*
X117746597Y-99764682D01*
X117071914Y-100043455D01*
X116555270Y-100559199D01*
X116275319Y-101233395D01*
X116274682Y-101963403D01*
X116390791Y-102244407D01*
X113985198Y-104650000D01*
X111054802Y-104650000D01*
X112297401Y-103407401D01*
X112462148Y-103160840D01*
X112477551Y-103083406D01*
X112690600Y-102995376D01*
X113153750Y-102533034D01*
X113404713Y-101928646D01*
X113405284Y-101274225D01*
X113155376Y-100669400D01*
X112816382Y-100329814D01*
X113153750Y-99993034D01*
X113404713Y-99388646D01*
X113405284Y-98734225D01*
X113333736Y-98561066D01*
X114614802Y-97280000D01*
X122875198Y-97280000D01*
X127732599Y-102137401D01*
X127792560Y-102177466D01*
X127792560Y-102700000D01*
X127836838Y-102935317D01*
X127975910Y-103151441D01*
X128188110Y-103296431D01*
X128440000Y-103347440D01*
X130640000Y-103347440D01*
X130875317Y-103303162D01*
X131091441Y-103164090D01*
X131236431Y-102951890D01*
X131287440Y-102700000D01*
X131287440Y-100500000D01*
X131243162Y-100264683D01*
X131104090Y-100048559D01*
X130891890Y-99903569D01*
X130640000Y-99852560D01*
X129030000Y-99852560D01*
X129030000Y-99060000D01*
X128972148Y-98769161D01*
X128807401Y-98522599D01*
X123950000Y-93665198D01*
X123950000Y-91917440D01*
X124290000Y-91917440D01*
X124525317Y-91873162D01*
X124741441Y-91734090D01*
X124886431Y-91521890D01*
X124937440Y-91270000D01*
X124937440Y-89070000D01*
X124893162Y-88834683D01*
X124754090Y-88618559D01*
X124541890Y-88473569D01*
X124290000Y-88422560D01*
X122517362Y-88422560D01*
X121410000Y-87315198D01*
X121410000Y-86360000D01*
X121352148Y-86069161D01*
X121352148Y-86069160D01*
X121187401Y-85822599D01*
X120740552Y-85375750D01*
X125865000Y-85375750D01*
X125865000Y-85716310D01*
X125961673Y-85949699D01*
X126140302Y-86128327D01*
X126373691Y-86225000D01*
X126714250Y-86225000D01*
X126873000Y-86066250D01*
X126873000Y-85217000D01*
X126023750Y-85217000D01*
X125865000Y-85375750D01*
X120740552Y-85375750D01*
X119944802Y-84580000D01*
X122627537Y-84580000D01*
X122659673Y-84612192D01*
X123003201Y-84754838D01*
X123375167Y-84755162D01*
X123718943Y-84613117D01*
X123868630Y-84463690D01*
X125865000Y-84463690D01*
X125865000Y-84804250D01*
X126023750Y-84963000D01*
X126873000Y-84963000D01*
X126873000Y-84113750D01*
X126714250Y-83955000D01*
X126373691Y-83955000D01*
X126140302Y-84051673D01*
X125961673Y-84230301D01*
X125865000Y-84463690D01*
X123868630Y-84463690D01*
X123982192Y-84350327D01*
X124124838Y-84006799D01*
X124125162Y-83634833D01*
X123983117Y-83291057D01*
X123720327Y-83027808D01*
X123376799Y-82885162D01*
X123004833Y-82884838D01*
X122661057Y-83026883D01*
X122627882Y-83060000D01*
X119942463Y-83060000D01*
X119910327Y-83027808D01*
X119566799Y-82885162D01*
X119194833Y-82884838D01*
X118870000Y-83019056D01*
X118870000Y-82951448D01*
X119148086Y-82836545D01*
X119664730Y-82320801D01*
X119944681Y-81646605D01*
X119944804Y-81504775D01*
X120784803Y-81504775D01*
X120957233Y-81922086D01*
X121276235Y-82241645D01*
X121693244Y-82414803D01*
X122144775Y-82415197D01*
X122555495Y-82245490D01*
X122963244Y-82414803D01*
X123414775Y-82415197D01*
X123624730Y-82328445D01*
X123833691Y-82415000D01*
X124174250Y-82415000D01*
X124333000Y-82256250D01*
X124333000Y-81407000D01*
X124587000Y-81407000D01*
X124587000Y-82256250D01*
X124745750Y-82415000D01*
X125086309Y-82415000D01*
X125319698Y-82318327D01*
X125498327Y-82139699D01*
X125595000Y-81906310D01*
X125595000Y-81565750D01*
X125436250Y-81407000D01*
X124587000Y-81407000D01*
X124333000Y-81407000D01*
X124324890Y-81407000D01*
X124325112Y-81153000D01*
X124333000Y-81153000D01*
X124333000Y-80303750D01*
X124587000Y-80303750D01*
X124587000Y-81153000D01*
X125436250Y-81153000D01*
X125595000Y-80994250D01*
X125595000Y-80653690D01*
X125498327Y-80420301D01*
X125319698Y-80241673D01*
X125086309Y-80145000D01*
X124745750Y-80145000D01*
X124587000Y-80303750D01*
X124333000Y-80303750D01*
X124174250Y-80145000D01*
X123950000Y-80145000D01*
X123950000Y-79103403D01*
X126434682Y-79103403D01*
X126713455Y-79778086D01*
X127229199Y-80294730D01*
X127510000Y-80411329D01*
X127510000Y-83955000D01*
X127285750Y-83955000D01*
X127127000Y-84113750D01*
X127127000Y-84963000D01*
X127135110Y-84963000D01*
X127134888Y-85217000D01*
X127127000Y-85217000D01*
X127127000Y-86066250D01*
X127285750Y-86225000D01*
X127626309Y-86225000D01*
X127835271Y-86138445D01*
X128043244Y-86224803D01*
X128494775Y-86225197D01*
X128780000Y-86107344D01*
X128780000Y-89867253D01*
X128313170Y-90179179D01*
X127937069Y-90742053D01*
X127805000Y-91406009D01*
X127805000Y-91473991D01*
X127937069Y-92137947D01*
X128313170Y-92700821D01*
X128876044Y-93076922D01*
X129540000Y-93208991D01*
X130203956Y-93076922D01*
X130766830Y-92700821D01*
X131142931Y-92137947D01*
X131275000Y-91473991D01*
X131275000Y-91406009D01*
X131142931Y-90742053D01*
X130766830Y-90179179D01*
X130300000Y-89867253D01*
X130300000Y-85935059D01*
X130501645Y-85733765D01*
X130674803Y-85316756D01*
X130675197Y-84865225D01*
X130502767Y-84447914D01*
X130183765Y-84128355D01*
X129766756Y-83955197D01*
X129315225Y-83954803D01*
X129030000Y-84072656D01*
X129030000Y-80411448D01*
X129308086Y-80296545D01*
X129824730Y-79780801D01*
X130104681Y-79106605D01*
X130105318Y-78376597D01*
X129826545Y-77701914D01*
X129310801Y-77185270D01*
X128636605Y-76905319D01*
X127906597Y-76904682D01*
X127231914Y-77183455D01*
X126715270Y-77699199D01*
X126435319Y-78373395D01*
X126434682Y-79103403D01*
X123950000Y-79103403D01*
X123950000Y-76601448D01*
X124228086Y-76486545D01*
X124744730Y-75970801D01*
X125024681Y-75296605D01*
X125025318Y-74566597D01*
X124746545Y-73891914D01*
X124230801Y-73375270D01*
X123556605Y-73095319D01*
X122826597Y-73094682D01*
X122151914Y-73373455D01*
X121635270Y-73889199D01*
X121355319Y-74563395D01*
X121354682Y-75293403D01*
X121633455Y-75968086D01*
X122149199Y-76484730D01*
X122430000Y-76601329D01*
X122430000Y-80262811D01*
X122146756Y-80145197D01*
X121695225Y-80144803D01*
X121277914Y-80317233D01*
X120958355Y-80636235D01*
X120785197Y-81053244D01*
X120784803Y-81504775D01*
X119944804Y-81504775D01*
X119945318Y-80916597D01*
X119666545Y-80241914D01*
X119150801Y-79725270D01*
X118476605Y-79445319D01*
X117746597Y-79444682D01*
X117071914Y-79723455D01*
X116555270Y-80239199D01*
X116330000Y-80781709D01*
X116330000Y-80572463D01*
X116362192Y-80540327D01*
X116504838Y-80196799D01*
X116505162Y-79824833D01*
X116363117Y-79481057D01*
X116100327Y-79217808D01*
X115756799Y-79075162D01*
X115384833Y-79074838D01*
X115041057Y-79216883D01*
X114777808Y-79479673D01*
X114635162Y-79823201D01*
X114634838Y-80195167D01*
X114776883Y-80538943D01*
X114810000Y-80572118D01*
X114810000Y-81987537D01*
X114777808Y-82019673D01*
X114635162Y-82363201D01*
X114634838Y-82735167D01*
X114769056Y-83060000D01*
X114439151Y-83060000D01*
X114540248Y-82781970D01*
X114514058Y-82186365D01*
X114336516Y-81757741D01*
X114083805Y-81675800D01*
X113209605Y-82550000D01*
X113223748Y-82564143D01*
X113044143Y-82743748D01*
X113030000Y-82729605D01*
X113015858Y-82743748D01*
X112836253Y-82564143D01*
X112850395Y-82550000D01*
X111976195Y-81675800D01*
X111723484Y-81757741D01*
X111519752Y-82318030D01*
X111545942Y-82913635D01*
X111606568Y-83060000D01*
X108264802Y-83060000D01*
X104900000Y-79695198D01*
X104900000Y-73660000D01*
X104842148Y-73369161D01*
X104842148Y-73369160D01*
X104677401Y-73122599D01*
X103407401Y-71852599D01*
X103160839Y-71687852D01*
X102870000Y-71630000D01*
X99097462Y-71630000D01*
X99061192Y-71542220D01*
X98639997Y-71120290D01*
X98639069Y-71119905D01*
X99059710Y-70699997D01*
X99288339Y-70149398D01*
X99288859Y-69553218D01*
X99061192Y-69002220D01*
X98639997Y-68580290D01*
X98639069Y-68579905D01*
X99059710Y-68159997D01*
X99288339Y-67609398D01*
X99288859Y-67013218D01*
X99061192Y-66462220D01*
X98639997Y-66040290D01*
X98639069Y-66039905D01*
X99059710Y-65619997D01*
X99288339Y-65069398D01*
X99288859Y-64473218D01*
X99061192Y-63922220D01*
X98639997Y-63500290D01*
X98639069Y-63499905D01*
X99059710Y-63079997D01*
X99288339Y-62529398D01*
X99288859Y-61933218D01*
X99061192Y-61382220D01*
X98639997Y-60960290D01*
X98639069Y-60959905D01*
X99059710Y-60539997D01*
X99288339Y-59989398D01*
X99288859Y-59393218D01*
X99061192Y-58842220D01*
X98639997Y-58420290D01*
X98639069Y-58419905D01*
X99059710Y-57999997D01*
X99288339Y-57449398D01*
X99288859Y-56853218D01*
X99061192Y-56302220D01*
X98639997Y-55880290D01*
X98639069Y-55879905D01*
X99059710Y-55459997D01*
X99288339Y-54909398D01*
X99288859Y-54313218D01*
X99061192Y-53762220D01*
X98682720Y-53383087D01*
X99111732Y-52954823D01*
X99349728Y-52381664D01*
X99350270Y-51761058D01*
X99113275Y-51187486D01*
X98674823Y-50748268D01*
X98101664Y-50510272D01*
X97481058Y-50509730D01*
X96907486Y-50746725D01*
X96468268Y-51185177D01*
X96230272Y-51758336D01*
X96229730Y-52378942D01*
X96466725Y-52952514D01*
X96897204Y-53383745D01*
X96520290Y-53760003D01*
X96482920Y-53850000D01*
X94390735Y-53850000D01*
X94007541Y-53276509D01*
X93412224Y-52878731D01*
X92710000Y-52739050D01*
X92007776Y-52878731D01*
X91412459Y-53276509D01*
X91014681Y-53871826D01*
X90875000Y-54574050D01*
X90875000Y-54645950D01*
X91014681Y-55348174D01*
X91412459Y-55943491D01*
X92007776Y-56341269D01*
X92252763Y-56390000D01*
X90484802Y-56390000D01*
X87801210Y-53706408D01*
X87874093Y-53340000D01*
X87761054Y-52771715D01*
X87439147Y-52289946D01*
X87098447Y-52062298D01*
X87241358Y-51995183D01*
X87631645Y-51566924D01*
X87801476Y-51156890D01*
X87763933Y-51085750D01*
X89905000Y-51085750D01*
X89905000Y-51826309D01*
X90001673Y-52059698D01*
X90180301Y-52238327D01*
X90413690Y-52335000D01*
X91154250Y-52335000D01*
X91313000Y-52176250D01*
X91313000Y-50927000D01*
X91567000Y-50927000D01*
X91567000Y-52176250D01*
X91725750Y-52335000D01*
X92466310Y-52335000D01*
X92699699Y-52238327D01*
X92878327Y-52059698D01*
X92975000Y-51826309D01*
X92975000Y-51085750D01*
X92816250Y-50927000D01*
X91567000Y-50927000D01*
X91313000Y-50927000D01*
X90063750Y-50927000D01*
X89905000Y-51085750D01*
X87763933Y-51085750D01*
X87680155Y-50927000D01*
X86487000Y-50927000D01*
X86487000Y-50947000D01*
X86233000Y-50947000D01*
X86233000Y-50927000D01*
X85039845Y-50927000D01*
X84918524Y-51156890D01*
X85088355Y-51566924D01*
X85478642Y-51995183D01*
X85621553Y-52062298D01*
X85280853Y-52289946D01*
X84958946Y-52771715D01*
X84845907Y-53340000D01*
X84958946Y-53908285D01*
X85280853Y-54390054D01*
X85610026Y-54610000D01*
X85280853Y-54829946D01*
X84958946Y-55311715D01*
X84845907Y-55880000D01*
X84958946Y-56448285D01*
X85280853Y-56930054D01*
X85610026Y-57150000D01*
X85280853Y-57369946D01*
X84958946Y-57851715D01*
X84845907Y-58420000D01*
X84958946Y-58988285D01*
X85280853Y-59470054D01*
X85610026Y-59690000D01*
X85280853Y-59909946D01*
X84958946Y-60391715D01*
X84845907Y-60960000D01*
X84958946Y-61528285D01*
X85280853Y-62010054D01*
X85610026Y-62230000D01*
X85280853Y-62449946D01*
X84958946Y-62931715D01*
X84845907Y-63500000D01*
X84958946Y-64068285D01*
X85280853Y-64550054D01*
X85610026Y-64770000D01*
X85280853Y-64989946D01*
X84958946Y-65471715D01*
X84845907Y-66040000D01*
X84958946Y-66608285D01*
X85280853Y-67090054D01*
X85610026Y-67310000D01*
X85280853Y-67529946D01*
X84958946Y-68011715D01*
X84845907Y-68580000D01*
X84958946Y-69148285D01*
X85280853Y-69630054D01*
X85610026Y-69850000D01*
X85280853Y-70069946D01*
X84958946Y-70551715D01*
X84845907Y-71120000D01*
X84958946Y-71688285D01*
X85280853Y-72170054D01*
X85610026Y-72390000D01*
X85280853Y-72609946D01*
X84958946Y-73091715D01*
X84845907Y-73660000D01*
X84958946Y-74228285D01*
X85280853Y-74710054D01*
X85610026Y-74930000D01*
X85280853Y-75149946D01*
X84958946Y-75631715D01*
X84845907Y-76200000D01*
X84958946Y-76768285D01*
X85280853Y-77250054D01*
X85610026Y-77470000D01*
X85280853Y-77689946D01*
X84958946Y-78171715D01*
X84845907Y-78740000D01*
X84958946Y-79308285D01*
X85280853Y-79790054D01*
X85322452Y-79817850D01*
X85274683Y-79826838D01*
X85058559Y-79965910D01*
X84913569Y-80178110D01*
X84862560Y-80430000D01*
X84862560Y-82130000D01*
X84906838Y-82365317D01*
X85045910Y-82581441D01*
X85258110Y-82726431D01*
X85510000Y-82777440D01*
X85600000Y-82777440D01*
X85600000Y-89692560D01*
X85260000Y-89692560D01*
X85024683Y-89736838D01*
X84808559Y-89875910D01*
X84663569Y-90088110D01*
X84612560Y-90340000D01*
X83947000Y-90340000D01*
X83947000Y-50443110D01*
X84918524Y-50443110D01*
X85039845Y-50673000D01*
X86233000Y-50673000D01*
X86233000Y-49479181D01*
X86487000Y-49479181D01*
X86487000Y-50673000D01*
X87680155Y-50673000D01*
X87801476Y-50443110D01*
X87631645Y-50033076D01*
X87241358Y-49604817D01*
X86716892Y-49358514D01*
X86487000Y-49479181D01*
X86233000Y-49479181D01*
X86003108Y-49358514D01*
X85478642Y-49604817D01*
X85088355Y-50033076D01*
X84918524Y-50443110D01*
X83947000Y-50443110D01*
X83947000Y-46023991D01*
X89904735Y-46023991D01*
X90137932Y-46588371D01*
X90539182Y-46990323D01*
X90139449Y-47389357D01*
X89905267Y-47953330D01*
X89904735Y-48563991D01*
X90137932Y-49128371D01*
X90315092Y-49305841D01*
X90180301Y-49361673D01*
X90001673Y-49540302D01*
X89905000Y-49773691D01*
X89905000Y-50514250D01*
X90063750Y-50673000D01*
X91313000Y-50673000D01*
X91313000Y-50653000D01*
X91567000Y-50653000D01*
X91567000Y-50673000D01*
X92816250Y-50673000D01*
X92975000Y-50514250D01*
X92975000Y-49773691D01*
X92878327Y-49540302D01*
X92699699Y-49361673D01*
X92565006Y-49305881D01*
X92740551Y-49130643D01*
X92786494Y-49020000D01*
X94935198Y-49020000D01*
X95982599Y-50067401D01*
X96229160Y-50232148D01*
X96520000Y-50290000D01*
X101285198Y-50290000D01*
X102110000Y-51114802D01*
X102110000Y-52777537D01*
X102077808Y-52809673D01*
X101935162Y-53153201D01*
X101934838Y-53525167D01*
X102076883Y-53868943D01*
X102339673Y-54132192D01*
X102683201Y-54274838D01*
X103055167Y-54275162D01*
X103398943Y-54133117D01*
X103662192Y-53870327D01*
X103804838Y-53526799D01*
X103805162Y-53154833D01*
X103663117Y-52811057D01*
X103630000Y-52777882D01*
X103630000Y-50800000D01*
X103572148Y-50509161D01*
X103572148Y-50509160D01*
X103407401Y-50262599D01*
X102137401Y-48992599D01*
X101890839Y-48827852D01*
X101600000Y-48770000D01*
X96834802Y-48770000D01*
X95787401Y-47722599D01*
X95540839Y-47557852D01*
X95250000Y-47500000D01*
X92786846Y-47500000D01*
X92742068Y-47391629D01*
X92340818Y-46989677D01*
X92740551Y-46590643D01*
X92974733Y-46026670D01*
X92974751Y-46005750D01*
X96255000Y-46005750D01*
X96255000Y-46746310D01*
X96351673Y-46979699D01*
X96530302Y-47158327D01*
X96763691Y-47255000D01*
X97504250Y-47255000D01*
X97663000Y-47096250D01*
X97663000Y-45847000D01*
X96413750Y-45847000D01*
X96255000Y-46005750D01*
X92974751Y-46005750D01*
X92975265Y-45416009D01*
X92742068Y-44851629D01*
X92584405Y-44693690D01*
X96255000Y-44693690D01*
X96255000Y-45434250D01*
X96413750Y-45593000D01*
X97663000Y-45593000D01*
X97663000Y-44343750D01*
X97917000Y-44343750D01*
X97917000Y-45593000D01*
X97937000Y-45593000D01*
X97937000Y-45847000D01*
X97917000Y-45847000D01*
X97917000Y-47096250D01*
X98075750Y-47255000D01*
X98816309Y-47255000D01*
X99049698Y-47158327D01*
X99228327Y-46979699D01*
X99284119Y-46845006D01*
X99459357Y-47020551D01*
X100023330Y-47254733D01*
X100633991Y-47255265D01*
X101198371Y-47022068D01*
X101600323Y-46620818D01*
X101999357Y-47020551D01*
X102563330Y-47254733D01*
X103173991Y-47255265D01*
X103738371Y-47022068D01*
X104170551Y-46590643D01*
X104404733Y-46026670D01*
X104405046Y-45667175D01*
X124612430Y-45667175D01*
X124735565Y-45954788D01*
X125417734Y-46214707D01*
X126147443Y-46193786D01*
X126724435Y-45954788D01*
X126847570Y-45667175D01*
X125730000Y-44549605D01*
X124612430Y-45667175D01*
X104405046Y-45667175D01*
X104405265Y-45416009D01*
X104172068Y-44851629D01*
X103740643Y-44419449D01*
X103176670Y-44185267D01*
X102566009Y-44184735D01*
X102001629Y-44417932D01*
X101599677Y-44819182D01*
X101200643Y-44419449D01*
X100636670Y-44185267D01*
X100026009Y-44184735D01*
X99461629Y-44417932D01*
X99284159Y-44595092D01*
X99228327Y-44460301D01*
X99049698Y-44281673D01*
X98816309Y-44185000D01*
X98075750Y-44185000D01*
X97917000Y-44343750D01*
X97663000Y-44343750D01*
X97504250Y-44185000D01*
X96763691Y-44185000D01*
X96530302Y-44281673D01*
X96351673Y-44460301D01*
X96255000Y-44693690D01*
X92584405Y-44693690D01*
X92310643Y-44419449D01*
X91746670Y-44185267D01*
X91136009Y-44184735D01*
X90571629Y-44417932D01*
X90139449Y-44849357D01*
X89905267Y-45413330D01*
X89904735Y-46023991D01*
X83947000Y-46023991D01*
X83947000Y-44057734D01*
X123885293Y-44057734D01*
X123906214Y-44787443D01*
X124145212Y-45364435D01*
X124432825Y-45487570D01*
X125550395Y-44370000D01*
X125909605Y-44370000D01*
X127027175Y-45487570D01*
X127314788Y-45364435D01*
X127574707Y-44682266D01*
X127553786Y-43952557D01*
X127314788Y-43375565D01*
X127027175Y-43252430D01*
X125909605Y-44370000D01*
X125550395Y-44370000D01*
X124432825Y-43252430D01*
X124145212Y-43375565D01*
X123885293Y-44057734D01*
X83947000Y-44057734D01*
X83947000Y-43072825D01*
X124612430Y-43072825D01*
X125730000Y-44190395D01*
X126847570Y-43072825D01*
X126724435Y-42785212D01*
X126042266Y-42525293D01*
X125312557Y-42546214D01*
X124735565Y-42785212D01*
X124612430Y-43072825D01*
X83947000Y-43072825D01*
X83947000Y-41937175D01*
X106912430Y-41937175D01*
X107035565Y-42224788D01*
X107717734Y-42484707D01*
X108447443Y-42463786D01*
X109024435Y-42224788D01*
X109147570Y-41937175D01*
X108030000Y-40819605D01*
X106912430Y-41937175D01*
X83947000Y-41937175D01*
X83947000Y-39655750D01*
X87365000Y-39655750D01*
X87365000Y-40396310D01*
X87461673Y-40629699D01*
X87640302Y-40808327D01*
X87873691Y-40905000D01*
X88614250Y-40905000D01*
X88773000Y-40746250D01*
X88773000Y-39497000D01*
X87523750Y-39497000D01*
X87365000Y-39655750D01*
X83947000Y-39655750D01*
X83947000Y-38343690D01*
X87365000Y-38343690D01*
X87365000Y-39084250D01*
X87523750Y-39243000D01*
X88773000Y-39243000D01*
X88773000Y-37993750D01*
X89027000Y-37993750D01*
X89027000Y-39243000D01*
X89047000Y-39243000D01*
X89047000Y-39497000D01*
X89027000Y-39497000D01*
X89027000Y-40746250D01*
X89185750Y-40905000D01*
X89926309Y-40905000D01*
X90159698Y-40808327D01*
X90338327Y-40629699D01*
X90391878Y-40500417D01*
X90822509Y-40788155D01*
X91409928Y-40905000D01*
X91470072Y-40905000D01*
X92057491Y-40788155D01*
X92555481Y-40455409D01*
X92710000Y-40224155D01*
X92864519Y-40455409D01*
X93362509Y-40788155D01*
X93949928Y-40905000D01*
X94010072Y-40905000D01*
X94597491Y-40788155D01*
X95095481Y-40455409D01*
X95428227Y-39957419D01*
X95545072Y-39370000D01*
X95428227Y-38782581D01*
X95386983Y-38720854D01*
X97194457Y-38720854D01*
X97670727Y-39873515D01*
X98551847Y-40756174D01*
X99703674Y-41234454D01*
X100950854Y-41235543D01*
X102103515Y-40759273D01*
X102535807Y-40327734D01*
X106185293Y-40327734D01*
X106206214Y-41057443D01*
X106445212Y-41634435D01*
X106732825Y-41757570D01*
X107850395Y-40640000D01*
X108209605Y-40640000D01*
X109327175Y-41757570D01*
X109614788Y-41634435D01*
X109874707Y-40952266D01*
X109853786Y-40222557D01*
X109614788Y-39645565D01*
X109327175Y-39522430D01*
X108209605Y-40640000D01*
X107850395Y-40640000D01*
X106732825Y-39522430D01*
X106445212Y-39645565D01*
X106185293Y-40327734D01*
X102535807Y-40327734D01*
X102986174Y-39878153D01*
X103208461Y-39342825D01*
X106912430Y-39342825D01*
X108030000Y-40460395D01*
X109050395Y-39440000D01*
X111182560Y-39440000D01*
X111182560Y-41840000D01*
X111226838Y-42075317D01*
X111365910Y-42291441D01*
X111578110Y-42436431D01*
X111830000Y-42487440D01*
X114230000Y-42487440D01*
X114465317Y-42443162D01*
X114681441Y-42304090D01*
X114826431Y-42091890D01*
X114877440Y-41840000D01*
X114877440Y-39440000D01*
X114833162Y-39204683D01*
X114694090Y-38988559D01*
X114481890Y-38843569D01*
X114230000Y-38792560D01*
X111830000Y-38792560D01*
X111594683Y-38836838D01*
X111378559Y-38975910D01*
X111233569Y-39188110D01*
X111182560Y-39440000D01*
X109050395Y-39440000D01*
X109147570Y-39342825D01*
X109024435Y-39055212D01*
X108342266Y-38795293D01*
X107612557Y-38816214D01*
X107035565Y-39055212D01*
X106912430Y-39342825D01*
X103208461Y-39342825D01*
X103464454Y-38726326D01*
X103465543Y-37479146D01*
X102989273Y-36326485D01*
X102108153Y-35443826D01*
X100956326Y-34965546D01*
X99709146Y-34964457D01*
X98556485Y-35440727D01*
X97673826Y-36321847D01*
X97195546Y-37473674D01*
X97194457Y-38720854D01*
X95386983Y-38720854D01*
X95095481Y-38284591D01*
X94597491Y-37951845D01*
X94010072Y-37835000D01*
X93949928Y-37835000D01*
X93362509Y-37951845D01*
X92864519Y-38284591D01*
X92710000Y-38515845D01*
X92555481Y-38284591D01*
X92057491Y-37951845D01*
X91470072Y-37835000D01*
X91409928Y-37835000D01*
X90822509Y-37951845D01*
X90391878Y-38239583D01*
X90338327Y-38110301D01*
X90159698Y-37931673D01*
X89926309Y-37835000D01*
X89185750Y-37835000D01*
X89027000Y-37993750D01*
X88773000Y-37993750D01*
X88614250Y-37835000D01*
X87873691Y-37835000D01*
X87640302Y-37931673D01*
X87461673Y-38110301D01*
X87365000Y-38343690D01*
X83947000Y-38343690D01*
X83947000Y-33147000D01*
X180213000Y-33147000D01*
X180213000Y-129413000D01*
G36*
X120363455Y-111528086D02*
X120879199Y-112044730D01*
X121553395Y-112324681D01*
X122283403Y-112325318D01*
X122958086Y-112046545D01*
X123474730Y-111530801D01*
X123591329Y-111250000D01*
X124145198Y-111250000D01*
X126828790Y-113933592D01*
X126755907Y-114300000D01*
X126868946Y-114868285D01*
X127190853Y-115350054D01*
X127531553Y-115577702D01*
X127388642Y-115644817D01*
X126998355Y-116073076D01*
X126828524Y-116483110D01*
X126949845Y-116713000D01*
X128143000Y-116713000D01*
X128143000Y-116693000D01*
X128397000Y-116693000D01*
X128397000Y-116713000D01*
X128417000Y-116713000D01*
X128417000Y-116967000D01*
X128397000Y-116967000D01*
X128397000Y-116987000D01*
X128143000Y-116987000D01*
X128143000Y-116967000D01*
X126949845Y-116967000D01*
X126828524Y-117196890D01*
X126900165Y-117369859D01*
X126709161Y-117407852D01*
X126462599Y-117572599D01*
X122584059Y-121451139D01*
X121920000Y-121319050D01*
X121217776Y-121458731D01*
X120622459Y-121856509D01*
X120224681Y-122451826D01*
X120085000Y-123154050D01*
X120085000Y-123225950D01*
X120224681Y-123928174D01*
X120622459Y-124523491D01*
X121217776Y-124921269D01*
X121462763Y-124970000D01*
X116027237Y-124970000D01*
X116272224Y-124921269D01*
X116867541Y-124523491D01*
X117265319Y-123928174D01*
X117405000Y-123225950D01*
X117405000Y-123154050D01*
X117265319Y-122451826D01*
X116867541Y-121856509D01*
X116272224Y-121458731D01*
X115570000Y-121319050D01*
X114867776Y-121458731D01*
X114272459Y-121856509D01*
X113874681Y-122451826D01*
X113735000Y-123154050D01*
X113735000Y-123225950D01*
X113874681Y-123928174D01*
X114272459Y-124523491D01*
X114867776Y-124921269D01*
X115112763Y-124970000D01*
X113344802Y-124970000D01*
X109757401Y-121382599D01*
X109510839Y-121217852D01*
X109319835Y-121179859D01*
X109391476Y-121006890D01*
X109270155Y-120777000D01*
X108077000Y-120777000D01*
X108077000Y-120797000D01*
X107823000Y-120797000D01*
X107823000Y-120777000D01*
X107803000Y-120777000D01*
X107803000Y-120523000D01*
X107823000Y-120523000D01*
X107823000Y-120503000D01*
X108077000Y-120503000D01*
X108077000Y-120523000D01*
X109270155Y-120523000D01*
X109391476Y-120293110D01*
X109221645Y-119883076D01*
X108831358Y-119454817D01*
X108688447Y-119387702D01*
X109029147Y-119160054D01*
X109351054Y-118678285D01*
X109464093Y-118110000D01*
X109351054Y-117541715D01*
X109029147Y-117059946D01*
X108699974Y-116840000D01*
X109029147Y-116620054D01*
X109351054Y-116138285D01*
X109464093Y-115570000D01*
X109351054Y-115001715D01*
X109029147Y-114519946D01*
X108987548Y-114492150D01*
X109035317Y-114483162D01*
X109251441Y-114344090D01*
X109396431Y-114131890D01*
X109447440Y-113880000D01*
X109447440Y-113790000D01*
X113030000Y-113790000D01*
X113320839Y-113732148D01*
X113567401Y-113567401D01*
X114925509Y-112209293D01*
X115203395Y-112324681D01*
X115933403Y-112325318D01*
X116608086Y-112046545D01*
X117124730Y-111530801D01*
X117241329Y-111250000D01*
X120248552Y-111250000D01*
X120363455Y-111528086D01*
X120363455Y-111528086D01*
G37*
X120363455Y-111528086D02*
X120879199Y-112044730D01*
X121553395Y-112324681D01*
X122283403Y-112325318D01*
X122958086Y-112046545D01*
X123474730Y-111530801D01*
X123591329Y-111250000D01*
X124145198Y-111250000D01*
X126828790Y-113933592D01*
X126755907Y-114300000D01*
X126868946Y-114868285D01*
X127190853Y-115350054D01*
X127531553Y-115577702D01*
X127388642Y-115644817D01*
X126998355Y-116073076D01*
X126828524Y-116483110D01*
X126949845Y-116713000D01*
X128143000Y-116713000D01*
X128143000Y-116693000D01*
X128397000Y-116693000D01*
X128397000Y-116713000D01*
X128417000Y-116713000D01*
X128417000Y-116967000D01*
X128397000Y-116967000D01*
X128397000Y-116987000D01*
X128143000Y-116987000D01*
X128143000Y-116967000D01*
X126949845Y-116967000D01*
X126828524Y-117196890D01*
X126900165Y-117369859D01*
X126709161Y-117407852D01*
X126462599Y-117572599D01*
X122584059Y-121451139D01*
X121920000Y-121319050D01*
X121217776Y-121458731D01*
X120622459Y-121856509D01*
X120224681Y-122451826D01*
X120085000Y-123154050D01*
X120085000Y-123225950D01*
X120224681Y-123928174D01*
X120622459Y-124523491D01*
X121217776Y-124921269D01*
X121462763Y-124970000D01*
X116027237Y-124970000D01*
X116272224Y-124921269D01*
X116867541Y-124523491D01*
X117265319Y-123928174D01*
X117405000Y-123225950D01*
X117405000Y-123154050D01*
X117265319Y-122451826D01*
X116867541Y-121856509D01*
X116272224Y-121458731D01*
X115570000Y-121319050D01*
X114867776Y-121458731D01*
X114272459Y-121856509D01*
X113874681Y-122451826D01*
X113735000Y-123154050D01*
X113735000Y-123225950D01*
X113874681Y-123928174D01*
X114272459Y-124523491D01*
X114867776Y-124921269D01*
X115112763Y-124970000D01*
X113344802Y-124970000D01*
X109757401Y-121382599D01*
X109510839Y-121217852D01*
X109319835Y-121179859D01*
X109391476Y-121006890D01*
X109270155Y-120777000D01*
X108077000Y-120777000D01*
X108077000Y-120797000D01*
X107823000Y-120797000D01*
X107823000Y-120777000D01*
X107803000Y-120777000D01*
X107803000Y-120523000D01*
X107823000Y-120523000D01*
X107823000Y-120503000D01*
X108077000Y-120503000D01*
X108077000Y-120523000D01*
X109270155Y-120523000D01*
X109391476Y-120293110D01*
X109221645Y-119883076D01*
X108831358Y-119454817D01*
X108688447Y-119387702D01*
X109029147Y-119160054D01*
X109351054Y-118678285D01*
X109464093Y-118110000D01*
X109351054Y-117541715D01*
X109029147Y-117059946D01*
X108699974Y-116840000D01*
X109029147Y-116620054D01*
X109351054Y-116138285D01*
X109464093Y-115570000D01*
X109351054Y-115001715D01*
X109029147Y-114519946D01*
X108987548Y-114492150D01*
X109035317Y-114483162D01*
X109251441Y-114344090D01*
X109396431Y-114131890D01*
X109447440Y-113880000D01*
X109447440Y-113790000D01*
X113030000Y-113790000D01*
X113320839Y-113732148D01*
X113567401Y-113567401D01*
X114925509Y-112209293D01*
X115203395Y-112324681D01*
X115933403Y-112325318D01*
X116608086Y-112046545D01*
X117124730Y-111530801D01*
X117241329Y-111250000D01*
X120248552Y-111250000D01*
X120363455Y-111528086D01*
G36*
X100543618Y-100330186D02*
X100244297Y-100628986D01*
X100219766Y-100619839D01*
X99239605Y-101600000D01*
X100219766Y-102580161D01*
X100244786Y-102570832D01*
X100666966Y-102993750D01*
X101271354Y-103244713D01*
X101925775Y-103245284D01*
X102530600Y-102995376D01*
X102870186Y-102656382D01*
X103206966Y-102993750D01*
X103811354Y-103244713D01*
X104465775Y-103245284D01*
X105070600Y-102995376D01*
X105410186Y-102656382D01*
X105746966Y-102993750D01*
X105962411Y-103083210D01*
X105977852Y-103160839D01*
X106142599Y-103407401D01*
X107385198Y-104650000D01*
X106994802Y-104650000D01*
X105947401Y-103602599D01*
X105700839Y-103437852D01*
X105410000Y-103380000D01*
X98104802Y-103380000D01*
X97484568Y-102759766D01*
X98079839Y-102759766D01*
X98179726Y-103027658D01*
X98793074Y-103255851D01*
X99447059Y-103231956D01*
X99940274Y-103027658D01*
X100040161Y-102759766D01*
X99060000Y-101779605D01*
X98079839Y-102759766D01*
X97484568Y-102759766D01*
X97280000Y-102555198D01*
X97280000Y-101333074D01*
X97404149Y-101333074D01*
X97428044Y-101987059D01*
X97632342Y-102480274D01*
X97900234Y-102580161D01*
X98880395Y-101600000D01*
X97900234Y-100619839D01*
X97632342Y-100719726D01*
X97404149Y-101333074D01*
X97280000Y-101333074D01*
X97280000Y-100644802D01*
X97799295Y-100125507D01*
X98088986Y-100415703D01*
X98079839Y-100440234D01*
X99060000Y-101420395D01*
X100040161Y-100440234D01*
X100030832Y-100415214D01*
X100330186Y-100116382D01*
X100543618Y-100330186D01*
X100543618Y-100330186D01*
G37*
X100543618Y-100330186D02*
X100244297Y-100628986D01*
X100219766Y-100619839D01*
X99239605Y-101600000D01*
X100219766Y-102580161D01*
X100244786Y-102570832D01*
X100666966Y-102993750D01*
X101271354Y-103244713D01*
X101925775Y-103245284D01*
X102530600Y-102995376D01*
X102870186Y-102656382D01*
X103206966Y-102993750D01*
X103811354Y-103244713D01*
X104465775Y-103245284D01*
X105070600Y-102995376D01*
X105410186Y-102656382D01*
X105746966Y-102993750D01*
X105962411Y-103083210D01*
X105977852Y-103160839D01*
X106142599Y-103407401D01*
X107385198Y-104650000D01*
X106994802Y-104650000D01*
X105947401Y-103602599D01*
X105700839Y-103437852D01*
X105410000Y-103380000D01*
X98104802Y-103380000D01*
X97484568Y-102759766D01*
X98079839Y-102759766D01*
X98179726Y-103027658D01*
X98793074Y-103255851D01*
X99447059Y-103231956D01*
X99940274Y-103027658D01*
X100040161Y-102759766D01*
X99060000Y-101779605D01*
X98079839Y-102759766D01*
X97484568Y-102759766D01*
X97280000Y-102555198D01*
X97280000Y-101333074D01*
X97404149Y-101333074D01*
X97428044Y-101987059D01*
X97632342Y-102480274D01*
X97900234Y-102580161D01*
X98880395Y-101600000D01*
X97900234Y-100619839D01*
X97632342Y-100719726D01*
X97404149Y-101333074D01*
X97280000Y-101333074D01*
X97280000Y-100644802D01*
X97799295Y-100125507D01*
X98088986Y-100415703D01*
X98079839Y-100440234D01*
X99060000Y-101420395D01*
X100040161Y-100440234D01*
X100030832Y-100415214D01*
X100330186Y-100116382D01*
X100543618Y-100330186D01*
G36*
X94547852Y-67600839D02*
X94712599Y-67847401D01*
X96328084Y-69462886D01*
X96291661Y-69550602D01*
X96291141Y-70146782D01*
X96518808Y-70697780D01*
X96940003Y-71119710D01*
X96940931Y-71120095D01*
X96520290Y-71540003D01*
X96291661Y-72090602D01*
X96291141Y-72686782D01*
X96518808Y-73237780D01*
X96940003Y-73659710D01*
X96940931Y-73660095D01*
X96520290Y-74080003D01*
X96291661Y-74630602D01*
X96291141Y-75226782D01*
X96518808Y-75777780D01*
X96940003Y-76199710D01*
X96940931Y-76200095D01*
X96520290Y-76620003D01*
X96291661Y-77170602D01*
X96291141Y-77766782D01*
X96328354Y-77856844D01*
X94935198Y-79250000D01*
X90930000Y-79250000D01*
X90930000Y-76764802D01*
X91774878Y-77609680D01*
X91774838Y-77655167D01*
X91916883Y-77998943D01*
X92179673Y-78262192D01*
X92523201Y-78404838D01*
X92895167Y-78405162D01*
X93238943Y-78263117D01*
X93502192Y-78000327D01*
X93644838Y-77656799D01*
X93645162Y-77284833D01*
X93503117Y-76941057D01*
X93240327Y-76677808D01*
X92896799Y-76535162D01*
X92849923Y-76535121D01*
X92200000Y-75885198D01*
X92200000Y-73407189D01*
X92483244Y-73524803D01*
X92934775Y-73525197D01*
X93144730Y-73438445D01*
X93353691Y-73525000D01*
X93694250Y-73525000D01*
X93853000Y-73366250D01*
X93853000Y-72517000D01*
X94107000Y-72517000D01*
X94107000Y-73366250D01*
X94265750Y-73525000D01*
X94606309Y-73525000D01*
X94839698Y-73428327D01*
X95018327Y-73249699D01*
X95115000Y-73016310D01*
X95115000Y-72675750D01*
X94956250Y-72517000D01*
X94107000Y-72517000D01*
X93853000Y-72517000D01*
X93844890Y-72517000D01*
X93845112Y-72263000D01*
X93853000Y-72263000D01*
X93853000Y-71413750D01*
X94107000Y-71413750D01*
X94107000Y-72263000D01*
X94956250Y-72263000D01*
X95115000Y-72104250D01*
X95115000Y-71763690D01*
X95018327Y-71530301D01*
X94839698Y-71351673D01*
X94606309Y-71255000D01*
X94265750Y-71255000D01*
X94107000Y-71413750D01*
X93853000Y-71413750D01*
X93694250Y-71255000D01*
X93470000Y-71255000D01*
X93470000Y-68981448D01*
X93748086Y-68866545D01*
X94264730Y-68350801D01*
X94544681Y-67676605D01*
X94544761Y-67585298D01*
X94547852Y-67600839D01*
X94547852Y-67600839D01*
G37*
X94547852Y-67600839D02*
X94712599Y-67847401D01*
X96328084Y-69462886D01*
X96291661Y-69550602D01*
X96291141Y-70146782D01*
X96518808Y-70697780D01*
X96940003Y-71119710D01*
X96940931Y-71120095D01*
X96520290Y-71540003D01*
X96291661Y-72090602D01*
X96291141Y-72686782D01*
X96518808Y-73237780D01*
X96940003Y-73659710D01*
X96940931Y-73660095D01*
X96520290Y-74080003D01*
X96291661Y-74630602D01*
X96291141Y-75226782D01*
X96518808Y-75777780D01*
X96940003Y-76199710D01*
X96940931Y-76200095D01*
X96520290Y-76620003D01*
X96291661Y-77170602D01*
X96291141Y-77766782D01*
X96328354Y-77856844D01*
X94935198Y-79250000D01*
X90930000Y-79250000D01*
X90930000Y-76764802D01*
X91774878Y-77609680D01*
X91774838Y-77655167D01*
X91916883Y-77998943D01*
X92179673Y-78262192D01*
X92523201Y-78404838D01*
X92895167Y-78405162D01*
X93238943Y-78263117D01*
X93502192Y-78000327D01*
X93644838Y-77656799D01*
X93645162Y-77284833D01*
X93503117Y-76941057D01*
X93240327Y-76677808D01*
X92896799Y-76535162D01*
X92849923Y-76535121D01*
X92200000Y-75885198D01*
X92200000Y-73407189D01*
X92483244Y-73524803D01*
X92934775Y-73525197D01*
X93144730Y-73438445D01*
X93353691Y-73525000D01*
X93694250Y-73525000D01*
X93853000Y-73366250D01*
X93853000Y-72517000D01*
X94107000Y-72517000D01*
X94107000Y-73366250D01*
X94265750Y-73525000D01*
X94606309Y-73525000D01*
X94839698Y-73428327D01*
X95018327Y-73249699D01*
X95115000Y-73016310D01*
X95115000Y-72675750D01*
X94956250Y-72517000D01*
X94107000Y-72517000D01*
X93853000Y-72517000D01*
X93844890Y-72517000D01*
X93845112Y-72263000D01*
X93853000Y-72263000D01*
X93853000Y-71413750D01*
X94107000Y-71413750D01*
X94107000Y-72263000D01*
X94956250Y-72263000D01*
X95115000Y-72104250D01*
X95115000Y-71763690D01*
X95018327Y-71530301D01*
X94839698Y-71351673D01*
X94606309Y-71255000D01*
X94265750Y-71255000D01*
X94107000Y-71413750D01*
X93853000Y-71413750D01*
X93694250Y-71255000D01*
X93470000Y-71255000D01*
X93470000Y-68981448D01*
X93748086Y-68866545D01*
X94264730Y-68350801D01*
X94544681Y-67676605D01*
X94544761Y-67585298D01*
X94547852Y-67600839D01*
G36*
X149987000Y-36703000D02*
X150007000Y-36703000D01*
X150007000Y-36957000D01*
X149987000Y-36957000D01*
X149987000Y-38200997D01*
X150224742Y-38321046D01*
X150397910Y-38240312D01*
X150427852Y-38390839D01*
X150592599Y-38637401D01*
X152910000Y-40954802D01*
X152910000Y-56772560D01*
X152670000Y-56772560D01*
X152434683Y-56816838D01*
X152218559Y-56955910D01*
X152073569Y-57168110D01*
X152022560Y-57420000D01*
X152022560Y-59420000D01*
X152066838Y-59655317D01*
X152205910Y-59871441D01*
X152348561Y-59968910D01*
X152284722Y-60032637D01*
X152198591Y-60240063D01*
X152109160Y-60257852D01*
X151862599Y-60422599D01*
X150592599Y-61692599D01*
X150427852Y-61939161D01*
X150370000Y-62230000D01*
X150370000Y-63185198D01*
X148721916Y-64833282D01*
X148701362Y-64422632D01*
X148542397Y-64038857D01*
X148300213Y-63969392D01*
X147499605Y-64770000D01*
X147513748Y-64784143D01*
X147334143Y-64963748D01*
X147320000Y-64949605D01*
X147305858Y-64963748D01*
X147126253Y-64784143D01*
X147140395Y-64770000D01*
X146339787Y-63969392D01*
X146097603Y-64038857D01*
X145910856Y-64562302D01*
X145938638Y-65117368D01*
X146006002Y-65280000D01*
X137191293Y-65280000D01*
X137299144Y-64977698D01*
X137271362Y-64422632D01*
X137200648Y-64251914D01*
X137450839Y-64202148D01*
X137697401Y-64037401D01*
X143824802Y-57910000D01*
X146122469Y-57910000D01*
X146134990Y-57940303D01*
X146527630Y-58333629D01*
X146735512Y-58419949D01*
X146529697Y-58504990D01*
X146136371Y-58897630D01*
X145923243Y-59410900D01*
X145922758Y-59966661D01*
X146134990Y-60480303D01*
X146527630Y-60873629D01*
X146735512Y-60959949D01*
X146529697Y-61044990D01*
X146136371Y-61437630D01*
X145923243Y-61950900D01*
X145922758Y-62506661D01*
X146134990Y-63020303D01*
X146527630Y-63413629D01*
X146719727Y-63493395D01*
X146588857Y-63547603D01*
X146519392Y-63789787D01*
X147320000Y-64590395D01*
X148120608Y-63789787D01*
X148051143Y-63547603D01*
X147910682Y-63497491D01*
X148110303Y-63415010D01*
X148503629Y-63022370D01*
X148716757Y-62509100D01*
X148717242Y-61953339D01*
X148505010Y-61439697D01*
X148112370Y-61046371D01*
X147904488Y-60960051D01*
X148110303Y-60875010D01*
X148503629Y-60482370D01*
X148716757Y-59969100D01*
X148717242Y-59413339D01*
X148505010Y-58899697D01*
X148112370Y-58506371D01*
X147904488Y-58420051D01*
X148110303Y-58335010D01*
X148503629Y-57942370D01*
X148716757Y-57429100D01*
X148717242Y-56873339D01*
X148505010Y-56359697D01*
X148112370Y-55966371D01*
X147904488Y-55880051D01*
X148110303Y-55795010D01*
X148503629Y-55402370D01*
X148716757Y-54889100D01*
X148717242Y-54333339D01*
X148505010Y-53819697D01*
X148112370Y-53426371D01*
X147599100Y-53213243D01*
X147043339Y-53212758D01*
X146529697Y-53424990D01*
X146136371Y-53817630D01*
X146122930Y-53850000D01*
X142554802Y-53850000D01*
X139596372Y-50891570D01*
X140053454Y-50869778D01*
X140454005Y-50703864D01*
X140528139Y-50457745D01*
X139700000Y-49629605D01*
X139685858Y-49643748D01*
X139506253Y-49464143D01*
X139520395Y-49450000D01*
X139879605Y-49450000D01*
X140707745Y-50278139D01*
X140953864Y-50204005D01*
X141146965Y-49666777D01*
X141119778Y-49096546D01*
X140953864Y-48695995D01*
X140707745Y-48621861D01*
X139879605Y-49450000D01*
X139520395Y-49450000D01*
X139506253Y-49435858D01*
X139685858Y-49256252D01*
X139700000Y-49270395D01*
X140361355Y-48609039D01*
X146248096Y-48609039D01*
X146408959Y-48997423D01*
X146784866Y-49412389D01*
X147290959Y-49651914D01*
X147513000Y-49530629D01*
X147513000Y-48387000D01*
X147767000Y-48387000D01*
X147767000Y-49530629D01*
X147989041Y-49651914D01*
X148495134Y-49412389D01*
X148871041Y-48997423D01*
X149031904Y-48609039D01*
X148909915Y-48387000D01*
X147767000Y-48387000D01*
X147513000Y-48387000D01*
X146370085Y-48387000D01*
X146248096Y-48609039D01*
X140361355Y-48609039D01*
X140528139Y-48442255D01*
X140454005Y-48196136D01*
X139916777Y-48003035D01*
X139346546Y-48030222D01*
X139190000Y-48095066D01*
X139190000Y-47910961D01*
X146248096Y-47910961D01*
X146370085Y-48133000D01*
X147513000Y-48133000D01*
X147513000Y-46989371D01*
X147767000Y-46989371D01*
X147767000Y-48133000D01*
X148909915Y-48133000D01*
X149031904Y-47910961D01*
X148871041Y-47522577D01*
X148495134Y-47107611D01*
X147989041Y-46868086D01*
X147767000Y-46989371D01*
X147513000Y-46989371D01*
X147290959Y-46868086D01*
X146784866Y-47107611D01*
X146408959Y-47522577D01*
X146248096Y-47910961D01*
X139190000Y-47910961D01*
X139190000Y-45897440D01*
X140500000Y-45897440D01*
X140735317Y-45853162D01*
X140951441Y-45714090D01*
X141096431Y-45501890D01*
X141147440Y-45250000D01*
X141147440Y-43650000D01*
X141103162Y-43414683D01*
X140964090Y-43198559D01*
X140751890Y-43053569D01*
X140500000Y-43002560D01*
X139682242Y-43002560D01*
X140237401Y-42447401D01*
X140402148Y-42200840D01*
X140460000Y-41910000D01*
X140460000Y-40377745D01*
X141331861Y-40377745D01*
X141405995Y-40623864D01*
X141943223Y-40816965D01*
X142513454Y-40789778D01*
X142914005Y-40623864D01*
X142988139Y-40377745D01*
X142160000Y-39549605D01*
X141331861Y-40377745D01*
X140460000Y-40377745D01*
X140460000Y-39684802D01*
X140725711Y-39419091D01*
X140740222Y-39723454D01*
X140906136Y-40124005D01*
X141152255Y-40198139D01*
X141980395Y-39370000D01*
X142339605Y-39370000D01*
X143167745Y-40198139D01*
X143413864Y-40124005D01*
X143606965Y-39586777D01*
X143579778Y-39016546D01*
X143413864Y-38615995D01*
X143167745Y-38541861D01*
X142339605Y-39370000D01*
X141980395Y-39370000D01*
X141966252Y-39355858D01*
X142145858Y-39176252D01*
X142160000Y-39190395D01*
X142988139Y-38362255D01*
X142914005Y-38116136D01*
X142376777Y-37923035D01*
X142214007Y-37930795D01*
X142554802Y-37590000D01*
X144780000Y-37590000D01*
X145070839Y-37532148D01*
X145317401Y-37367401D01*
X145772560Y-36912242D01*
X145772560Y-37730000D01*
X145816838Y-37965317D01*
X145955910Y-38181441D01*
X146168110Y-38326431D01*
X146420000Y-38377440D01*
X148220000Y-38377440D01*
X148455317Y-38333162D01*
X148671441Y-38194090D01*
X148816431Y-37981890D01*
X148826766Y-37930854D01*
X148952424Y-38067966D01*
X149495258Y-38321046D01*
X149733000Y-38200997D01*
X149733000Y-36957000D01*
X149713000Y-36957000D01*
X149713000Y-36703000D01*
X149733000Y-36703000D01*
X149733000Y-36683000D01*
X149987000Y-36683000D01*
X149987000Y-36703000D01*
X149987000Y-36703000D01*
G37*
X149987000Y-36703000D02*
X150007000Y-36703000D01*
X150007000Y-36957000D01*
X149987000Y-36957000D01*
X149987000Y-38200997D01*
X150224742Y-38321046D01*
X150397910Y-38240312D01*
X150427852Y-38390839D01*
X150592599Y-38637401D01*
X152910000Y-40954802D01*
X152910000Y-56772560D01*
X152670000Y-56772560D01*
X152434683Y-56816838D01*
X152218559Y-56955910D01*
X152073569Y-57168110D01*
X152022560Y-57420000D01*
X152022560Y-59420000D01*
X152066838Y-59655317D01*
X152205910Y-59871441D01*
X152348561Y-59968910D01*
X152284722Y-60032637D01*
X152198591Y-60240063D01*
X152109160Y-60257852D01*
X151862599Y-60422599D01*
X150592599Y-61692599D01*
X150427852Y-61939161D01*
X150370000Y-62230000D01*
X150370000Y-63185198D01*
X148721916Y-64833282D01*
X148701362Y-64422632D01*
X148542397Y-64038857D01*
X148300213Y-63969392D01*
X147499605Y-64770000D01*
X147513748Y-64784143D01*
X147334143Y-64963748D01*
X147320000Y-64949605D01*
X147305858Y-64963748D01*
X147126253Y-64784143D01*
X147140395Y-64770000D01*
X146339787Y-63969392D01*
X146097603Y-64038857D01*
X145910856Y-64562302D01*
X145938638Y-65117368D01*
X146006002Y-65280000D01*
X137191293Y-65280000D01*
X137299144Y-64977698D01*
X137271362Y-64422632D01*
X137200648Y-64251914D01*
X137450839Y-64202148D01*
X137697401Y-64037401D01*
X143824802Y-57910000D01*
X146122469Y-57910000D01*
X146134990Y-57940303D01*
X146527630Y-58333629D01*
X146735512Y-58419949D01*
X146529697Y-58504990D01*
X146136371Y-58897630D01*
X145923243Y-59410900D01*
X145922758Y-59966661D01*
X146134990Y-60480303D01*
X146527630Y-60873629D01*
X146735512Y-60959949D01*
X146529697Y-61044990D01*
X146136371Y-61437630D01*
X145923243Y-61950900D01*
X145922758Y-62506661D01*
X146134990Y-63020303D01*
X146527630Y-63413629D01*
X146719727Y-63493395D01*
X146588857Y-63547603D01*
X146519392Y-63789787D01*
X147320000Y-64590395D01*
X148120608Y-63789787D01*
X148051143Y-63547603D01*
X147910682Y-63497491D01*
X148110303Y-63415010D01*
X148503629Y-63022370D01*
X148716757Y-62509100D01*
X148717242Y-61953339D01*
X148505010Y-61439697D01*
X148112370Y-61046371D01*
X147904488Y-60960051D01*
X148110303Y-60875010D01*
X148503629Y-60482370D01*
X148716757Y-59969100D01*
X148717242Y-59413339D01*
X148505010Y-58899697D01*
X148112370Y-58506371D01*
X147904488Y-58420051D01*
X148110303Y-58335010D01*
X148503629Y-57942370D01*
X148716757Y-57429100D01*
X148717242Y-56873339D01*
X148505010Y-56359697D01*
X148112370Y-55966371D01*
X147904488Y-55880051D01*
X148110303Y-55795010D01*
X148503629Y-55402370D01*
X148716757Y-54889100D01*
X148717242Y-54333339D01*
X148505010Y-53819697D01*
X148112370Y-53426371D01*
X147599100Y-53213243D01*
X147043339Y-53212758D01*
X146529697Y-53424990D01*
X146136371Y-53817630D01*
X146122930Y-53850000D01*
X142554802Y-53850000D01*
X139596372Y-50891570D01*
X140053454Y-50869778D01*
X140454005Y-50703864D01*
X140528139Y-50457745D01*
X139700000Y-49629605D01*
X139685858Y-49643748D01*
X139506253Y-49464143D01*
X139520395Y-49450000D01*
X139879605Y-49450000D01*
X140707745Y-50278139D01*
X140953864Y-50204005D01*
X141146965Y-49666777D01*
X141119778Y-49096546D01*
X140953864Y-48695995D01*
X140707745Y-48621861D01*
X139879605Y-49450000D01*
X139520395Y-49450000D01*
X139506253Y-49435858D01*
X139685858Y-49256252D01*
X139700000Y-49270395D01*
X140361355Y-48609039D01*
X146248096Y-48609039D01*
X146408959Y-48997423D01*
X146784866Y-49412389D01*
X147290959Y-49651914D01*
X147513000Y-49530629D01*
X147513000Y-48387000D01*
X147767000Y-48387000D01*
X147767000Y-49530629D01*
X147989041Y-49651914D01*
X148495134Y-49412389D01*
X148871041Y-48997423D01*
X149031904Y-48609039D01*
X148909915Y-48387000D01*
X147767000Y-48387000D01*
X147513000Y-48387000D01*
X146370085Y-48387000D01*
X146248096Y-48609039D01*
X140361355Y-48609039D01*
X140528139Y-48442255D01*
X140454005Y-48196136D01*
X139916777Y-48003035D01*
X139346546Y-48030222D01*
X139190000Y-48095066D01*
X139190000Y-47910961D01*
X146248096Y-47910961D01*
X146370085Y-48133000D01*
X147513000Y-48133000D01*
X147513000Y-46989371D01*
X147767000Y-46989371D01*
X147767000Y-48133000D01*
X148909915Y-48133000D01*
X149031904Y-47910961D01*
X148871041Y-47522577D01*
X148495134Y-47107611D01*
X147989041Y-46868086D01*
X147767000Y-46989371D01*
X147513000Y-46989371D01*
X147290959Y-46868086D01*
X146784866Y-47107611D01*
X146408959Y-47522577D01*
X146248096Y-47910961D01*
X139190000Y-47910961D01*
X139190000Y-45897440D01*
X140500000Y-45897440D01*
X140735317Y-45853162D01*
X140951441Y-45714090D01*
X141096431Y-45501890D01*
X141147440Y-45250000D01*
X141147440Y-43650000D01*
X141103162Y-43414683D01*
X140964090Y-43198559D01*
X140751890Y-43053569D01*
X140500000Y-43002560D01*
X139682242Y-43002560D01*
X140237401Y-42447401D01*
X140402148Y-42200840D01*
X140460000Y-41910000D01*
X140460000Y-40377745D01*
X141331861Y-40377745D01*
X141405995Y-40623864D01*
X141943223Y-40816965D01*
X142513454Y-40789778D01*
X142914005Y-40623864D01*
X142988139Y-40377745D01*
X142160000Y-39549605D01*
X141331861Y-40377745D01*
X140460000Y-40377745D01*
X140460000Y-39684802D01*
X140725711Y-39419091D01*
X140740222Y-39723454D01*
X140906136Y-40124005D01*
X141152255Y-40198139D01*
X141980395Y-39370000D01*
X142339605Y-39370000D01*
X143167745Y-40198139D01*
X143413864Y-40124005D01*
X143606965Y-39586777D01*
X143579778Y-39016546D01*
X143413864Y-38615995D01*
X143167745Y-38541861D01*
X142339605Y-39370000D01*
X141980395Y-39370000D01*
X141966252Y-39355858D01*
X142145858Y-39176252D01*
X142160000Y-39190395D01*
X142988139Y-38362255D01*
X142914005Y-38116136D01*
X142376777Y-37923035D01*
X142214007Y-37930795D01*
X142554802Y-37590000D01*
X144780000Y-37590000D01*
X145070839Y-37532148D01*
X145317401Y-37367401D01*
X145772560Y-36912242D01*
X145772560Y-37730000D01*
X145816838Y-37965317D01*
X145955910Y-38181441D01*
X146168110Y-38326431D01*
X146420000Y-38377440D01*
X148220000Y-38377440D01*
X148455317Y-38333162D01*
X148671441Y-38194090D01*
X148816431Y-37981890D01*
X148826766Y-37930854D01*
X148952424Y-38067966D01*
X149495258Y-38321046D01*
X149733000Y-38200997D01*
X149733000Y-36957000D01*
X149713000Y-36957000D01*
X149713000Y-36703000D01*
X149733000Y-36703000D01*
X149733000Y-36683000D01*
X149987000Y-36683000D01*
X149987000Y-36703000D01*
G36*
X136083748Y-64755858D02*
X136069605Y-64770000D01*
X136083748Y-64784143D01*
X135904143Y-64963748D01*
X135890000Y-64949605D01*
X135875858Y-64963748D01*
X135696253Y-64784143D01*
X135710395Y-64770000D01*
X135696253Y-64755858D01*
X135875858Y-64576253D01*
X135890000Y-64590395D01*
X135904143Y-64576253D01*
X136083748Y-64755858D01*
X136083748Y-64755858D01*
G37*
X136083748Y-64755858D02*
X136069605Y-64770000D01*
X136083748Y-64784143D01*
X135904143Y-64963748D01*
X135890000Y-64949605D01*
X135875858Y-64963748D01*
X135696253Y-64784143D01*
X135710395Y-64770000D01*
X135696253Y-64755858D01*
X135875858Y-64576253D01*
X135890000Y-64590395D01*
X135904143Y-64576253D01*
X136083748Y-64755858D01*
M02*
