%TF.GenerationSoftware,KiCad,Pcbnew,4.0.7*%
%TF.CreationDate,2018-09-08T06:02:45+02:00*%
%TF.ProjectId,BrauNxGen,427261754E7847656E2E6B696361645F,rev?*%
%TF.FileFunction,Legend,Top*%
%FSLAX46Y46*%
G04 Gerber Fmt 4.6, Leading zero omitted, Abs format (unit mm)*
G04 Created by KiCad (PCBNEW 4.0.7) date 09/08/18 06:02:45*
%MOMM*%
%LPD*%
G01*
G04 APERTURE LIST*
%ADD10C,0.100000*%
%ADD11C,0.150000*%
%ADD12C,0.120000*%
%ADD13C,0.075000*%
G04 APERTURE END LIST*
D10*
D11*
X82550000Y-130810000D02*
X82550000Y-31750000D01*
X181610000Y-130810000D02*
X82550000Y-130810000D01*
X82550000Y-31750000D02*
X181610000Y-31750000D01*
X181610000Y-130810000D02*
X181610000Y-31750000D01*
X109474000Y-50800000D02*
X109474000Y-49350000D01*
X109474000Y-49350000D02*
X101346000Y-49350000D01*
X101346000Y-49350000D02*
X101346000Y-50800000D01*
X114300000Y-93980000D02*
X96520000Y-93980000D01*
X114300000Y-50800000D02*
X96520000Y-50800000D01*
X96520000Y-93980000D02*
X96520000Y-50800000D01*
X114300000Y-93980000D02*
X114300000Y-50800000D01*
D12*
X165980000Y-123300000D02*
X165980000Y-118080000D01*
X169300000Y-123300000D02*
X169300000Y-118080000D01*
X165980000Y-123300000D02*
X166644000Y-123300000D01*
X168636000Y-123300000D02*
X169300000Y-123300000D01*
X165980000Y-118080000D02*
X166644000Y-118080000D01*
X168636000Y-118080000D02*
X169300000Y-118080000D01*
X163700000Y-52070000D02*
X163700000Y-44450000D01*
X163700000Y-44450000D02*
X151580000Y-44450000D01*
X151580000Y-44450000D02*
X151580000Y-52070000D01*
X151580000Y-52070000D02*
X163700000Y-52070000D01*
X166660000Y-48260000D02*
X163700000Y-48260000D01*
X148620000Y-48260000D02*
X151580000Y-48260000D01*
X117120000Y-40640000D02*
G75*
G03X117120000Y-40640000I-6590000J0D01*
G01*
X110530000Y-47190000D02*
X110530000Y-34090000D01*
X110490000Y-47190000D02*
X110490000Y-34090000D01*
X110450000Y-47190000D02*
X110450000Y-34090000D01*
X110410000Y-47189000D02*
X110410000Y-34091000D01*
X110370000Y-47189000D02*
X110370000Y-34091000D01*
X110330000Y-47187000D02*
X110330000Y-34093000D01*
X110290000Y-47186000D02*
X110290000Y-34094000D01*
X110250000Y-47185000D02*
X110250000Y-34095000D01*
X110210000Y-47183000D02*
X110210000Y-34097000D01*
X110170000Y-47181000D02*
X110170000Y-34099000D01*
X110130000Y-47178000D02*
X110130000Y-34102000D01*
X110090000Y-47176000D02*
X110090000Y-34104000D01*
X110050000Y-47173000D02*
X110050000Y-34107000D01*
X110010000Y-47170000D02*
X110010000Y-34110000D01*
X109970000Y-47167000D02*
X109970000Y-34113000D01*
X109930000Y-47163000D02*
X109930000Y-34117000D01*
X109890000Y-47159000D02*
X109890000Y-34121000D01*
X109850000Y-47155000D02*
X109850000Y-34125000D01*
X109809000Y-47151000D02*
X109809000Y-34129000D01*
X109769000Y-47147000D02*
X109769000Y-34133000D01*
X109729000Y-47142000D02*
X109729000Y-34138000D01*
X109689000Y-47137000D02*
X109689000Y-34143000D01*
X109649000Y-47131000D02*
X109649000Y-34149000D01*
X109609000Y-47126000D02*
X109609000Y-34154000D01*
X109569000Y-47120000D02*
X109569000Y-34160000D01*
X109529000Y-47114000D02*
X109529000Y-34166000D01*
X109489000Y-47108000D02*
X109489000Y-34172000D01*
X109449000Y-47101000D02*
X109449000Y-34179000D01*
X109409000Y-47095000D02*
X109409000Y-42020000D01*
X109409000Y-39260000D02*
X109409000Y-34185000D01*
X109369000Y-47088000D02*
X109369000Y-42020000D01*
X109369000Y-39260000D02*
X109369000Y-34192000D01*
X109329000Y-47080000D02*
X109329000Y-42020000D01*
X109329000Y-39260000D02*
X109329000Y-34200000D01*
X109289000Y-47073000D02*
X109289000Y-42020000D01*
X109289000Y-39260000D02*
X109289000Y-34207000D01*
X109249000Y-47065000D02*
X109249000Y-42020000D01*
X109249000Y-39260000D02*
X109249000Y-34215000D01*
X109209000Y-47057000D02*
X109209000Y-42020000D01*
X109209000Y-39260000D02*
X109209000Y-34223000D01*
X109169000Y-47049000D02*
X109169000Y-42020000D01*
X109169000Y-39260000D02*
X109169000Y-34231000D01*
X109129000Y-47040000D02*
X109129000Y-42020000D01*
X109129000Y-39260000D02*
X109129000Y-34240000D01*
X109089000Y-47031000D02*
X109089000Y-42020000D01*
X109089000Y-39260000D02*
X109089000Y-34249000D01*
X109049000Y-47022000D02*
X109049000Y-42020000D01*
X109049000Y-39260000D02*
X109049000Y-34258000D01*
X109009000Y-47013000D02*
X109009000Y-42020000D01*
X109009000Y-39260000D02*
X109009000Y-34267000D01*
X108969000Y-47003000D02*
X108969000Y-42020000D01*
X108969000Y-39260000D02*
X108969000Y-34277000D01*
X108929000Y-46993000D02*
X108929000Y-42020000D01*
X108929000Y-39260000D02*
X108929000Y-34287000D01*
X108889000Y-46983000D02*
X108889000Y-42020000D01*
X108889000Y-39260000D02*
X108889000Y-34297000D01*
X108849000Y-46973000D02*
X108849000Y-42020000D01*
X108849000Y-39260000D02*
X108849000Y-34307000D01*
X108809000Y-46962000D02*
X108809000Y-42020000D01*
X108809000Y-39260000D02*
X108809000Y-34318000D01*
X108769000Y-46951000D02*
X108769000Y-42020000D01*
X108769000Y-39260000D02*
X108769000Y-34329000D01*
X108729000Y-46940000D02*
X108729000Y-42020000D01*
X108729000Y-39260000D02*
X108729000Y-34340000D01*
X108689000Y-46928000D02*
X108689000Y-42020000D01*
X108689000Y-39260000D02*
X108689000Y-34352000D01*
X108649000Y-46917000D02*
X108649000Y-42020000D01*
X108649000Y-39260000D02*
X108649000Y-34363000D01*
X108609000Y-46905000D02*
X108609000Y-42020000D01*
X108609000Y-39260000D02*
X108609000Y-34375000D01*
X108569000Y-46892000D02*
X108569000Y-42020000D01*
X108569000Y-39260000D02*
X108569000Y-34388000D01*
X108529000Y-46880000D02*
X108529000Y-42020000D01*
X108529000Y-39260000D02*
X108529000Y-34400000D01*
X108489000Y-46867000D02*
X108489000Y-42020000D01*
X108489000Y-39260000D02*
X108489000Y-34413000D01*
X108449000Y-46854000D02*
X108449000Y-42020000D01*
X108449000Y-39260000D02*
X108449000Y-34426000D01*
X108409000Y-46840000D02*
X108409000Y-42020000D01*
X108409000Y-39260000D02*
X108409000Y-34440000D01*
X108369000Y-46826000D02*
X108369000Y-42020000D01*
X108369000Y-39260000D02*
X108369000Y-34454000D01*
X108329000Y-46812000D02*
X108329000Y-42020000D01*
X108329000Y-39260000D02*
X108329000Y-34468000D01*
X108289000Y-46798000D02*
X108289000Y-42020000D01*
X108289000Y-39260000D02*
X108289000Y-34482000D01*
X108249000Y-46784000D02*
X108249000Y-42020000D01*
X108249000Y-39260000D02*
X108249000Y-34496000D01*
X108209000Y-46769000D02*
X108209000Y-42020000D01*
X108209000Y-39260000D02*
X108209000Y-34511000D01*
X108169000Y-46753000D02*
X108169000Y-42020000D01*
X108169000Y-39260000D02*
X108169000Y-34527000D01*
X108129000Y-46738000D02*
X108129000Y-42020000D01*
X108129000Y-39260000D02*
X108129000Y-34542000D01*
X108089000Y-46722000D02*
X108089000Y-42020000D01*
X108089000Y-39260000D02*
X108089000Y-34558000D01*
X108049000Y-46706000D02*
X108049000Y-42020000D01*
X108049000Y-39260000D02*
X108049000Y-34574000D01*
X108009000Y-46690000D02*
X108009000Y-42020000D01*
X108009000Y-39260000D02*
X108009000Y-34590000D01*
X107969000Y-46673000D02*
X107969000Y-42020000D01*
X107969000Y-39260000D02*
X107969000Y-34607000D01*
X107929000Y-46656000D02*
X107929000Y-42020000D01*
X107929000Y-39260000D02*
X107929000Y-34624000D01*
X107889000Y-46639000D02*
X107889000Y-42020000D01*
X107889000Y-39260000D02*
X107889000Y-34641000D01*
X107849000Y-46621000D02*
X107849000Y-42020000D01*
X107849000Y-39260000D02*
X107849000Y-34659000D01*
X107809000Y-46603000D02*
X107809000Y-42020000D01*
X107809000Y-39260000D02*
X107809000Y-34677000D01*
X107769000Y-46585000D02*
X107769000Y-42020000D01*
X107769000Y-39260000D02*
X107769000Y-34695000D01*
X107729000Y-46566000D02*
X107729000Y-42020000D01*
X107729000Y-39260000D02*
X107729000Y-34714000D01*
X107689000Y-46547000D02*
X107689000Y-42020000D01*
X107689000Y-39260000D02*
X107689000Y-34733000D01*
X107649000Y-46528000D02*
X107649000Y-42020000D01*
X107649000Y-39260000D02*
X107649000Y-34752000D01*
X107609000Y-46508000D02*
X107609000Y-42020000D01*
X107609000Y-39260000D02*
X107609000Y-34772000D01*
X107569000Y-46488000D02*
X107569000Y-42020000D01*
X107569000Y-39260000D02*
X107569000Y-34792000D01*
X107529000Y-46468000D02*
X107529000Y-42020000D01*
X107529000Y-39260000D02*
X107529000Y-34812000D01*
X107489000Y-46447000D02*
X107489000Y-42020000D01*
X107489000Y-39260000D02*
X107489000Y-34833000D01*
X107449000Y-46426000D02*
X107449000Y-42020000D01*
X107449000Y-39260000D02*
X107449000Y-34854000D01*
X107409000Y-46405000D02*
X107409000Y-42020000D01*
X107409000Y-39260000D02*
X107409000Y-34875000D01*
X107369000Y-46383000D02*
X107369000Y-42020000D01*
X107369000Y-39260000D02*
X107369000Y-34897000D01*
X107329000Y-46361000D02*
X107329000Y-42020000D01*
X107329000Y-39260000D02*
X107329000Y-34919000D01*
X107289000Y-46339000D02*
X107289000Y-42020000D01*
X107289000Y-39260000D02*
X107289000Y-34941000D01*
X107249000Y-46316000D02*
X107249000Y-42020000D01*
X107249000Y-39260000D02*
X107249000Y-34964000D01*
X107209000Y-46293000D02*
X107209000Y-42020000D01*
X107209000Y-39260000D02*
X107209000Y-34987000D01*
X107169000Y-46270000D02*
X107169000Y-42020000D01*
X107169000Y-39260000D02*
X107169000Y-35010000D01*
X107129000Y-46246000D02*
X107129000Y-42020000D01*
X107129000Y-39260000D02*
X107129000Y-35034000D01*
X107089000Y-46221000D02*
X107089000Y-42020000D01*
X107089000Y-39260000D02*
X107089000Y-35059000D01*
X107049000Y-46197000D02*
X107049000Y-42020000D01*
X107049000Y-39260000D02*
X107049000Y-35083000D01*
X107009000Y-46172000D02*
X107009000Y-42020000D01*
X107009000Y-39260000D02*
X107009000Y-35108000D01*
X106969000Y-46146000D02*
X106969000Y-42020000D01*
X106969000Y-39260000D02*
X106969000Y-35134000D01*
X106929000Y-46120000D02*
X106929000Y-42020000D01*
X106929000Y-39260000D02*
X106929000Y-35160000D01*
X106889000Y-46094000D02*
X106889000Y-42020000D01*
X106889000Y-39260000D02*
X106889000Y-35186000D01*
X106849000Y-46067000D02*
X106849000Y-42020000D01*
X106849000Y-39260000D02*
X106849000Y-35213000D01*
X106809000Y-46040000D02*
X106809000Y-42020000D01*
X106809000Y-39260000D02*
X106809000Y-35240000D01*
X106769000Y-46013000D02*
X106769000Y-42020000D01*
X106769000Y-39260000D02*
X106769000Y-35267000D01*
X106729000Y-45985000D02*
X106729000Y-42020000D01*
X106729000Y-39260000D02*
X106729000Y-35295000D01*
X106689000Y-45956000D02*
X106689000Y-42020000D01*
X106689000Y-39260000D02*
X106689000Y-35324000D01*
X106649000Y-45927000D02*
X106649000Y-35353000D01*
X106609000Y-45898000D02*
X106609000Y-35382000D01*
X106569000Y-45868000D02*
X106569000Y-35412000D01*
X106529000Y-45838000D02*
X106529000Y-35442000D01*
X106489000Y-45807000D02*
X106489000Y-35473000D01*
X106449000Y-45776000D02*
X106449000Y-35504000D01*
X106409000Y-45744000D02*
X106409000Y-35536000D01*
X106369000Y-45712000D02*
X106369000Y-35568000D01*
X106329000Y-45679000D02*
X106329000Y-35601000D01*
X106289000Y-45645000D02*
X106289000Y-35635000D01*
X106249000Y-45611000D02*
X106249000Y-35669000D01*
X106209000Y-45577000D02*
X106209000Y-35703000D01*
X106169000Y-45542000D02*
X106169000Y-35738000D01*
X106129000Y-45506000D02*
X106129000Y-35774000D01*
X106089000Y-45470000D02*
X106089000Y-35810000D01*
X106049000Y-45433000D02*
X106049000Y-35847000D01*
X106009000Y-45396000D02*
X106009000Y-35884000D01*
X105969000Y-45358000D02*
X105969000Y-35922000D01*
X105929000Y-45319000D02*
X105929000Y-35961000D01*
X105889000Y-45280000D02*
X105889000Y-36000000D01*
X105849000Y-45240000D02*
X105849000Y-36040000D01*
X105809000Y-45199000D02*
X105809000Y-36081000D01*
X105769000Y-45158000D02*
X105769000Y-36122000D01*
X105729000Y-45116000D02*
X105729000Y-36164000D01*
X105689000Y-45073000D02*
X105689000Y-36207000D01*
X105649000Y-45029000D02*
X105649000Y-36251000D01*
X105609000Y-44985000D02*
X105609000Y-36295000D01*
X105569000Y-44939000D02*
X105569000Y-36341000D01*
X105529000Y-44893000D02*
X105529000Y-36387000D01*
X105489000Y-44846000D02*
X105489000Y-36434000D01*
X105449000Y-44798000D02*
X105449000Y-36482000D01*
X105409000Y-44749000D02*
X105409000Y-36531000D01*
X105369000Y-44700000D02*
X105369000Y-36580000D01*
X105329000Y-44649000D02*
X105329000Y-36631000D01*
X105289000Y-44597000D02*
X105289000Y-36683000D01*
X105249000Y-44544000D02*
X105249000Y-36736000D01*
X105209000Y-44490000D02*
X105209000Y-36790000D01*
X105169000Y-44434000D02*
X105169000Y-36846000D01*
X105129000Y-44378000D02*
X105129000Y-36902000D01*
X105089000Y-44320000D02*
X105089000Y-36960000D01*
X105049000Y-44261000D02*
X105049000Y-37019000D01*
X105009000Y-44200000D02*
X105009000Y-37080000D01*
X104969000Y-44138000D02*
X104969000Y-37142000D01*
X104929000Y-44074000D02*
X104929000Y-37206000D01*
X104889000Y-44009000D02*
X104889000Y-37271000D01*
X104849000Y-43942000D02*
X104849000Y-37338000D01*
X104809000Y-43873000D02*
X104809000Y-37407000D01*
X104769000Y-43802000D02*
X104769000Y-37478000D01*
X104729000Y-43729000D02*
X104729000Y-37551000D01*
X104689000Y-43654000D02*
X104689000Y-37626000D01*
X104649000Y-43576000D02*
X104649000Y-37704000D01*
X104609000Y-43496000D02*
X104609000Y-37784000D01*
X104569000Y-43412000D02*
X104569000Y-37868000D01*
X104529000Y-43326000D02*
X104529000Y-37954000D01*
X104489000Y-43236000D02*
X104489000Y-38044000D01*
X104449000Y-43142000D02*
X104449000Y-38138000D01*
X104409000Y-43045000D02*
X104409000Y-38235000D01*
X104369000Y-42942000D02*
X104369000Y-38338000D01*
X104329000Y-42834000D02*
X104329000Y-38446000D01*
X104289000Y-42720000D02*
X104289000Y-38560000D01*
X104249000Y-42598000D02*
X104249000Y-38682000D01*
X104209000Y-42468000D02*
X104209000Y-38812000D01*
X104169000Y-42326000D02*
X104169000Y-38954000D01*
X104129000Y-42172000D02*
X104129000Y-39108000D01*
X104089000Y-41999000D02*
X104089000Y-39281000D01*
X104049000Y-41800000D02*
X104049000Y-39480000D01*
X104009000Y-41558000D02*
X104009000Y-39722000D01*
X103969000Y-41229000D02*
X103969000Y-40051000D01*
X116230000Y-40640000D02*
X114430000Y-40640000D01*
X115330000Y-41540000D02*
X115330000Y-39740000D01*
X140877445Y-50866851D02*
G75*
G03X140880000Y-43033918I-1177445J3916851D01*
G01*
X138522555Y-50866851D02*
G75*
G02X138520000Y-43033918I1177445J3916851D01*
G01*
X138522555Y-50866851D02*
G75*
G03X140880000Y-50866082I1177445J3916851D01*
G01*
X143750000Y-46950000D02*
X135650000Y-46950000D01*
X143750000Y-46990000D02*
X135650000Y-46990000D01*
X143750000Y-47030000D02*
X135650000Y-47030000D01*
X143749000Y-47070000D02*
X135651000Y-47070000D01*
X143747000Y-47110000D02*
X135653000Y-47110000D01*
X143746000Y-47150000D02*
X135654000Y-47150000D01*
X143743000Y-47190000D02*
X135657000Y-47190000D01*
X143741000Y-47230000D02*
X135659000Y-47230000D01*
X143738000Y-47270000D02*
X135662000Y-47270000D01*
X143735000Y-47310000D02*
X135665000Y-47310000D01*
X143731000Y-47350000D02*
X135669000Y-47350000D01*
X143727000Y-47390000D02*
X135673000Y-47390000D01*
X143722000Y-47430000D02*
X135678000Y-47430000D01*
X143717000Y-47470000D02*
X135683000Y-47470000D01*
X143712000Y-47510000D02*
X135688000Y-47510000D01*
X143706000Y-47550000D02*
X135694000Y-47550000D01*
X143700000Y-47590000D02*
X135700000Y-47590000D01*
X143694000Y-47630000D02*
X135706000Y-47630000D01*
X143687000Y-47671000D02*
X135713000Y-47671000D01*
X143679000Y-47711000D02*
X135721000Y-47711000D01*
X143671000Y-47751000D02*
X135729000Y-47751000D01*
X143663000Y-47791000D02*
X135737000Y-47791000D01*
X143655000Y-47831000D02*
X135745000Y-47831000D01*
X143646000Y-47871000D02*
X135754000Y-47871000D01*
X143636000Y-47911000D02*
X135764000Y-47911000D01*
X143626000Y-47951000D02*
X135774000Y-47951000D01*
X143616000Y-47991000D02*
X135784000Y-47991000D01*
X143605000Y-48031000D02*
X135795000Y-48031000D01*
X143594000Y-48071000D02*
X135806000Y-48071000D01*
X143583000Y-48111000D02*
X135817000Y-48111000D01*
X143570000Y-48151000D02*
X135830000Y-48151000D01*
X143558000Y-48191000D02*
X135842000Y-48191000D01*
X143545000Y-48231000D02*
X135855000Y-48231000D01*
X143532000Y-48271000D02*
X135868000Y-48271000D01*
X143518000Y-48311000D02*
X135882000Y-48311000D01*
X143503000Y-48351000D02*
X135897000Y-48351000D01*
X143489000Y-48391000D02*
X135911000Y-48391000D01*
X143473000Y-48431000D02*
X135927000Y-48431000D01*
X143458000Y-48471000D02*
X140680000Y-48471000D01*
X138720000Y-48471000D02*
X135942000Y-48471000D01*
X143441000Y-48511000D02*
X140680000Y-48511000D01*
X138720000Y-48511000D02*
X135959000Y-48511000D01*
X143425000Y-48551000D02*
X140680000Y-48551000D01*
X138720000Y-48551000D02*
X135975000Y-48551000D01*
X143407000Y-48591000D02*
X140680000Y-48591000D01*
X138720000Y-48591000D02*
X135993000Y-48591000D01*
X143390000Y-48631000D02*
X140680000Y-48631000D01*
X138720000Y-48631000D02*
X136010000Y-48631000D01*
X143371000Y-48671000D02*
X140680000Y-48671000D01*
X138720000Y-48671000D02*
X136029000Y-48671000D01*
X143352000Y-48711000D02*
X140680000Y-48711000D01*
X138720000Y-48711000D02*
X136048000Y-48711000D01*
X143333000Y-48751000D02*
X140680000Y-48751000D01*
X138720000Y-48751000D02*
X136067000Y-48751000D01*
X143313000Y-48791000D02*
X140680000Y-48791000D01*
X138720000Y-48791000D02*
X136087000Y-48791000D01*
X143293000Y-48831000D02*
X140680000Y-48831000D01*
X138720000Y-48831000D02*
X136107000Y-48831000D01*
X143272000Y-48871000D02*
X140680000Y-48871000D01*
X138720000Y-48871000D02*
X136128000Y-48871000D01*
X143250000Y-48911000D02*
X140680000Y-48911000D01*
X138720000Y-48911000D02*
X136150000Y-48911000D01*
X143228000Y-48951000D02*
X140680000Y-48951000D01*
X138720000Y-48951000D02*
X136172000Y-48951000D01*
X143205000Y-48991000D02*
X140680000Y-48991000D01*
X138720000Y-48991000D02*
X136195000Y-48991000D01*
X143182000Y-49031000D02*
X140680000Y-49031000D01*
X138720000Y-49031000D02*
X136218000Y-49031000D01*
X143158000Y-49071000D02*
X140680000Y-49071000D01*
X138720000Y-49071000D02*
X136242000Y-49071000D01*
X143134000Y-49111000D02*
X140680000Y-49111000D01*
X138720000Y-49111000D02*
X136266000Y-49111000D01*
X143108000Y-49151000D02*
X140680000Y-49151000D01*
X138720000Y-49151000D02*
X136292000Y-49151000D01*
X143083000Y-49191000D02*
X140680000Y-49191000D01*
X138720000Y-49191000D02*
X136317000Y-49191000D01*
X143056000Y-49231000D02*
X140680000Y-49231000D01*
X138720000Y-49231000D02*
X136344000Y-49231000D01*
X143029000Y-49271000D02*
X140680000Y-49271000D01*
X138720000Y-49271000D02*
X136371000Y-49271000D01*
X143001000Y-49311000D02*
X140680000Y-49311000D01*
X138720000Y-49311000D02*
X136399000Y-49311000D01*
X142972000Y-49351000D02*
X140680000Y-49351000D01*
X138720000Y-49351000D02*
X136428000Y-49351000D01*
X142943000Y-49391000D02*
X140680000Y-49391000D01*
X138720000Y-49391000D02*
X136457000Y-49391000D01*
X142913000Y-49431000D02*
X140680000Y-49431000D01*
X138720000Y-49431000D02*
X136487000Y-49431000D01*
X142882000Y-49471000D02*
X140680000Y-49471000D01*
X138720000Y-49471000D02*
X136518000Y-49471000D01*
X142850000Y-49511000D02*
X140680000Y-49511000D01*
X138720000Y-49511000D02*
X136550000Y-49511000D01*
X142818000Y-49551000D02*
X140680000Y-49551000D01*
X138720000Y-49551000D02*
X136582000Y-49551000D01*
X142784000Y-49591000D02*
X140680000Y-49591000D01*
X138720000Y-49591000D02*
X136616000Y-49591000D01*
X142750000Y-49631000D02*
X140680000Y-49631000D01*
X138720000Y-49631000D02*
X136650000Y-49631000D01*
X142715000Y-49671000D02*
X140680000Y-49671000D01*
X138720000Y-49671000D02*
X136685000Y-49671000D01*
X142679000Y-49711000D02*
X140680000Y-49711000D01*
X138720000Y-49711000D02*
X136721000Y-49711000D01*
X142642000Y-49751000D02*
X140680000Y-49751000D01*
X138720000Y-49751000D02*
X136758000Y-49751000D01*
X142604000Y-49791000D02*
X140680000Y-49791000D01*
X138720000Y-49791000D02*
X136796000Y-49791000D01*
X142565000Y-49831000D02*
X140680000Y-49831000D01*
X138720000Y-49831000D02*
X136835000Y-49831000D01*
X142524000Y-49871000D02*
X140680000Y-49871000D01*
X138720000Y-49871000D02*
X136876000Y-49871000D01*
X142483000Y-49911000D02*
X140680000Y-49911000D01*
X138720000Y-49911000D02*
X136917000Y-49911000D01*
X142440000Y-49951000D02*
X140680000Y-49951000D01*
X138720000Y-49951000D02*
X136960000Y-49951000D01*
X142397000Y-49991000D02*
X140680000Y-49991000D01*
X138720000Y-49991000D02*
X137003000Y-49991000D01*
X142352000Y-50031000D02*
X140680000Y-50031000D01*
X138720000Y-50031000D02*
X137048000Y-50031000D01*
X142305000Y-50071000D02*
X140680000Y-50071000D01*
X138720000Y-50071000D02*
X137095000Y-50071000D01*
X142257000Y-50111000D02*
X140680000Y-50111000D01*
X138720000Y-50111000D02*
X137143000Y-50111000D01*
X142208000Y-50151000D02*
X140680000Y-50151000D01*
X138720000Y-50151000D02*
X137192000Y-50151000D01*
X142157000Y-50191000D02*
X140680000Y-50191000D01*
X138720000Y-50191000D02*
X137243000Y-50191000D01*
X142104000Y-50231000D02*
X140680000Y-50231000D01*
X138720000Y-50231000D02*
X137296000Y-50231000D01*
X142049000Y-50271000D02*
X140680000Y-50271000D01*
X138720000Y-50271000D02*
X137351000Y-50271000D01*
X141993000Y-50311000D02*
X140680000Y-50311000D01*
X138720000Y-50311000D02*
X137407000Y-50311000D01*
X141934000Y-50351000D02*
X140680000Y-50351000D01*
X138720000Y-50351000D02*
X137466000Y-50351000D01*
X141873000Y-50391000D02*
X140680000Y-50391000D01*
X138720000Y-50391000D02*
X137527000Y-50391000D01*
X141809000Y-50431000D02*
X137591000Y-50431000D01*
X141743000Y-50471000D02*
X137657000Y-50471000D01*
X141674000Y-50511000D02*
X137726000Y-50511000D01*
X141602000Y-50551000D02*
X137798000Y-50551000D01*
X141526000Y-50591000D02*
X137874000Y-50591000D01*
X141445000Y-50631000D02*
X137955000Y-50631000D01*
X141360000Y-50671000D02*
X138040000Y-50671000D01*
X141270000Y-50711000D02*
X138130000Y-50711000D01*
X141173000Y-50751000D02*
X138227000Y-50751000D01*
X141069000Y-50791000D02*
X138331000Y-50791000D01*
X140954000Y-50831000D02*
X138446000Y-50831000D01*
X140827000Y-50871000D02*
X138573000Y-50871000D01*
X140683000Y-50911000D02*
X138717000Y-50911000D01*
X140514000Y-50951000D02*
X138886000Y-50951000D01*
X140298000Y-50991000D02*
X139102000Y-50991000D01*
X139946000Y-51031000D02*
X139454000Y-51031000D01*
X139700000Y-42250000D02*
X139700000Y-43450000D01*
X140350000Y-42850000D02*
X139050000Y-42850000D01*
X132320000Y-41870000D02*
G75*
G03X132320000Y-41870000I-6590000J0D01*
G01*
X132280000Y-41870000D02*
X119180000Y-41870000D01*
X132280000Y-41910000D02*
X119180000Y-41910000D01*
X132280000Y-41950000D02*
X119180000Y-41950000D01*
X132279000Y-41990000D02*
X119181000Y-41990000D01*
X132279000Y-42030000D02*
X119181000Y-42030000D01*
X132277000Y-42070000D02*
X119183000Y-42070000D01*
X132276000Y-42110000D02*
X119184000Y-42110000D01*
X132275000Y-42150000D02*
X119185000Y-42150000D01*
X132273000Y-42190000D02*
X119187000Y-42190000D01*
X132271000Y-42230000D02*
X119189000Y-42230000D01*
X132268000Y-42270000D02*
X119192000Y-42270000D01*
X132266000Y-42310000D02*
X119194000Y-42310000D01*
X132263000Y-42350000D02*
X119197000Y-42350000D01*
X132260000Y-42390000D02*
X119200000Y-42390000D01*
X132257000Y-42430000D02*
X119203000Y-42430000D01*
X132253000Y-42470000D02*
X119207000Y-42470000D01*
X132249000Y-42510000D02*
X119211000Y-42510000D01*
X132245000Y-42550000D02*
X119215000Y-42550000D01*
X132241000Y-42591000D02*
X119219000Y-42591000D01*
X132237000Y-42631000D02*
X119223000Y-42631000D01*
X132232000Y-42671000D02*
X119228000Y-42671000D01*
X132227000Y-42711000D02*
X119233000Y-42711000D01*
X132221000Y-42751000D02*
X119239000Y-42751000D01*
X132216000Y-42791000D02*
X119244000Y-42791000D01*
X132210000Y-42831000D02*
X119250000Y-42831000D01*
X132204000Y-42871000D02*
X119256000Y-42871000D01*
X132198000Y-42911000D02*
X119262000Y-42911000D01*
X132191000Y-42951000D02*
X119269000Y-42951000D01*
X132185000Y-42991000D02*
X127110000Y-42991000D01*
X124350000Y-42991000D02*
X119275000Y-42991000D01*
X132178000Y-43031000D02*
X127110000Y-43031000D01*
X124350000Y-43031000D02*
X119282000Y-43031000D01*
X132170000Y-43071000D02*
X127110000Y-43071000D01*
X124350000Y-43071000D02*
X119290000Y-43071000D01*
X132163000Y-43111000D02*
X127110000Y-43111000D01*
X124350000Y-43111000D02*
X119297000Y-43111000D01*
X132155000Y-43151000D02*
X127110000Y-43151000D01*
X124350000Y-43151000D02*
X119305000Y-43151000D01*
X132147000Y-43191000D02*
X127110000Y-43191000D01*
X124350000Y-43191000D02*
X119313000Y-43191000D01*
X132139000Y-43231000D02*
X127110000Y-43231000D01*
X124350000Y-43231000D02*
X119321000Y-43231000D01*
X132130000Y-43271000D02*
X127110000Y-43271000D01*
X124350000Y-43271000D02*
X119330000Y-43271000D01*
X132121000Y-43311000D02*
X127110000Y-43311000D01*
X124350000Y-43311000D02*
X119339000Y-43311000D01*
X132112000Y-43351000D02*
X127110000Y-43351000D01*
X124350000Y-43351000D02*
X119348000Y-43351000D01*
X132103000Y-43391000D02*
X127110000Y-43391000D01*
X124350000Y-43391000D02*
X119357000Y-43391000D01*
X132093000Y-43431000D02*
X127110000Y-43431000D01*
X124350000Y-43431000D02*
X119367000Y-43431000D01*
X132083000Y-43471000D02*
X127110000Y-43471000D01*
X124350000Y-43471000D02*
X119377000Y-43471000D01*
X132073000Y-43511000D02*
X127110000Y-43511000D01*
X124350000Y-43511000D02*
X119387000Y-43511000D01*
X132063000Y-43551000D02*
X127110000Y-43551000D01*
X124350000Y-43551000D02*
X119397000Y-43551000D01*
X132052000Y-43591000D02*
X127110000Y-43591000D01*
X124350000Y-43591000D02*
X119408000Y-43591000D01*
X132041000Y-43631000D02*
X127110000Y-43631000D01*
X124350000Y-43631000D02*
X119419000Y-43631000D01*
X132030000Y-43671000D02*
X127110000Y-43671000D01*
X124350000Y-43671000D02*
X119430000Y-43671000D01*
X132018000Y-43711000D02*
X127110000Y-43711000D01*
X124350000Y-43711000D02*
X119442000Y-43711000D01*
X132007000Y-43751000D02*
X127110000Y-43751000D01*
X124350000Y-43751000D02*
X119453000Y-43751000D01*
X131995000Y-43791000D02*
X127110000Y-43791000D01*
X124350000Y-43791000D02*
X119465000Y-43791000D01*
X131982000Y-43831000D02*
X127110000Y-43831000D01*
X124350000Y-43831000D02*
X119478000Y-43831000D01*
X131970000Y-43871000D02*
X127110000Y-43871000D01*
X124350000Y-43871000D02*
X119490000Y-43871000D01*
X131957000Y-43911000D02*
X127110000Y-43911000D01*
X124350000Y-43911000D02*
X119503000Y-43911000D01*
X131944000Y-43951000D02*
X127110000Y-43951000D01*
X124350000Y-43951000D02*
X119516000Y-43951000D01*
X131930000Y-43991000D02*
X127110000Y-43991000D01*
X124350000Y-43991000D02*
X119530000Y-43991000D01*
X131916000Y-44031000D02*
X127110000Y-44031000D01*
X124350000Y-44031000D02*
X119544000Y-44031000D01*
X131902000Y-44071000D02*
X127110000Y-44071000D01*
X124350000Y-44071000D02*
X119558000Y-44071000D01*
X131888000Y-44111000D02*
X127110000Y-44111000D01*
X124350000Y-44111000D02*
X119572000Y-44111000D01*
X131874000Y-44151000D02*
X127110000Y-44151000D01*
X124350000Y-44151000D02*
X119586000Y-44151000D01*
X131859000Y-44191000D02*
X127110000Y-44191000D01*
X124350000Y-44191000D02*
X119601000Y-44191000D01*
X131843000Y-44231000D02*
X127110000Y-44231000D01*
X124350000Y-44231000D02*
X119617000Y-44231000D01*
X131828000Y-44271000D02*
X127110000Y-44271000D01*
X124350000Y-44271000D02*
X119632000Y-44271000D01*
X131812000Y-44311000D02*
X127110000Y-44311000D01*
X124350000Y-44311000D02*
X119648000Y-44311000D01*
X131796000Y-44351000D02*
X127110000Y-44351000D01*
X124350000Y-44351000D02*
X119664000Y-44351000D01*
X131780000Y-44391000D02*
X127110000Y-44391000D01*
X124350000Y-44391000D02*
X119680000Y-44391000D01*
X131763000Y-44431000D02*
X127110000Y-44431000D01*
X124350000Y-44431000D02*
X119697000Y-44431000D01*
X131746000Y-44471000D02*
X127110000Y-44471000D01*
X124350000Y-44471000D02*
X119714000Y-44471000D01*
X131729000Y-44511000D02*
X127110000Y-44511000D01*
X124350000Y-44511000D02*
X119731000Y-44511000D01*
X131711000Y-44551000D02*
X127110000Y-44551000D01*
X124350000Y-44551000D02*
X119749000Y-44551000D01*
X131693000Y-44591000D02*
X127110000Y-44591000D01*
X124350000Y-44591000D02*
X119767000Y-44591000D01*
X131675000Y-44631000D02*
X127110000Y-44631000D01*
X124350000Y-44631000D02*
X119785000Y-44631000D01*
X131656000Y-44671000D02*
X127110000Y-44671000D01*
X124350000Y-44671000D02*
X119804000Y-44671000D01*
X131637000Y-44711000D02*
X127110000Y-44711000D01*
X124350000Y-44711000D02*
X119823000Y-44711000D01*
X131618000Y-44751000D02*
X127110000Y-44751000D01*
X124350000Y-44751000D02*
X119842000Y-44751000D01*
X131598000Y-44791000D02*
X127110000Y-44791000D01*
X124350000Y-44791000D02*
X119862000Y-44791000D01*
X131578000Y-44831000D02*
X127110000Y-44831000D01*
X124350000Y-44831000D02*
X119882000Y-44831000D01*
X131558000Y-44871000D02*
X127110000Y-44871000D01*
X124350000Y-44871000D02*
X119902000Y-44871000D01*
X131537000Y-44911000D02*
X127110000Y-44911000D01*
X124350000Y-44911000D02*
X119923000Y-44911000D01*
X131516000Y-44951000D02*
X127110000Y-44951000D01*
X124350000Y-44951000D02*
X119944000Y-44951000D01*
X131495000Y-44991000D02*
X127110000Y-44991000D01*
X124350000Y-44991000D02*
X119965000Y-44991000D01*
X131473000Y-45031000D02*
X127110000Y-45031000D01*
X124350000Y-45031000D02*
X119987000Y-45031000D01*
X131451000Y-45071000D02*
X127110000Y-45071000D01*
X124350000Y-45071000D02*
X120009000Y-45071000D01*
X131429000Y-45111000D02*
X127110000Y-45111000D01*
X124350000Y-45111000D02*
X120031000Y-45111000D01*
X131406000Y-45151000D02*
X127110000Y-45151000D01*
X124350000Y-45151000D02*
X120054000Y-45151000D01*
X131383000Y-45191000D02*
X127110000Y-45191000D01*
X124350000Y-45191000D02*
X120077000Y-45191000D01*
X131360000Y-45231000D02*
X127110000Y-45231000D01*
X124350000Y-45231000D02*
X120100000Y-45231000D01*
X131336000Y-45271000D02*
X127110000Y-45271000D01*
X124350000Y-45271000D02*
X120124000Y-45271000D01*
X131311000Y-45311000D02*
X127110000Y-45311000D01*
X124350000Y-45311000D02*
X120149000Y-45311000D01*
X131287000Y-45351000D02*
X127110000Y-45351000D01*
X124350000Y-45351000D02*
X120173000Y-45351000D01*
X131262000Y-45391000D02*
X127110000Y-45391000D01*
X124350000Y-45391000D02*
X120198000Y-45391000D01*
X131236000Y-45431000D02*
X127110000Y-45431000D01*
X124350000Y-45431000D02*
X120224000Y-45431000D01*
X131210000Y-45471000D02*
X127110000Y-45471000D01*
X124350000Y-45471000D02*
X120250000Y-45471000D01*
X131184000Y-45511000D02*
X127110000Y-45511000D01*
X124350000Y-45511000D02*
X120276000Y-45511000D01*
X131157000Y-45551000D02*
X127110000Y-45551000D01*
X124350000Y-45551000D02*
X120303000Y-45551000D01*
X131130000Y-45591000D02*
X127110000Y-45591000D01*
X124350000Y-45591000D02*
X120330000Y-45591000D01*
X131103000Y-45631000D02*
X127110000Y-45631000D01*
X124350000Y-45631000D02*
X120357000Y-45631000D01*
X131075000Y-45671000D02*
X127110000Y-45671000D01*
X124350000Y-45671000D02*
X120385000Y-45671000D01*
X131046000Y-45711000D02*
X127110000Y-45711000D01*
X124350000Y-45711000D02*
X120414000Y-45711000D01*
X131017000Y-45751000D02*
X120443000Y-45751000D01*
X130988000Y-45791000D02*
X120472000Y-45791000D01*
X130958000Y-45831000D02*
X120502000Y-45831000D01*
X130928000Y-45871000D02*
X120532000Y-45871000D01*
X130897000Y-45911000D02*
X120563000Y-45911000D01*
X130866000Y-45951000D02*
X120594000Y-45951000D01*
X130834000Y-45991000D02*
X120626000Y-45991000D01*
X130802000Y-46031000D02*
X120658000Y-46031000D01*
X130769000Y-46071000D02*
X120691000Y-46071000D01*
X130735000Y-46111000D02*
X120725000Y-46111000D01*
X130701000Y-46151000D02*
X120759000Y-46151000D01*
X130667000Y-46191000D02*
X120793000Y-46191000D01*
X130632000Y-46231000D02*
X120828000Y-46231000D01*
X130596000Y-46271000D02*
X120864000Y-46271000D01*
X130560000Y-46311000D02*
X120900000Y-46311000D01*
X130523000Y-46351000D02*
X120937000Y-46351000D01*
X130486000Y-46391000D02*
X120974000Y-46391000D01*
X130448000Y-46431000D02*
X121012000Y-46431000D01*
X130409000Y-46471000D02*
X121051000Y-46471000D01*
X130370000Y-46511000D02*
X121090000Y-46511000D01*
X130330000Y-46551000D02*
X121130000Y-46551000D01*
X130289000Y-46591000D02*
X121171000Y-46591000D01*
X130248000Y-46631000D02*
X121212000Y-46631000D01*
X130206000Y-46671000D02*
X121254000Y-46671000D01*
X130163000Y-46711000D02*
X121297000Y-46711000D01*
X130119000Y-46751000D02*
X121341000Y-46751000D01*
X130075000Y-46791000D02*
X121385000Y-46791000D01*
X130029000Y-46831000D02*
X121431000Y-46831000D01*
X129983000Y-46871000D02*
X121477000Y-46871000D01*
X129936000Y-46911000D02*
X121524000Y-46911000D01*
X129888000Y-46951000D02*
X121572000Y-46951000D01*
X129839000Y-46991000D02*
X121621000Y-46991000D01*
X129790000Y-47031000D02*
X121670000Y-47031000D01*
X129739000Y-47071000D02*
X121721000Y-47071000D01*
X129687000Y-47111000D02*
X121773000Y-47111000D01*
X129634000Y-47151000D02*
X121826000Y-47151000D01*
X129580000Y-47191000D02*
X121880000Y-47191000D01*
X129524000Y-47231000D02*
X121936000Y-47231000D01*
X129468000Y-47271000D02*
X121992000Y-47271000D01*
X129410000Y-47311000D02*
X122050000Y-47311000D01*
X129351000Y-47351000D02*
X122109000Y-47351000D01*
X129290000Y-47391000D02*
X122170000Y-47391000D01*
X129228000Y-47431000D02*
X122232000Y-47431000D01*
X129164000Y-47471000D02*
X122296000Y-47471000D01*
X129099000Y-47511000D02*
X122361000Y-47511000D01*
X129032000Y-47551000D02*
X122428000Y-47551000D01*
X128963000Y-47591000D02*
X122497000Y-47591000D01*
X128892000Y-47631000D02*
X122568000Y-47631000D01*
X128819000Y-47671000D02*
X122641000Y-47671000D01*
X128744000Y-47711000D02*
X122716000Y-47711000D01*
X128666000Y-47751000D02*
X122794000Y-47751000D01*
X128586000Y-47791000D02*
X122874000Y-47791000D01*
X128502000Y-47831000D02*
X122958000Y-47831000D01*
X128416000Y-47871000D02*
X123044000Y-47871000D01*
X128326000Y-47911000D02*
X123134000Y-47911000D01*
X128232000Y-47951000D02*
X123228000Y-47951000D01*
X128135000Y-47991000D02*
X123325000Y-47991000D01*
X128032000Y-48031000D02*
X123428000Y-48031000D01*
X127924000Y-48071000D02*
X123536000Y-48071000D01*
X127810000Y-48111000D02*
X123650000Y-48111000D01*
X127688000Y-48151000D02*
X123772000Y-48151000D01*
X127558000Y-48191000D02*
X123902000Y-48191000D01*
X127416000Y-48231000D02*
X124044000Y-48231000D01*
X127262000Y-48271000D02*
X124198000Y-48271000D01*
X127089000Y-48311000D02*
X124371000Y-48311000D01*
X126890000Y-48351000D02*
X124570000Y-48351000D01*
X126648000Y-48391000D02*
X124812000Y-48391000D01*
X126319000Y-48431000D02*
X125141000Y-48431000D01*
X125730000Y-36170000D02*
X125730000Y-37970000D01*
X126630000Y-37070000D02*
X124830000Y-37070000D01*
X137050000Y-37710000D02*
X142270000Y-37710000D01*
X137050000Y-41030000D02*
X142270000Y-41030000D01*
X137050000Y-37710000D02*
X137050000Y-38374000D01*
X137050000Y-40366000D02*
X137050000Y-41030000D01*
X142270000Y-37710000D02*
X142270000Y-38374000D01*
X142270000Y-40366000D02*
X142270000Y-41030000D01*
X91050000Y-96630000D02*
X91050000Y-91410000D01*
X94370000Y-96630000D02*
X94370000Y-91410000D01*
X91050000Y-96630000D02*
X91714000Y-96630000D01*
X93706000Y-96630000D02*
X94370000Y-96630000D01*
X91050000Y-91410000D02*
X91714000Y-91410000D01*
X93706000Y-91410000D02*
X94370000Y-91410000D01*
X128130000Y-99180000D02*
X130950000Y-99180000D01*
X130950000Y-99180000D02*
X130950000Y-93860000D01*
X130950000Y-93860000D02*
X128130000Y-93860000D01*
X128130000Y-93860000D02*
X128130000Y-99180000D01*
X129540000Y-100320000D02*
X129540000Y-99180000D01*
X129540000Y-92720000D02*
X129540000Y-93860000D01*
X128130000Y-98340000D02*
X130950000Y-98340000D01*
X87770000Y-93860000D02*
X84950000Y-93860000D01*
X84950000Y-93860000D02*
X84950000Y-99180000D01*
X84950000Y-99180000D02*
X87770000Y-99180000D01*
X87770000Y-99180000D02*
X87770000Y-93860000D01*
X86360000Y-92720000D02*
X86360000Y-93860000D01*
X86360000Y-100320000D02*
X86360000Y-99180000D01*
X87770000Y-94700000D02*
X84950000Y-94700000D01*
D11*
X180009800Y-50510440D02*
X170510200Y-50510440D01*
X175011080Y-44010580D02*
X175011080Y-46009560D01*
X175011080Y-46009560D02*
X173509940Y-46009560D01*
X173509940Y-46009560D02*
X173509940Y-44010580D01*
X180009800Y-46009560D02*
X177010060Y-46009560D01*
X177010060Y-46009560D02*
X177010060Y-44058840D01*
X170510200Y-44010580D02*
X170510200Y-52509420D01*
X170510200Y-52509420D02*
X180009800Y-52509420D01*
X180009800Y-52509420D02*
X180009800Y-44010580D01*
X180009800Y-44010580D02*
X170510200Y-44010580D01*
D12*
X153500000Y-57000000D02*
X155090000Y-57000000D01*
X155090000Y-57000000D02*
X155090000Y-77620000D01*
X155090000Y-77620000D02*
X152250000Y-77620000D01*
X152250000Y-77620000D02*
X152250000Y-58250000D01*
X153400000Y-56750000D02*
X152000000Y-56750000D01*
X152000000Y-56750000D02*
X152000000Y-58150000D01*
X128200000Y-54720000D02*
X128200000Y-55200000D01*
X128200000Y-55200000D02*
X118180000Y-55200000D01*
X118180000Y-55200000D02*
X118180000Y-54720000D01*
X128200000Y-51960000D02*
X128200000Y-51480000D01*
X128200000Y-51480000D02*
X118180000Y-51480000D01*
X118180000Y-51480000D02*
X118180000Y-51960000D01*
X116730000Y-79940000D02*
X116250000Y-79940000D01*
X116250000Y-79940000D02*
X116250000Y-69920000D01*
X116250000Y-69920000D02*
X116730000Y-69920000D01*
X119490000Y-79940000D02*
X119970000Y-79940000D01*
X119970000Y-79940000D02*
X119970000Y-69920000D01*
X119970000Y-69920000D02*
X119490000Y-69920000D01*
X166260000Y-111690000D02*
X165780000Y-111690000D01*
X165780000Y-111690000D02*
X165780000Y-101670000D01*
X165780000Y-101670000D02*
X166260000Y-101670000D01*
X169020000Y-111690000D02*
X169500000Y-111690000D01*
X169500000Y-111690000D02*
X169500000Y-101670000D01*
X169500000Y-101670000D02*
X169020000Y-101670000D01*
X116950000Y-111830000D02*
X117430000Y-111830000D01*
X117430000Y-111830000D02*
X117430000Y-121850000D01*
X117430000Y-121850000D02*
X116950000Y-121850000D01*
X114190000Y-111830000D02*
X113710000Y-111830000D01*
X113710000Y-111830000D02*
X113710000Y-121850000D01*
X113710000Y-121850000D02*
X114190000Y-121850000D01*
X170070000Y-69780000D02*
X169590000Y-69780000D01*
X169590000Y-69780000D02*
X169590000Y-59760000D01*
X169590000Y-59760000D02*
X170070000Y-59760000D01*
X172830000Y-69780000D02*
X173310000Y-69780000D01*
X173310000Y-69780000D02*
X173310000Y-59760000D01*
X173310000Y-59760000D02*
X172830000Y-59760000D01*
X166260000Y-91370000D02*
X165780000Y-91370000D01*
X165780000Y-91370000D02*
X165780000Y-81350000D01*
X165780000Y-81350000D02*
X166260000Y-81350000D01*
X169020000Y-91370000D02*
X169500000Y-91370000D01*
X169500000Y-91370000D02*
X169500000Y-81350000D01*
X169500000Y-81350000D02*
X169020000Y-81350000D01*
X123300000Y-111830000D02*
X123780000Y-111830000D01*
X123780000Y-111830000D02*
X123780000Y-121850000D01*
X123780000Y-121850000D02*
X123300000Y-121850000D01*
X120540000Y-111830000D02*
X120060000Y-111830000D01*
X120060000Y-111830000D02*
X120060000Y-121850000D01*
X120060000Y-121850000D02*
X120540000Y-121850000D01*
X116730000Y-100260000D02*
X116250000Y-100260000D01*
X116250000Y-100260000D02*
X116250000Y-90240000D01*
X116250000Y-90240000D02*
X116730000Y-90240000D01*
X119490000Y-100260000D02*
X119970000Y-100260000D01*
X119970000Y-100260000D02*
X119970000Y-90240000D01*
X119970000Y-90240000D02*
X119490000Y-90240000D01*
X126890000Y-77400000D02*
X126410000Y-77400000D01*
X126410000Y-77400000D02*
X126410000Y-67380000D01*
X126410000Y-67380000D02*
X126890000Y-67380000D01*
X129650000Y-77400000D02*
X130130000Y-77400000D01*
X130130000Y-77400000D02*
X130130000Y-67380000D01*
X130130000Y-67380000D02*
X129650000Y-67380000D01*
X121810000Y-73590000D02*
X121330000Y-73590000D01*
X121330000Y-73590000D02*
X121330000Y-63570000D01*
X121330000Y-63570000D02*
X121810000Y-63570000D01*
X124570000Y-73590000D02*
X125050000Y-73590000D01*
X125050000Y-73590000D02*
X125050000Y-63570000D01*
X125050000Y-63570000D02*
X124570000Y-63570000D01*
X91330000Y-65970000D02*
X90850000Y-65970000D01*
X90850000Y-65970000D02*
X90850000Y-55950000D01*
X90850000Y-55950000D02*
X91330000Y-55950000D01*
X94090000Y-65970000D02*
X94570000Y-65970000D01*
X94570000Y-65970000D02*
X94570000Y-55950000D01*
X94570000Y-55950000D02*
X94090000Y-55950000D01*
D11*
X163830000Y-81280000D02*
X138430000Y-81280000D01*
X138430000Y-81280000D02*
X138430000Y-129540000D01*
X138430000Y-129540000D02*
X163830000Y-129540000D01*
X163830000Y-129540000D02*
X163830000Y-81280000D01*
X142766051Y-83820000D02*
G75*
G03X142766051Y-83820000I-1796051J0D01*
G01*
X163086051Y-83820000D02*
G75*
G03X163086051Y-83820000I-1796051J0D01*
G01*
X163086051Y-127000000D02*
G75*
G03X163086051Y-127000000I-1796051J0D01*
G01*
X142766051Y-127000000D02*
G75*
G03X142766051Y-127000000I-1796051J0D01*
G01*
X148590000Y-80010000D02*
X148590000Y-52070000D01*
X148590000Y-52070000D02*
X134620000Y-52070000D01*
X134620000Y-52070000D02*
X134620000Y-80010000D01*
X134620000Y-80010000D02*
X148590000Y-80010000D01*
D12*
X158750000Y-70990000D02*
X166370000Y-70990000D01*
X166370000Y-70990000D02*
X166370000Y-58870000D01*
X166370000Y-58870000D02*
X158750000Y-58870000D01*
X158750000Y-58870000D02*
X158750000Y-70990000D01*
X162560000Y-73950000D02*
X162560000Y-70990000D01*
X162560000Y-55910000D02*
X162560000Y-58870000D01*
X124600000Y-92590000D02*
X121780000Y-92590000D01*
X121780000Y-92590000D02*
X121780000Y-97910000D01*
X121780000Y-97910000D02*
X124600000Y-97910000D01*
X124600000Y-97910000D02*
X124600000Y-92590000D01*
X123190000Y-91450000D02*
X123190000Y-92590000D01*
X123190000Y-99050000D02*
X123190000Y-97910000D01*
X124600000Y-93430000D02*
X121780000Y-93430000D01*
D10*
X113160000Y-97700000D02*
X112760000Y-97700000D01*
X113160000Y-97700000D02*
X113160000Y-98100000D01*
X113160000Y-103000000D02*
X113160000Y-102600000D01*
X113160000Y-103000000D02*
X112760000Y-103000000D01*
X97660000Y-103000000D02*
X98060000Y-103000000D01*
X97660000Y-103000000D02*
X97660000Y-102600000D01*
X97660000Y-97700000D02*
X98060000Y-97700000D01*
X97660000Y-97700000D02*
X97660000Y-98100000D01*
X125770000Y-85990000D02*
X125970000Y-86190000D01*
X125770000Y-85690000D02*
X125770000Y-85990000D01*
X130770000Y-85690000D02*
X130770000Y-85990000D01*
X130770000Y-85990000D02*
X130570000Y-86190000D01*
X130770000Y-83190000D02*
X130770000Y-83490000D01*
X130770000Y-83190000D02*
X130470000Y-83190000D01*
X126070000Y-83190000D02*
X125770000Y-83190000D01*
X125770000Y-83190000D02*
X125770000Y-83490000D01*
X125690000Y-80380000D02*
X125490000Y-80180000D01*
X125690000Y-80680000D02*
X125690000Y-80380000D01*
X120690000Y-80680000D02*
X120690000Y-80380000D01*
X120690000Y-80380000D02*
X120890000Y-80180000D01*
X120690000Y-83180000D02*
X120690000Y-82880000D01*
X120690000Y-83180000D02*
X120990000Y-83180000D01*
X125390000Y-83180000D02*
X125690000Y-83180000D01*
X125690000Y-83180000D02*
X125690000Y-82880000D01*
X95210000Y-71490000D02*
X95010000Y-71290000D01*
X95210000Y-71790000D02*
X95210000Y-71490000D01*
X90210000Y-71790000D02*
X90210000Y-71490000D01*
X90210000Y-71490000D02*
X90410000Y-71290000D01*
X90210000Y-74290000D02*
X90210000Y-73990000D01*
X90210000Y-74290000D02*
X90510000Y-74290000D01*
X94910000Y-74290000D02*
X95210000Y-74290000D01*
X95210000Y-74290000D02*
X95210000Y-73990000D01*
D12*
X86320000Y-36750000D02*
X96560000Y-36750000D01*
X86320000Y-41391000D02*
X96560000Y-41391000D01*
X86320000Y-36750000D02*
X86320000Y-41391000D01*
X96560000Y-36750000D02*
X96560000Y-41391000D01*
X86320000Y-38260000D02*
X96560000Y-38260000D01*
X89590000Y-36750000D02*
X89590000Y-38260000D01*
X93291000Y-36750000D02*
X93291000Y-38260000D01*
X144740000Y-34210000D02*
X154980000Y-34210000D01*
X144740000Y-38851000D02*
X154980000Y-38851000D01*
X144740000Y-34210000D02*
X144740000Y-38851000D01*
X154980000Y-34210000D02*
X154980000Y-38851000D01*
X144740000Y-35720000D02*
X154980000Y-35720000D01*
X148010000Y-34210000D02*
X148010000Y-35720000D01*
X151711000Y-34210000D02*
X151711000Y-35720000D01*
X90380000Y-49720000D02*
X90380000Y-48990000D01*
X90380000Y-47530000D02*
X90380000Y-46449000D01*
X92500000Y-49720000D02*
X92500000Y-48990000D01*
X92500000Y-47530000D02*
X92500000Y-46449000D01*
X90380000Y-49530000D02*
X92500000Y-49530000D01*
X98870000Y-44660000D02*
X99600000Y-44660000D01*
X101060000Y-44660000D02*
X102141000Y-44660000D01*
X98870000Y-46780000D02*
X99600000Y-46780000D01*
X101060000Y-46780000D02*
X102141000Y-46780000D01*
X99060000Y-44660000D02*
X99060000Y-46780000D01*
X132140000Y-112970000D02*
X126940000Y-112970000D01*
X132140000Y-118110000D02*
X132140000Y-112970000D01*
X126940000Y-120710000D02*
X126940000Y-112970000D01*
X132140000Y-118110000D02*
X129540000Y-118110000D01*
X129540000Y-118110000D02*
X129540000Y-120710000D01*
X129540000Y-120710000D02*
X126940000Y-120710000D01*
X132140000Y-119380000D02*
X132140000Y-120710000D01*
X132140000Y-120710000D02*
X130810000Y-120710000D01*
X106620000Y-121980000D02*
X109280000Y-121980000D01*
X106620000Y-114300000D02*
X106620000Y-121980000D01*
X109280000Y-114300000D02*
X109280000Y-121980000D01*
X106620000Y-114300000D02*
X109280000Y-114300000D01*
X106620000Y-113030000D02*
X106620000Y-111700000D01*
X106620000Y-111700000D02*
X107950000Y-111700000D01*
X87690000Y-49470000D02*
X85030000Y-49470000D01*
X87690000Y-80010000D02*
X87690000Y-49470000D01*
X85030000Y-80010000D02*
X85030000Y-49470000D01*
X87690000Y-80010000D02*
X85030000Y-80010000D01*
X87690000Y-81280000D02*
X87690000Y-82610000D01*
X87690000Y-82610000D02*
X86360000Y-82610000D01*
X178816000Y-36830000D02*
G75*
G03X178816000Y-36830000I-2286000J0D01*
G01*
X178816000Y-125730000D02*
G75*
G03X178816000Y-125730000I-2286000J0D01*
G01*
X102616000Y-38100000D02*
G75*
G03X102616000Y-38100000I-2286000J0D01*
G01*
X89916000Y-125730000D02*
G75*
G03X89916000Y-125730000I-2286000J0D01*
G01*
D11*
X97567905Y-49236381D02*
X98234572Y-50236381D01*
X98234572Y-49236381D02*
X97567905Y-50236381D01*
X98567905Y-49950667D02*
X99044096Y-49950667D01*
X98472667Y-50236381D02*
X98806000Y-49236381D01*
X99139334Y-50236381D01*
X99996477Y-50236381D02*
X99425048Y-50236381D01*
X99710762Y-50236381D02*
X99710762Y-49236381D01*
X99615524Y-49379238D01*
X99520286Y-49474476D01*
X99425048Y-49522095D01*
D13*
X104779048Y-49891190D02*
X104779048Y-50295952D01*
X104802857Y-50343571D01*
X104826667Y-50367381D01*
X104874286Y-50391190D01*
X104969524Y-50391190D01*
X105017143Y-50367381D01*
X105040952Y-50343571D01*
X105064762Y-50295952D01*
X105064762Y-49891190D01*
X105279048Y-50367381D02*
X105350477Y-50391190D01*
X105469524Y-50391190D01*
X105517143Y-50367381D01*
X105540953Y-50343571D01*
X105564762Y-50295952D01*
X105564762Y-50248333D01*
X105540953Y-50200714D01*
X105517143Y-50176905D01*
X105469524Y-50153095D01*
X105374286Y-50129286D01*
X105326667Y-50105476D01*
X105302858Y-50081667D01*
X105279048Y-50034048D01*
X105279048Y-49986429D01*
X105302858Y-49938810D01*
X105326667Y-49915000D01*
X105374286Y-49891190D01*
X105493334Y-49891190D01*
X105564762Y-49915000D01*
X105945714Y-50129286D02*
X106017143Y-50153095D01*
X106040952Y-50176905D01*
X106064762Y-50224524D01*
X106064762Y-50295952D01*
X106040952Y-50343571D01*
X106017143Y-50367381D01*
X105969524Y-50391190D01*
X105779048Y-50391190D01*
X105779048Y-49891190D01*
X105945714Y-49891190D01*
X105993333Y-49915000D01*
X106017143Y-49938810D01*
X106040952Y-49986429D01*
X106040952Y-50034048D01*
X106017143Y-50081667D01*
X105993333Y-50105476D01*
X105945714Y-50129286D01*
X105779048Y-50129286D01*
X98786190Y-57888094D02*
X98786190Y-57578571D01*
X98976667Y-57745237D01*
X98976667Y-57673809D01*
X99000476Y-57626190D01*
X99024286Y-57602380D01*
X99071905Y-57578571D01*
X99190952Y-57578571D01*
X99238571Y-57602380D01*
X99262381Y-57626190D01*
X99286190Y-57673809D01*
X99286190Y-57816666D01*
X99262381Y-57864285D01*
X99238571Y-57888094D01*
X99238571Y-57364285D02*
X99262381Y-57340476D01*
X99286190Y-57364285D01*
X99262381Y-57388095D01*
X99238571Y-57364285D01*
X99286190Y-57364285D01*
X98786190Y-57173809D02*
X98786190Y-56864286D01*
X98976667Y-57030952D01*
X98976667Y-56959524D01*
X99000476Y-56911905D01*
X99024286Y-56888095D01*
X99071905Y-56864286D01*
X99190952Y-56864286D01*
X99238571Y-56888095D01*
X99262381Y-56911905D01*
X99286190Y-56959524D01*
X99286190Y-57102381D01*
X99262381Y-57150000D01*
X99238571Y-57173809D01*
X98786190Y-56721429D02*
X99286190Y-56554762D01*
X98786190Y-56388096D01*
D11*
X165087143Y-120856666D02*
X165134762Y-120904285D01*
X165182381Y-121047142D01*
X165182381Y-121142380D01*
X165134762Y-121285238D01*
X165039524Y-121380476D01*
X164944286Y-121428095D01*
X164753810Y-121475714D01*
X164610952Y-121475714D01*
X164420476Y-121428095D01*
X164325238Y-121380476D01*
X164230000Y-121285238D01*
X164182381Y-121142380D01*
X164182381Y-121047142D01*
X164230000Y-120904285D01*
X164277619Y-120856666D01*
X165182381Y-119904285D02*
X165182381Y-120475714D01*
X165182381Y-120190000D02*
X164182381Y-120190000D01*
X164325238Y-120285238D01*
X164420476Y-120380476D01*
X164468095Y-120475714D01*
X157473334Y-53427143D02*
X157425715Y-53474762D01*
X157282858Y-53522381D01*
X157187620Y-53522381D01*
X157044762Y-53474762D01*
X156949524Y-53379524D01*
X156901905Y-53284286D01*
X156854286Y-53093810D01*
X156854286Y-52950952D01*
X156901905Y-52760476D01*
X156949524Y-52665238D01*
X157044762Y-52570000D01*
X157187620Y-52522381D01*
X157282858Y-52522381D01*
X157425715Y-52570000D01*
X157473334Y-52617619D01*
X157854286Y-52617619D02*
X157901905Y-52570000D01*
X157997143Y-52522381D01*
X158235239Y-52522381D01*
X158330477Y-52570000D01*
X158378096Y-52617619D01*
X158425715Y-52712857D01*
X158425715Y-52808095D01*
X158378096Y-52950952D01*
X157806667Y-53522381D01*
X158425715Y-53522381D01*
X110363334Y-48807143D02*
X110315715Y-48854762D01*
X110172858Y-48902381D01*
X110077620Y-48902381D01*
X109934762Y-48854762D01*
X109839524Y-48759524D01*
X109791905Y-48664286D01*
X109744286Y-48473810D01*
X109744286Y-48330952D01*
X109791905Y-48140476D01*
X109839524Y-48045238D01*
X109934762Y-47950000D01*
X110077620Y-47902381D01*
X110172858Y-47902381D01*
X110315715Y-47950000D01*
X110363334Y-47997619D01*
X110696667Y-47902381D02*
X111315715Y-47902381D01*
X110982381Y-48283333D01*
X111125239Y-48283333D01*
X111220477Y-48330952D01*
X111268096Y-48378571D01*
X111315715Y-48473810D01*
X111315715Y-48711905D01*
X111268096Y-48807143D01*
X111220477Y-48854762D01*
X111125239Y-48902381D01*
X110839524Y-48902381D01*
X110744286Y-48854762D01*
X110696667Y-48807143D01*
X145367143Y-47116666D02*
X145414762Y-47164285D01*
X145462381Y-47307142D01*
X145462381Y-47402380D01*
X145414762Y-47545238D01*
X145319524Y-47640476D01*
X145224286Y-47688095D01*
X145033810Y-47735714D01*
X144890952Y-47735714D01*
X144700476Y-47688095D01*
X144605238Y-47640476D01*
X144510000Y-47545238D01*
X144462381Y-47402380D01*
X144462381Y-47307142D01*
X144510000Y-47164285D01*
X144557619Y-47116666D01*
X144795714Y-46259523D02*
X145462381Y-46259523D01*
X144414762Y-46497619D02*
X145129048Y-46735714D01*
X145129048Y-46116666D01*
X133897143Y-42036666D02*
X133944762Y-42084285D01*
X133992381Y-42227142D01*
X133992381Y-42322380D01*
X133944762Y-42465238D01*
X133849524Y-42560476D01*
X133754286Y-42608095D01*
X133563810Y-42655714D01*
X133420952Y-42655714D01*
X133230476Y-42608095D01*
X133135238Y-42560476D01*
X133040000Y-42465238D01*
X132992381Y-42322380D01*
X132992381Y-42227142D01*
X133040000Y-42084285D01*
X133087619Y-42036666D01*
X132992381Y-41131904D02*
X132992381Y-41608095D01*
X133468571Y-41655714D01*
X133420952Y-41608095D01*
X133373333Y-41512857D01*
X133373333Y-41274761D01*
X133420952Y-41179523D01*
X133468571Y-41131904D01*
X133563810Y-41084285D01*
X133801905Y-41084285D01*
X133897143Y-41131904D01*
X133944762Y-41179523D01*
X133992381Y-41274761D01*
X133992381Y-41512857D01*
X133944762Y-41608095D01*
X133897143Y-41655714D01*
X139493334Y-36817143D02*
X139445715Y-36864762D01*
X139302858Y-36912381D01*
X139207620Y-36912381D01*
X139064762Y-36864762D01*
X138969524Y-36769524D01*
X138921905Y-36674286D01*
X138874286Y-36483810D01*
X138874286Y-36340952D01*
X138921905Y-36150476D01*
X138969524Y-36055238D01*
X139064762Y-35960000D01*
X139207620Y-35912381D01*
X139302858Y-35912381D01*
X139445715Y-35960000D01*
X139493334Y-36007619D01*
X140350477Y-35912381D02*
X140160000Y-35912381D01*
X140064762Y-35960000D01*
X140017143Y-36007619D01*
X139921905Y-36150476D01*
X139874286Y-36340952D01*
X139874286Y-36721905D01*
X139921905Y-36817143D01*
X139969524Y-36864762D01*
X140064762Y-36912381D01*
X140255239Y-36912381D01*
X140350477Y-36864762D01*
X140398096Y-36817143D01*
X140445715Y-36721905D01*
X140445715Y-36483810D01*
X140398096Y-36388571D01*
X140350477Y-36340952D01*
X140255239Y-36293333D01*
X140064762Y-36293333D01*
X139969524Y-36340952D01*
X139921905Y-36388571D01*
X139874286Y-36483810D01*
X90157143Y-94186666D02*
X90204762Y-94234285D01*
X90252381Y-94377142D01*
X90252381Y-94472380D01*
X90204762Y-94615238D01*
X90109524Y-94710476D01*
X90014286Y-94758095D01*
X89823810Y-94805714D01*
X89680952Y-94805714D01*
X89490476Y-94758095D01*
X89395238Y-94710476D01*
X89300000Y-94615238D01*
X89252381Y-94472380D01*
X89252381Y-94377142D01*
X89300000Y-94234285D01*
X89347619Y-94186666D01*
X89252381Y-93853333D02*
X89252381Y-93186666D01*
X90252381Y-93615238D01*
X127582381Y-97258095D02*
X126582381Y-97258095D01*
X126582381Y-97020000D01*
X126630000Y-96877142D01*
X126725238Y-96781904D01*
X126820476Y-96734285D01*
X127010952Y-96686666D01*
X127153810Y-96686666D01*
X127344286Y-96734285D01*
X127439524Y-96781904D01*
X127534762Y-96877142D01*
X127582381Y-97020000D01*
X127582381Y-97258095D01*
X127582381Y-95734285D02*
X127582381Y-96305714D01*
X127582381Y-96020000D02*
X126582381Y-96020000D01*
X126725238Y-96115238D01*
X126820476Y-96210476D01*
X126868095Y-96305714D01*
X89222381Y-97258095D02*
X88222381Y-97258095D01*
X88222381Y-97020000D01*
X88270000Y-96877142D01*
X88365238Y-96781904D01*
X88460476Y-96734285D01*
X88650952Y-96686666D01*
X88793810Y-96686666D01*
X88984286Y-96734285D01*
X89079524Y-96781904D01*
X89174762Y-96877142D01*
X89222381Y-97020000D01*
X89222381Y-97258095D01*
X88222381Y-96353333D02*
X88222381Y-95734285D01*
X88603333Y-96067619D01*
X88603333Y-95924761D01*
X88650952Y-95829523D01*
X88698571Y-95781904D01*
X88793810Y-95734285D01*
X89031905Y-95734285D01*
X89127143Y-95781904D01*
X89174762Y-95829523D01*
X89222381Y-95924761D01*
X89222381Y-96210476D01*
X89174762Y-96305714D01*
X89127143Y-96353333D01*
X174926667Y-54062381D02*
X174926667Y-54776667D01*
X174879047Y-54919524D01*
X174783809Y-55014762D01*
X174640952Y-55062381D01*
X174545714Y-55062381D01*
X175926667Y-55062381D02*
X175355238Y-55062381D01*
X175640952Y-55062381D02*
X175640952Y-54062381D01*
X175545714Y-54205238D01*
X175450476Y-54300476D01*
X175355238Y-54348095D01*
X150852381Y-67643333D02*
X151566667Y-67643333D01*
X151709524Y-67690953D01*
X151804762Y-67786191D01*
X151852381Y-67929048D01*
X151852381Y-68024286D01*
X150852381Y-67262381D02*
X150852381Y-66643333D01*
X151233333Y-66976667D01*
X151233333Y-66833809D01*
X151280952Y-66738571D01*
X151328571Y-66690952D01*
X151423810Y-66643333D01*
X151661905Y-66643333D01*
X151757143Y-66690952D01*
X151804762Y-66738571D01*
X151852381Y-66833809D01*
X151852381Y-67119524D01*
X151804762Y-67214762D01*
X151757143Y-67262381D01*
X123023334Y-56652381D02*
X122690000Y-56176190D01*
X122451905Y-56652381D02*
X122451905Y-55652381D01*
X122832858Y-55652381D01*
X122928096Y-55700000D01*
X122975715Y-55747619D01*
X123023334Y-55842857D01*
X123023334Y-55985714D01*
X122975715Y-56080952D01*
X122928096Y-56128571D01*
X122832858Y-56176190D01*
X122451905Y-56176190D01*
X123975715Y-56652381D02*
X123404286Y-56652381D01*
X123690000Y-56652381D02*
X123690000Y-55652381D01*
X123594762Y-55795238D01*
X123499524Y-55890476D01*
X123404286Y-55938095D01*
X115702381Y-75096666D02*
X115226190Y-75430000D01*
X115702381Y-75668095D02*
X114702381Y-75668095D01*
X114702381Y-75287142D01*
X114750000Y-75191904D01*
X114797619Y-75144285D01*
X114892857Y-75096666D01*
X115035714Y-75096666D01*
X115130952Y-75144285D01*
X115178571Y-75191904D01*
X115226190Y-75287142D01*
X115226190Y-75668095D01*
X114797619Y-74715714D02*
X114750000Y-74668095D01*
X114702381Y-74572857D01*
X114702381Y-74334761D01*
X114750000Y-74239523D01*
X114797619Y-74191904D01*
X114892857Y-74144285D01*
X114988095Y-74144285D01*
X115130952Y-74191904D01*
X115702381Y-74763333D01*
X115702381Y-74144285D01*
X168092381Y-106846666D02*
X167616190Y-107180000D01*
X168092381Y-107418095D02*
X167092381Y-107418095D01*
X167092381Y-107037142D01*
X167140000Y-106941904D01*
X167187619Y-106894285D01*
X167282857Y-106846666D01*
X167425714Y-106846666D01*
X167520952Y-106894285D01*
X167568571Y-106941904D01*
X167616190Y-107037142D01*
X167616190Y-107418095D01*
X167092381Y-106513333D02*
X167092381Y-105894285D01*
X167473333Y-106227619D01*
X167473333Y-106084761D01*
X167520952Y-105989523D01*
X167568571Y-105941904D01*
X167663810Y-105894285D01*
X167901905Y-105894285D01*
X167997143Y-105941904D01*
X168044762Y-105989523D01*
X168092381Y-106084761D01*
X168092381Y-106370476D01*
X168044762Y-106465714D01*
X167997143Y-106513333D01*
X116022381Y-117006666D02*
X115546190Y-117340000D01*
X116022381Y-117578095D02*
X115022381Y-117578095D01*
X115022381Y-117197142D01*
X115070000Y-117101904D01*
X115117619Y-117054285D01*
X115212857Y-117006666D01*
X115355714Y-117006666D01*
X115450952Y-117054285D01*
X115498571Y-117101904D01*
X115546190Y-117197142D01*
X115546190Y-117578095D01*
X115355714Y-116149523D02*
X116022381Y-116149523D01*
X114974762Y-116387619D02*
X115689048Y-116625714D01*
X115689048Y-116006666D01*
X171902381Y-64936666D02*
X171426190Y-65270000D01*
X171902381Y-65508095D02*
X170902381Y-65508095D01*
X170902381Y-65127142D01*
X170950000Y-65031904D01*
X170997619Y-64984285D01*
X171092857Y-64936666D01*
X171235714Y-64936666D01*
X171330952Y-64984285D01*
X171378571Y-65031904D01*
X171426190Y-65127142D01*
X171426190Y-65508095D01*
X170902381Y-64031904D02*
X170902381Y-64508095D01*
X171378571Y-64555714D01*
X171330952Y-64508095D01*
X171283333Y-64412857D01*
X171283333Y-64174761D01*
X171330952Y-64079523D01*
X171378571Y-64031904D01*
X171473810Y-63984285D01*
X171711905Y-63984285D01*
X171807143Y-64031904D01*
X171854762Y-64079523D01*
X171902381Y-64174761D01*
X171902381Y-64412857D01*
X171854762Y-64508095D01*
X171807143Y-64555714D01*
X165232381Y-86526666D02*
X164756190Y-86860000D01*
X165232381Y-87098095D02*
X164232381Y-87098095D01*
X164232381Y-86717142D01*
X164280000Y-86621904D01*
X164327619Y-86574285D01*
X164422857Y-86526666D01*
X164565714Y-86526666D01*
X164660952Y-86574285D01*
X164708571Y-86621904D01*
X164756190Y-86717142D01*
X164756190Y-87098095D01*
X164232381Y-85669523D02*
X164232381Y-85860000D01*
X164280000Y-85955238D01*
X164327619Y-86002857D01*
X164470476Y-86098095D01*
X164660952Y-86145714D01*
X165041905Y-86145714D01*
X165137143Y-86098095D01*
X165184762Y-86050476D01*
X165232381Y-85955238D01*
X165232381Y-85764761D01*
X165184762Y-85669523D01*
X165137143Y-85621904D01*
X165041905Y-85574285D01*
X164803810Y-85574285D01*
X164708571Y-85621904D01*
X164660952Y-85669523D01*
X164613333Y-85764761D01*
X164613333Y-85955238D01*
X164660952Y-86050476D01*
X164708571Y-86098095D01*
X164803810Y-86145714D01*
X125232381Y-117006666D02*
X124756190Y-117340000D01*
X125232381Y-117578095D02*
X124232381Y-117578095D01*
X124232381Y-117197142D01*
X124280000Y-117101904D01*
X124327619Y-117054285D01*
X124422857Y-117006666D01*
X124565714Y-117006666D01*
X124660952Y-117054285D01*
X124708571Y-117101904D01*
X124756190Y-117197142D01*
X124756190Y-117578095D01*
X124232381Y-116673333D02*
X124232381Y-116006666D01*
X125232381Y-116435238D01*
X115702381Y-95416666D02*
X115226190Y-95750000D01*
X115702381Y-95988095D02*
X114702381Y-95988095D01*
X114702381Y-95607142D01*
X114750000Y-95511904D01*
X114797619Y-95464285D01*
X114892857Y-95416666D01*
X115035714Y-95416666D01*
X115130952Y-95464285D01*
X115178571Y-95511904D01*
X115226190Y-95607142D01*
X115226190Y-95988095D01*
X115130952Y-94845238D02*
X115083333Y-94940476D01*
X115035714Y-94988095D01*
X114940476Y-95035714D01*
X114892857Y-95035714D01*
X114797619Y-94988095D01*
X114750000Y-94940476D01*
X114702381Y-94845238D01*
X114702381Y-94654761D01*
X114750000Y-94559523D01*
X114797619Y-94511904D01*
X114892857Y-94464285D01*
X114940476Y-94464285D01*
X115035714Y-94511904D01*
X115083333Y-94559523D01*
X115130952Y-94654761D01*
X115130952Y-94845238D01*
X115178571Y-94940476D01*
X115226190Y-94988095D01*
X115321429Y-95035714D01*
X115511905Y-95035714D01*
X115607143Y-94988095D01*
X115654762Y-94940476D01*
X115702381Y-94845238D01*
X115702381Y-94654761D01*
X115654762Y-94559523D01*
X115607143Y-94511904D01*
X115511905Y-94464285D01*
X115321429Y-94464285D01*
X115226190Y-94511904D01*
X115178571Y-94559523D01*
X115130952Y-94654761D01*
X125862381Y-72556666D02*
X125386190Y-72890000D01*
X125862381Y-73128095D02*
X124862381Y-73128095D01*
X124862381Y-72747142D01*
X124910000Y-72651904D01*
X124957619Y-72604285D01*
X125052857Y-72556666D01*
X125195714Y-72556666D01*
X125290952Y-72604285D01*
X125338571Y-72651904D01*
X125386190Y-72747142D01*
X125386190Y-73128095D01*
X125862381Y-72080476D02*
X125862381Y-71890000D01*
X125814762Y-71794761D01*
X125767143Y-71747142D01*
X125624286Y-71651904D01*
X125433810Y-71604285D01*
X125052857Y-71604285D01*
X124957619Y-71651904D01*
X124910000Y-71699523D01*
X124862381Y-71794761D01*
X124862381Y-71985238D01*
X124910000Y-72080476D01*
X124957619Y-72128095D01*
X125052857Y-72175714D01*
X125290952Y-72175714D01*
X125386190Y-72128095D01*
X125433810Y-72080476D01*
X125481429Y-71985238D01*
X125481429Y-71794761D01*
X125433810Y-71699523D01*
X125386190Y-71651904D01*
X125290952Y-71604285D01*
X120782381Y-69222857D02*
X120306190Y-69556191D01*
X120782381Y-69794286D02*
X119782381Y-69794286D01*
X119782381Y-69413333D01*
X119830000Y-69318095D01*
X119877619Y-69270476D01*
X119972857Y-69222857D01*
X120115714Y-69222857D01*
X120210952Y-69270476D01*
X120258571Y-69318095D01*
X120306190Y-69413333D01*
X120306190Y-69794286D01*
X120782381Y-68270476D02*
X120782381Y-68841905D01*
X120782381Y-68556191D02*
X119782381Y-68556191D01*
X119925238Y-68651429D01*
X120020476Y-68746667D01*
X120068095Y-68841905D01*
X119782381Y-67651429D02*
X119782381Y-67556190D01*
X119830000Y-67460952D01*
X119877619Y-67413333D01*
X119972857Y-67365714D01*
X120163333Y-67318095D01*
X120401429Y-67318095D01*
X120591905Y-67365714D01*
X120687143Y-67413333D01*
X120734762Y-67460952D01*
X120782381Y-67556190D01*
X120782381Y-67651429D01*
X120734762Y-67746667D01*
X120687143Y-67794286D01*
X120591905Y-67841905D01*
X120401429Y-67889524D01*
X120163333Y-67889524D01*
X119972857Y-67841905D01*
X119877619Y-67794286D01*
X119830000Y-67746667D01*
X119782381Y-67651429D01*
X90302381Y-61602857D02*
X89826190Y-61936191D01*
X90302381Y-62174286D02*
X89302381Y-62174286D01*
X89302381Y-61793333D01*
X89350000Y-61698095D01*
X89397619Y-61650476D01*
X89492857Y-61602857D01*
X89635714Y-61602857D01*
X89730952Y-61650476D01*
X89778571Y-61698095D01*
X89826190Y-61793333D01*
X89826190Y-62174286D01*
X90302381Y-60650476D02*
X90302381Y-61221905D01*
X90302381Y-60936191D02*
X89302381Y-60936191D01*
X89445238Y-61031429D01*
X89540476Y-61126667D01*
X89588095Y-61221905D01*
X90302381Y-59698095D02*
X90302381Y-60269524D01*
X90302381Y-59983810D02*
X89302381Y-59983810D01*
X89445238Y-60079048D01*
X89540476Y-60174286D01*
X89588095Y-60269524D01*
X152908095Y-102322381D02*
X152908095Y-103131905D01*
X152955714Y-103227143D01*
X153003333Y-103274762D01*
X153098571Y-103322381D01*
X153289048Y-103322381D01*
X153384286Y-103274762D01*
X153431905Y-103227143D01*
X153479524Y-103131905D01*
X153479524Y-102322381D01*
X153860476Y-102322381D02*
X154479524Y-102322381D01*
X154146190Y-102703333D01*
X154289048Y-102703333D01*
X154384286Y-102750952D01*
X154431905Y-102798571D01*
X154479524Y-102893810D01*
X154479524Y-103131905D01*
X154431905Y-103227143D01*
X154384286Y-103274762D01*
X154289048Y-103322381D01*
X154003333Y-103322381D01*
X153908095Y-103274762D01*
X153860476Y-103227143D01*
X158924762Y-87082381D02*
X159258095Y-88082381D01*
X159591429Y-87082381D01*
X159924762Y-88082381D02*
X159924762Y-87082381D01*
X160400952Y-88082381D02*
X160400952Y-87082381D01*
X160972381Y-88082381D01*
X160972381Y-87082381D01*
X160281905Y-89670000D02*
X160186667Y-89622381D01*
X160043810Y-89622381D01*
X159900952Y-89670000D01*
X159805714Y-89765238D01*
X159758095Y-89860476D01*
X159710476Y-90050952D01*
X159710476Y-90193810D01*
X159758095Y-90384286D01*
X159805714Y-90479524D01*
X159900952Y-90574762D01*
X160043810Y-90622381D01*
X160139048Y-90622381D01*
X160281905Y-90574762D01*
X160329524Y-90527143D01*
X160329524Y-90193810D01*
X160139048Y-90193810D01*
X159472381Y-93162381D02*
X159139047Y-92686190D01*
X158900952Y-93162381D02*
X158900952Y-92162381D01*
X159281905Y-92162381D01*
X159377143Y-92210000D01*
X159424762Y-92257619D01*
X159472381Y-92352857D01*
X159472381Y-92495714D01*
X159424762Y-92590952D01*
X159377143Y-92638571D01*
X159281905Y-92686190D01*
X158900952Y-92686190D01*
X159853333Y-93114762D02*
X159996190Y-93162381D01*
X160234286Y-93162381D01*
X160329524Y-93114762D01*
X160377143Y-93067143D01*
X160424762Y-92971905D01*
X160424762Y-92876667D01*
X160377143Y-92781429D01*
X160329524Y-92733810D01*
X160234286Y-92686190D01*
X160043809Y-92638571D01*
X159948571Y-92590952D01*
X159900952Y-92543333D01*
X159853333Y-92448095D01*
X159853333Y-92352857D01*
X159900952Y-92257619D01*
X159948571Y-92210000D01*
X160043809Y-92162381D01*
X160281905Y-92162381D01*
X160424762Y-92210000D01*
X160710476Y-92162381D02*
X161281905Y-92162381D01*
X160996190Y-93162381D02*
X160996190Y-92162381D01*
X159281905Y-95178571D02*
X159615239Y-95178571D01*
X159758096Y-95702381D02*
X159281905Y-95702381D01*
X159281905Y-94702381D01*
X159758096Y-94702381D01*
X160186667Y-95702381D02*
X160186667Y-94702381D01*
X160758096Y-95702381D01*
X160758096Y-94702381D01*
X159258095Y-97242381D02*
X159877143Y-97242381D01*
X159543809Y-97623333D01*
X159686667Y-97623333D01*
X159781905Y-97670952D01*
X159829524Y-97718571D01*
X159877143Y-97813810D01*
X159877143Y-98051905D01*
X159829524Y-98147143D01*
X159781905Y-98194762D01*
X159686667Y-98242381D01*
X159400952Y-98242381D01*
X159305714Y-98194762D01*
X159258095Y-98147143D01*
X160162857Y-97242381D02*
X160496190Y-98242381D01*
X160829524Y-97242381D01*
X160281905Y-99830000D02*
X160186667Y-99782381D01*
X160043810Y-99782381D01*
X159900952Y-99830000D01*
X159805714Y-99925238D01*
X159758095Y-100020476D01*
X159710476Y-100210952D01*
X159710476Y-100353810D01*
X159758095Y-100544286D01*
X159805714Y-100639524D01*
X159900952Y-100734762D01*
X160043810Y-100782381D01*
X160139048Y-100782381D01*
X160281905Y-100734762D01*
X160329524Y-100687143D01*
X160329524Y-100353810D01*
X160139048Y-100353810D01*
X159234286Y-103274762D02*
X159377143Y-103322381D01*
X159615239Y-103322381D01*
X159710477Y-103274762D01*
X159758096Y-103227143D01*
X159805715Y-103131905D01*
X159805715Y-103036667D01*
X159758096Y-102941429D01*
X159710477Y-102893810D01*
X159615239Y-102846190D01*
X159424762Y-102798571D01*
X159329524Y-102750952D01*
X159281905Y-102703333D01*
X159234286Y-102608095D01*
X159234286Y-102512857D01*
X159281905Y-102417619D01*
X159329524Y-102370000D01*
X159424762Y-102322381D01*
X159662858Y-102322381D01*
X159805715Y-102370000D01*
X160234286Y-103322381D02*
X160234286Y-102322381D01*
X160805715Y-103322381D02*
X160377143Y-102750952D01*
X160805715Y-102322381D02*
X160234286Y-102893810D01*
X159210476Y-105814762D02*
X159353333Y-105862381D01*
X159591429Y-105862381D01*
X159686667Y-105814762D01*
X159734286Y-105767143D01*
X159781905Y-105671905D01*
X159781905Y-105576667D01*
X159734286Y-105481429D01*
X159686667Y-105433810D01*
X159591429Y-105386190D01*
X159400952Y-105338571D01*
X159305714Y-105290952D01*
X159258095Y-105243333D01*
X159210476Y-105148095D01*
X159210476Y-105052857D01*
X159258095Y-104957619D01*
X159305714Y-104910000D01*
X159400952Y-104862381D01*
X159639048Y-104862381D01*
X159781905Y-104910000D01*
X160400952Y-104862381D02*
X160591429Y-104862381D01*
X160686667Y-104910000D01*
X160781905Y-105005238D01*
X160829524Y-105195714D01*
X160829524Y-105529048D01*
X160781905Y-105719524D01*
X160686667Y-105814762D01*
X160591429Y-105862381D01*
X160400952Y-105862381D01*
X160305714Y-105814762D01*
X160210476Y-105719524D01*
X160162857Y-105529048D01*
X160162857Y-105195714D01*
X160210476Y-105005238D01*
X160305714Y-104910000D01*
X160400952Y-104862381D01*
X159234286Y-108354762D02*
X159377143Y-108402381D01*
X159615239Y-108402381D01*
X159710477Y-108354762D01*
X159758096Y-108307143D01*
X159805715Y-108211905D01*
X159805715Y-108116667D01*
X159758096Y-108021429D01*
X159710477Y-107973810D01*
X159615239Y-107926190D01*
X159424762Y-107878571D01*
X159329524Y-107830952D01*
X159281905Y-107783333D01*
X159234286Y-107688095D01*
X159234286Y-107592857D01*
X159281905Y-107497619D01*
X159329524Y-107450000D01*
X159424762Y-107402381D01*
X159662858Y-107402381D01*
X159805715Y-107450000D01*
X160805715Y-108307143D02*
X160758096Y-108354762D01*
X160615239Y-108402381D01*
X160520001Y-108402381D01*
X160377143Y-108354762D01*
X160281905Y-108259524D01*
X160234286Y-108164286D01*
X160186667Y-107973810D01*
X160186667Y-107830952D01*
X160234286Y-107640476D01*
X160281905Y-107545238D01*
X160377143Y-107450000D01*
X160520001Y-107402381D01*
X160615239Y-107402381D01*
X160758096Y-107450000D01*
X160805715Y-107497619D01*
X159258095Y-110894762D02*
X159400952Y-110942381D01*
X159639048Y-110942381D01*
X159734286Y-110894762D01*
X159781905Y-110847143D01*
X159829524Y-110751905D01*
X159829524Y-110656667D01*
X159781905Y-110561429D01*
X159734286Y-110513810D01*
X159639048Y-110466190D01*
X159448571Y-110418571D01*
X159353333Y-110370952D01*
X159305714Y-110323333D01*
X159258095Y-110228095D01*
X159258095Y-110132857D01*
X159305714Y-110037619D01*
X159353333Y-109990000D01*
X159448571Y-109942381D01*
X159686667Y-109942381D01*
X159829524Y-109990000D01*
X160781905Y-110942381D02*
X160210476Y-110942381D01*
X160496190Y-110942381D02*
X160496190Y-109942381D01*
X160400952Y-110085238D01*
X160305714Y-110180476D01*
X160210476Y-110228095D01*
X159258095Y-113434762D02*
X159400952Y-113482381D01*
X159639048Y-113482381D01*
X159734286Y-113434762D01*
X159781905Y-113387143D01*
X159829524Y-113291905D01*
X159829524Y-113196667D01*
X159781905Y-113101429D01*
X159734286Y-113053810D01*
X159639048Y-113006190D01*
X159448571Y-112958571D01*
X159353333Y-112910952D01*
X159305714Y-112863333D01*
X159258095Y-112768095D01*
X159258095Y-112672857D01*
X159305714Y-112577619D01*
X159353333Y-112530000D01*
X159448571Y-112482381D01*
X159686667Y-112482381D01*
X159829524Y-112530000D01*
X160210476Y-112577619D02*
X160258095Y-112530000D01*
X160353333Y-112482381D01*
X160591429Y-112482381D01*
X160686667Y-112530000D01*
X160734286Y-112577619D01*
X160781905Y-112672857D01*
X160781905Y-112768095D01*
X160734286Y-112910952D01*
X160162857Y-113482381D01*
X160781905Y-113482381D01*
X159258095Y-115974762D02*
X159400952Y-116022381D01*
X159639048Y-116022381D01*
X159734286Y-115974762D01*
X159781905Y-115927143D01*
X159829524Y-115831905D01*
X159829524Y-115736667D01*
X159781905Y-115641429D01*
X159734286Y-115593810D01*
X159639048Y-115546190D01*
X159448571Y-115498571D01*
X159353333Y-115450952D01*
X159305714Y-115403333D01*
X159258095Y-115308095D01*
X159258095Y-115212857D01*
X159305714Y-115117619D01*
X159353333Y-115070000D01*
X159448571Y-115022381D01*
X159686667Y-115022381D01*
X159829524Y-115070000D01*
X160162857Y-115022381D02*
X160781905Y-115022381D01*
X160448571Y-115403333D01*
X160591429Y-115403333D01*
X160686667Y-115450952D01*
X160734286Y-115498571D01*
X160781905Y-115593810D01*
X160781905Y-115831905D01*
X160734286Y-115927143D01*
X160686667Y-115974762D01*
X160591429Y-116022381D01*
X160305714Y-116022381D01*
X160210476Y-115974762D01*
X160162857Y-115927143D01*
X159162857Y-117562381D02*
X159496190Y-118562381D01*
X159829524Y-117562381D01*
X160162857Y-117562381D02*
X160162857Y-118371905D01*
X160210476Y-118467143D01*
X160258095Y-118514762D01*
X160353333Y-118562381D01*
X160543810Y-118562381D01*
X160639048Y-118514762D01*
X160686667Y-118467143D01*
X160734286Y-118371905D01*
X160734286Y-117562381D01*
X160281905Y-120150000D02*
X160186667Y-120102381D01*
X160043810Y-120102381D01*
X159900952Y-120150000D01*
X159805714Y-120245238D01*
X159758095Y-120340476D01*
X159710476Y-120530952D01*
X159710476Y-120673810D01*
X159758095Y-120864286D01*
X159805714Y-120959524D01*
X159900952Y-121054762D01*
X160043810Y-121102381D01*
X160139048Y-121102381D01*
X160281905Y-121054762D01*
X160329524Y-121007143D01*
X160329524Y-120673810D01*
X160139048Y-120673810D01*
X159305714Y-123356667D02*
X159781905Y-123356667D01*
X159210476Y-123642381D02*
X159543809Y-122642381D01*
X159877143Y-123642381D01*
X160400952Y-122642381D02*
X160496191Y-122642381D01*
X160591429Y-122690000D01*
X160639048Y-122737619D01*
X160686667Y-122832857D01*
X160734286Y-123023333D01*
X160734286Y-123261429D01*
X160686667Y-123451905D01*
X160639048Y-123547143D01*
X160591429Y-123594762D01*
X160496191Y-123642381D01*
X160400952Y-123642381D01*
X160305714Y-123594762D01*
X160258095Y-123547143D01*
X160210476Y-123451905D01*
X160162857Y-123261429D01*
X160162857Y-123023333D01*
X160210476Y-122832857D01*
X160258095Y-122737619D01*
X160305714Y-122690000D01*
X160400952Y-122642381D01*
X141478095Y-87082381D02*
X142097143Y-87082381D01*
X141763809Y-87463333D01*
X141906667Y-87463333D01*
X142001905Y-87510952D01*
X142049524Y-87558571D01*
X142097143Y-87653810D01*
X142097143Y-87891905D01*
X142049524Y-87987143D01*
X142001905Y-88034762D01*
X141906667Y-88082381D01*
X141620952Y-88082381D01*
X141525714Y-88034762D01*
X141478095Y-87987143D01*
X142382857Y-87082381D02*
X142716190Y-88082381D01*
X143049524Y-87082381D01*
X142501905Y-89670000D02*
X142406667Y-89622381D01*
X142263810Y-89622381D01*
X142120952Y-89670000D01*
X142025714Y-89765238D01*
X141978095Y-89860476D01*
X141930476Y-90050952D01*
X141930476Y-90193810D01*
X141978095Y-90384286D01*
X142025714Y-90479524D01*
X142120952Y-90574762D01*
X142263810Y-90622381D01*
X142359048Y-90622381D01*
X142501905Y-90574762D01*
X142549524Y-90527143D01*
X142549524Y-90193810D01*
X142359048Y-90193810D01*
X141478095Y-92162381D02*
X142049524Y-92162381D01*
X141763809Y-93162381D02*
X141763809Y-92162381D01*
X142287619Y-92162381D02*
X142954286Y-93162381D01*
X142954286Y-92162381D02*
X142287619Y-93162381D01*
X142073334Y-95702381D02*
X141740000Y-95226190D01*
X141501905Y-95702381D02*
X141501905Y-94702381D01*
X141882858Y-94702381D01*
X141978096Y-94750000D01*
X142025715Y-94797619D01*
X142073334Y-94892857D01*
X142073334Y-95035714D01*
X142025715Y-95130952D01*
X141978096Y-95178571D01*
X141882858Y-95226190D01*
X141501905Y-95226190D01*
X142406667Y-94702381D02*
X143073334Y-95702381D01*
X143073334Y-94702381D02*
X142406667Y-95702381D01*
X141501905Y-98242381D02*
X141501905Y-97242381D01*
X141740000Y-97242381D01*
X141882858Y-97290000D01*
X141978096Y-97385238D01*
X142025715Y-97480476D01*
X142073334Y-97670952D01*
X142073334Y-97813810D01*
X142025715Y-98004286D01*
X141978096Y-98099524D01*
X141882858Y-98194762D01*
X141740000Y-98242381D01*
X141501905Y-98242381D01*
X142644762Y-97670952D02*
X142549524Y-97623333D01*
X142501905Y-97575714D01*
X142454286Y-97480476D01*
X142454286Y-97432857D01*
X142501905Y-97337619D01*
X142549524Y-97290000D01*
X142644762Y-97242381D01*
X142835239Y-97242381D01*
X142930477Y-97290000D01*
X142978096Y-97337619D01*
X143025715Y-97432857D01*
X143025715Y-97480476D01*
X142978096Y-97575714D01*
X142930477Y-97623333D01*
X142835239Y-97670952D01*
X142644762Y-97670952D01*
X142549524Y-97718571D01*
X142501905Y-97766190D01*
X142454286Y-97861429D01*
X142454286Y-98051905D01*
X142501905Y-98147143D01*
X142549524Y-98194762D01*
X142644762Y-98242381D01*
X142835239Y-98242381D01*
X142930477Y-98194762D01*
X142978096Y-98147143D01*
X143025715Y-98051905D01*
X143025715Y-97861429D01*
X142978096Y-97766190D01*
X142930477Y-97718571D01*
X142835239Y-97670952D01*
X141501905Y-100782381D02*
X141501905Y-99782381D01*
X141740000Y-99782381D01*
X141882858Y-99830000D01*
X141978096Y-99925238D01*
X142025715Y-100020476D01*
X142073334Y-100210952D01*
X142073334Y-100353810D01*
X142025715Y-100544286D01*
X141978096Y-100639524D01*
X141882858Y-100734762D01*
X141740000Y-100782381D01*
X141501905Y-100782381D01*
X142406667Y-99782381D02*
X143073334Y-99782381D01*
X142644762Y-100782381D01*
X141501905Y-103322381D02*
X141501905Y-102322381D01*
X141740000Y-102322381D01*
X141882858Y-102370000D01*
X141978096Y-102465238D01*
X142025715Y-102560476D01*
X142073334Y-102750952D01*
X142073334Y-102893810D01*
X142025715Y-103084286D01*
X141978096Y-103179524D01*
X141882858Y-103274762D01*
X141740000Y-103322381D01*
X141501905Y-103322381D01*
X142930477Y-102322381D02*
X142740000Y-102322381D01*
X142644762Y-102370000D01*
X142597143Y-102417619D01*
X142501905Y-102560476D01*
X142454286Y-102750952D01*
X142454286Y-103131905D01*
X142501905Y-103227143D01*
X142549524Y-103274762D01*
X142644762Y-103322381D01*
X142835239Y-103322381D01*
X142930477Y-103274762D01*
X142978096Y-103227143D01*
X143025715Y-103131905D01*
X143025715Y-102893810D01*
X142978096Y-102798571D01*
X142930477Y-102750952D01*
X142835239Y-102703333D01*
X142644762Y-102703333D01*
X142549524Y-102750952D01*
X142501905Y-102798571D01*
X142454286Y-102893810D01*
X141501905Y-105862381D02*
X141501905Y-104862381D01*
X141740000Y-104862381D01*
X141882858Y-104910000D01*
X141978096Y-105005238D01*
X142025715Y-105100476D01*
X142073334Y-105290952D01*
X142073334Y-105433810D01*
X142025715Y-105624286D01*
X141978096Y-105719524D01*
X141882858Y-105814762D01*
X141740000Y-105862381D01*
X141501905Y-105862381D01*
X142978096Y-104862381D02*
X142501905Y-104862381D01*
X142454286Y-105338571D01*
X142501905Y-105290952D01*
X142597143Y-105243333D01*
X142835239Y-105243333D01*
X142930477Y-105290952D01*
X142978096Y-105338571D01*
X143025715Y-105433810D01*
X143025715Y-105671905D01*
X142978096Y-105767143D01*
X142930477Y-105814762D01*
X142835239Y-105862381D01*
X142597143Y-105862381D01*
X142501905Y-105814762D01*
X142454286Y-105767143D01*
X142501905Y-107450000D02*
X142406667Y-107402381D01*
X142263810Y-107402381D01*
X142120952Y-107450000D01*
X142025714Y-107545238D01*
X141978095Y-107640476D01*
X141930476Y-107830952D01*
X141930476Y-107973810D01*
X141978095Y-108164286D01*
X142025714Y-108259524D01*
X142120952Y-108354762D01*
X142263810Y-108402381D01*
X142359048Y-108402381D01*
X142501905Y-108354762D01*
X142549524Y-108307143D01*
X142549524Y-107973810D01*
X142359048Y-107973810D01*
X141478095Y-109942381D02*
X142097143Y-109942381D01*
X141763809Y-110323333D01*
X141906667Y-110323333D01*
X142001905Y-110370952D01*
X142049524Y-110418571D01*
X142097143Y-110513810D01*
X142097143Y-110751905D01*
X142049524Y-110847143D01*
X142001905Y-110894762D01*
X141906667Y-110942381D01*
X141620952Y-110942381D01*
X141525714Y-110894762D01*
X141478095Y-110847143D01*
X142382857Y-109942381D02*
X142716190Y-110942381D01*
X143049524Y-109942381D01*
X141501905Y-113482381D02*
X141501905Y-112482381D01*
X141740000Y-112482381D01*
X141882858Y-112530000D01*
X141978096Y-112625238D01*
X142025715Y-112720476D01*
X142073334Y-112910952D01*
X142073334Y-113053810D01*
X142025715Y-113244286D01*
X141978096Y-113339524D01*
X141882858Y-113434762D01*
X141740000Y-113482381D01*
X141501905Y-113482381D01*
X142930477Y-112815714D02*
X142930477Y-113482381D01*
X142692381Y-112434762D02*
X142454286Y-113149048D01*
X143073334Y-113149048D01*
X141501905Y-116022381D02*
X141501905Y-115022381D01*
X141740000Y-115022381D01*
X141882858Y-115070000D01*
X141978096Y-115165238D01*
X142025715Y-115260476D01*
X142073334Y-115450952D01*
X142073334Y-115593810D01*
X142025715Y-115784286D01*
X141978096Y-115879524D01*
X141882858Y-115974762D01*
X141740000Y-116022381D01*
X141501905Y-116022381D01*
X142406667Y-115022381D02*
X143025715Y-115022381D01*
X142692381Y-115403333D01*
X142835239Y-115403333D01*
X142930477Y-115450952D01*
X142978096Y-115498571D01*
X143025715Y-115593810D01*
X143025715Y-115831905D01*
X142978096Y-115927143D01*
X142930477Y-115974762D01*
X142835239Y-116022381D01*
X142549524Y-116022381D01*
X142454286Y-115974762D01*
X142406667Y-115927143D01*
X141501905Y-118562381D02*
X141501905Y-117562381D01*
X141740000Y-117562381D01*
X141882858Y-117610000D01*
X141978096Y-117705238D01*
X142025715Y-117800476D01*
X142073334Y-117990952D01*
X142073334Y-118133810D01*
X142025715Y-118324286D01*
X141978096Y-118419524D01*
X141882858Y-118514762D01*
X141740000Y-118562381D01*
X141501905Y-118562381D01*
X142454286Y-117657619D02*
X142501905Y-117610000D01*
X142597143Y-117562381D01*
X142835239Y-117562381D01*
X142930477Y-117610000D01*
X142978096Y-117657619D01*
X143025715Y-117752857D01*
X143025715Y-117848095D01*
X142978096Y-117990952D01*
X142406667Y-118562381D01*
X143025715Y-118562381D01*
X141501905Y-121102381D02*
X141501905Y-120102381D01*
X141740000Y-120102381D01*
X141882858Y-120150000D01*
X141978096Y-120245238D01*
X142025715Y-120340476D01*
X142073334Y-120530952D01*
X142073334Y-120673810D01*
X142025715Y-120864286D01*
X141978096Y-120959524D01*
X141882858Y-121054762D01*
X141740000Y-121102381D01*
X141501905Y-121102381D01*
X143025715Y-121102381D02*
X142454286Y-121102381D01*
X142740000Y-121102381D02*
X142740000Y-120102381D01*
X142644762Y-120245238D01*
X142549524Y-120340476D01*
X142454286Y-120388095D01*
X141501905Y-123642381D02*
X141501905Y-122642381D01*
X141740000Y-122642381D01*
X141882858Y-122690000D01*
X141978096Y-122785238D01*
X142025715Y-122880476D01*
X142073334Y-123070952D01*
X142073334Y-123213810D01*
X142025715Y-123404286D01*
X141978096Y-123499524D01*
X141882858Y-123594762D01*
X141740000Y-123642381D01*
X141501905Y-123642381D01*
X142692381Y-122642381D02*
X142787620Y-122642381D01*
X142882858Y-122690000D01*
X142930477Y-122737619D01*
X142978096Y-122832857D01*
X143025715Y-123023333D01*
X143025715Y-123261429D01*
X142978096Y-123451905D01*
X142930477Y-123547143D01*
X142882858Y-123594762D01*
X142787620Y-123642381D01*
X142692381Y-123642381D01*
X142597143Y-123594762D01*
X142549524Y-123547143D01*
X142501905Y-123451905D01*
X142454286Y-123261429D01*
X142454286Y-123023333D01*
X142501905Y-122832857D01*
X142549524Y-122737619D01*
X142597143Y-122690000D01*
X142692381Y-122642381D01*
X139152381Y-69341905D02*
X139961905Y-69341905D01*
X140057143Y-69294286D01*
X140104762Y-69246667D01*
X140152381Y-69151429D01*
X140152381Y-68960952D01*
X140104762Y-68865714D01*
X140057143Y-68818095D01*
X139961905Y-68770476D01*
X139152381Y-68770476D01*
X139152381Y-67865714D02*
X139152381Y-68056191D01*
X139200000Y-68151429D01*
X139247619Y-68199048D01*
X139390476Y-68294286D01*
X139580952Y-68341905D01*
X139961905Y-68341905D01*
X140057143Y-68294286D01*
X140104762Y-68246667D01*
X140152381Y-68151429D01*
X140152381Y-67960952D01*
X140104762Y-67865714D01*
X140057143Y-67818095D01*
X139961905Y-67770476D01*
X139723810Y-67770476D01*
X139628571Y-67818095D01*
X139580952Y-67865714D01*
X139533333Y-67960952D01*
X139533333Y-68151429D01*
X139580952Y-68246667D01*
X139628571Y-68294286D01*
X139723810Y-68341905D01*
X129103810Y-64270000D02*
X129008572Y-64222381D01*
X128865715Y-64222381D01*
X128722857Y-64270000D01*
X128627619Y-64365238D01*
X128580000Y-64460476D01*
X128532381Y-64650952D01*
X128532381Y-64793810D01*
X128580000Y-64984286D01*
X128627619Y-65079524D01*
X128722857Y-65174762D01*
X128865715Y-65222381D01*
X128960953Y-65222381D01*
X129103810Y-65174762D01*
X129151429Y-65127143D01*
X129151429Y-64793810D01*
X128960953Y-64793810D01*
X129580000Y-65222381D02*
X129580000Y-64222381D01*
X130151429Y-65222381D01*
X130151429Y-64222381D01*
X130627619Y-65222381D02*
X130627619Y-64222381D01*
X130865714Y-64222381D01*
X131008572Y-64270000D01*
X131103810Y-64365238D01*
X131151429Y-64460476D01*
X131199048Y-64650952D01*
X131199048Y-64793810D01*
X131151429Y-64984286D01*
X131103810Y-65079524D01*
X131008572Y-65174762D01*
X130865714Y-65222381D01*
X130627619Y-65222381D01*
X132103810Y-65222381D02*
X131627619Y-65222381D01*
X131627619Y-64222381D01*
X132199048Y-65317619D02*
X132960953Y-65317619D01*
X133056191Y-64222381D02*
X133389524Y-65222381D01*
X133722858Y-64222381D01*
X134627620Y-65127143D02*
X134580001Y-65174762D01*
X134437144Y-65222381D01*
X134341906Y-65222381D01*
X134199048Y-65174762D01*
X134103810Y-65079524D01*
X134056191Y-64984286D01*
X134008572Y-64793810D01*
X134008572Y-64650952D01*
X134056191Y-64460476D01*
X134103810Y-64365238D01*
X134199048Y-64270000D01*
X134341906Y-64222381D01*
X134437144Y-64222381D01*
X134580001Y-64270000D01*
X134627620Y-64317619D01*
X135627620Y-65127143D02*
X135580001Y-65174762D01*
X135437144Y-65222381D01*
X135341906Y-65222381D01*
X135199048Y-65174762D01*
X135103810Y-65079524D01*
X135056191Y-64984286D01*
X135008572Y-64793810D01*
X135008572Y-64650952D01*
X135056191Y-64460476D01*
X135103810Y-64365238D01*
X135199048Y-64270000D01*
X135341906Y-64222381D01*
X135437144Y-64222381D01*
X135580001Y-64270000D01*
X135627620Y-64317619D01*
X131254762Y-67762381D02*
X131254762Y-66762381D01*
X131254762Y-67238571D02*
X131826191Y-67238571D01*
X131826191Y-67762381D02*
X131826191Y-66762381D01*
X132064286Y-67857619D02*
X132826191Y-67857619D01*
X132921429Y-66762381D02*
X133254762Y-67762381D01*
X133588096Y-66762381D01*
X134492858Y-67667143D02*
X134445239Y-67714762D01*
X134302382Y-67762381D01*
X134207144Y-67762381D01*
X134064286Y-67714762D01*
X133969048Y-67619524D01*
X133921429Y-67524286D01*
X133873810Y-67333810D01*
X133873810Y-67190952D01*
X133921429Y-67000476D01*
X133969048Y-66905238D01*
X134064286Y-66810000D01*
X134207144Y-66762381D01*
X134302382Y-66762381D01*
X134445239Y-66810000D01*
X134492858Y-66857619D01*
X135492858Y-67667143D02*
X135445239Y-67714762D01*
X135302382Y-67762381D01*
X135207144Y-67762381D01*
X135064286Y-67714762D01*
X134969048Y-67619524D01*
X134921429Y-67524286D01*
X134873810Y-67333810D01*
X134873810Y-67190952D01*
X134921429Y-67000476D01*
X134969048Y-66905238D01*
X135064286Y-66810000D01*
X135207144Y-66762381D01*
X135302382Y-66762381D01*
X135445239Y-66810000D01*
X135492858Y-66857619D01*
X132159524Y-55062381D02*
X132159524Y-54062381D01*
X132159524Y-54538571D02*
X132730953Y-54538571D01*
X132730953Y-55062381D02*
X132730953Y-54062381D01*
X133064286Y-54062381D02*
X133397619Y-55062381D01*
X133730953Y-54062381D01*
X134207143Y-54490952D02*
X134111905Y-54443333D01*
X134064286Y-54395714D01*
X134016667Y-54300476D01*
X134016667Y-54252857D01*
X134064286Y-54157619D01*
X134111905Y-54110000D01*
X134207143Y-54062381D01*
X134397620Y-54062381D01*
X134492858Y-54110000D01*
X134540477Y-54157619D01*
X134588096Y-54252857D01*
X134588096Y-54300476D01*
X134540477Y-54395714D01*
X134492858Y-54443333D01*
X134397620Y-54490952D01*
X134207143Y-54490952D01*
X134111905Y-54538571D01*
X134064286Y-54586190D01*
X134016667Y-54681429D01*
X134016667Y-54871905D01*
X134064286Y-54967143D01*
X134111905Y-55014762D01*
X134207143Y-55062381D01*
X134397620Y-55062381D01*
X134492858Y-55014762D01*
X134540477Y-54967143D01*
X134588096Y-54871905D01*
X134588096Y-54681429D01*
X134540477Y-54586190D01*
X134492858Y-54538571D01*
X134397620Y-54490952D01*
X132159524Y-57602381D02*
X132159524Y-56602381D01*
X132159524Y-57078571D02*
X132730953Y-57078571D01*
X132730953Y-57602381D02*
X132730953Y-56602381D01*
X133064286Y-56602381D02*
X133397619Y-57602381D01*
X133730953Y-56602381D01*
X133969048Y-56602381D02*
X134635715Y-56602381D01*
X134207143Y-57602381D01*
X132159524Y-60142381D02*
X132159524Y-59142381D01*
X132159524Y-59618571D02*
X132730953Y-59618571D01*
X132730953Y-60142381D02*
X132730953Y-59142381D01*
X133064286Y-59142381D02*
X133397619Y-60142381D01*
X133730953Y-59142381D01*
X134492858Y-59142381D02*
X134302381Y-59142381D01*
X134207143Y-59190000D01*
X134159524Y-59237619D01*
X134064286Y-59380476D01*
X134016667Y-59570952D01*
X134016667Y-59951905D01*
X134064286Y-60047143D01*
X134111905Y-60094762D01*
X134207143Y-60142381D01*
X134397620Y-60142381D01*
X134492858Y-60094762D01*
X134540477Y-60047143D01*
X134588096Y-59951905D01*
X134588096Y-59713810D01*
X134540477Y-59618571D01*
X134492858Y-59570952D01*
X134397620Y-59523333D01*
X134207143Y-59523333D01*
X134111905Y-59570952D01*
X134064286Y-59618571D01*
X134016667Y-59713810D01*
X132159524Y-62682381D02*
X132159524Y-61682381D01*
X132159524Y-62158571D02*
X132730953Y-62158571D01*
X132730953Y-62682381D02*
X132730953Y-61682381D01*
X133064286Y-61682381D02*
X133397619Y-62682381D01*
X133730953Y-61682381D01*
X134540477Y-61682381D02*
X134064286Y-61682381D01*
X134016667Y-62158571D01*
X134064286Y-62110952D01*
X134159524Y-62063333D01*
X134397620Y-62063333D01*
X134492858Y-62110952D01*
X134540477Y-62158571D01*
X134588096Y-62253810D01*
X134588096Y-62491905D01*
X134540477Y-62587143D01*
X134492858Y-62634762D01*
X134397620Y-62682381D01*
X134159524Y-62682381D01*
X134064286Y-62634762D01*
X134016667Y-62587143D01*
X132159524Y-70302381D02*
X132159524Y-69302381D01*
X132159524Y-69778571D02*
X132730953Y-69778571D01*
X132730953Y-70302381D02*
X132730953Y-69302381D01*
X133064286Y-69302381D02*
X133397619Y-70302381D01*
X133730953Y-69302381D01*
X134492858Y-69635714D02*
X134492858Y-70302381D01*
X134254762Y-69254762D02*
X134016667Y-69969048D01*
X134635715Y-69969048D01*
X132159524Y-72842381D02*
X132159524Y-71842381D01*
X132159524Y-72318571D02*
X132730953Y-72318571D01*
X132730953Y-72842381D02*
X132730953Y-71842381D01*
X133064286Y-71842381D02*
X133397619Y-72842381D01*
X133730953Y-71842381D01*
X133969048Y-71842381D02*
X134588096Y-71842381D01*
X134254762Y-72223333D01*
X134397620Y-72223333D01*
X134492858Y-72270952D01*
X134540477Y-72318571D01*
X134588096Y-72413810D01*
X134588096Y-72651905D01*
X134540477Y-72747143D01*
X134492858Y-72794762D01*
X134397620Y-72842381D01*
X134111905Y-72842381D01*
X134016667Y-72794762D01*
X133969048Y-72747143D01*
X132159524Y-75382381D02*
X132159524Y-74382381D01*
X132159524Y-74858571D02*
X132730953Y-74858571D01*
X132730953Y-75382381D02*
X132730953Y-74382381D01*
X133064286Y-74382381D02*
X133397619Y-75382381D01*
X133730953Y-74382381D01*
X134016667Y-74477619D02*
X134064286Y-74430000D01*
X134159524Y-74382381D01*
X134397620Y-74382381D01*
X134492858Y-74430000D01*
X134540477Y-74477619D01*
X134588096Y-74572857D01*
X134588096Y-74668095D01*
X134540477Y-74810952D01*
X133969048Y-75382381D01*
X134588096Y-75382381D01*
X132159524Y-77922381D02*
X132159524Y-76922381D01*
X132159524Y-77398571D02*
X132730953Y-77398571D01*
X132730953Y-77922381D02*
X132730953Y-76922381D01*
X133064286Y-76922381D02*
X133397619Y-77922381D01*
X133730953Y-76922381D01*
X134588096Y-77922381D02*
X134016667Y-77922381D01*
X134302381Y-77922381D02*
X134302381Y-76922381D01*
X134207143Y-77065238D01*
X134111905Y-77160476D01*
X134016667Y-77208095D01*
X149264762Y-55062381D02*
X148788571Y-55062381D01*
X148788571Y-54062381D01*
X149455238Y-54062381D02*
X149788571Y-55062381D01*
X150121905Y-54062381D01*
X150598095Y-54490952D02*
X150502857Y-54443333D01*
X150455238Y-54395714D01*
X150407619Y-54300476D01*
X150407619Y-54252857D01*
X150455238Y-54157619D01*
X150502857Y-54110000D01*
X150598095Y-54062381D01*
X150788572Y-54062381D01*
X150883810Y-54110000D01*
X150931429Y-54157619D01*
X150979048Y-54252857D01*
X150979048Y-54300476D01*
X150931429Y-54395714D01*
X150883810Y-54443333D01*
X150788572Y-54490952D01*
X150598095Y-54490952D01*
X150502857Y-54538571D01*
X150455238Y-54586190D01*
X150407619Y-54681429D01*
X150407619Y-54871905D01*
X150455238Y-54967143D01*
X150502857Y-55014762D01*
X150598095Y-55062381D01*
X150788572Y-55062381D01*
X150883810Y-55014762D01*
X150931429Y-54967143D01*
X150979048Y-54871905D01*
X150979048Y-54681429D01*
X150931429Y-54586190D01*
X150883810Y-54538571D01*
X150788572Y-54490952D01*
X149264762Y-57602381D02*
X148788571Y-57602381D01*
X148788571Y-56602381D01*
X149455238Y-56602381D02*
X149788571Y-57602381D01*
X150121905Y-56602381D01*
X150360000Y-56602381D02*
X151026667Y-56602381D01*
X150598095Y-57602381D01*
X149264762Y-60142381D02*
X148788571Y-60142381D01*
X148788571Y-59142381D01*
X149455238Y-59142381D02*
X149788571Y-60142381D01*
X150121905Y-59142381D01*
X150883810Y-59142381D02*
X150693333Y-59142381D01*
X150598095Y-59190000D01*
X150550476Y-59237619D01*
X150455238Y-59380476D01*
X150407619Y-59570952D01*
X150407619Y-59951905D01*
X150455238Y-60047143D01*
X150502857Y-60094762D01*
X150598095Y-60142381D01*
X150788572Y-60142381D01*
X150883810Y-60094762D01*
X150931429Y-60047143D01*
X150979048Y-59951905D01*
X150979048Y-59713810D01*
X150931429Y-59618571D01*
X150883810Y-59570952D01*
X150788572Y-59523333D01*
X150598095Y-59523333D01*
X150502857Y-59570952D01*
X150455238Y-59618571D01*
X150407619Y-59713810D01*
X149264762Y-62682381D02*
X148788571Y-62682381D01*
X148788571Y-61682381D01*
X149455238Y-61682381D02*
X149788571Y-62682381D01*
X150121905Y-61682381D01*
X150931429Y-61682381D02*
X150455238Y-61682381D01*
X150407619Y-62158571D01*
X150455238Y-62110952D01*
X150550476Y-62063333D01*
X150788572Y-62063333D01*
X150883810Y-62110952D01*
X150931429Y-62158571D01*
X150979048Y-62253810D01*
X150979048Y-62491905D01*
X150931429Y-62587143D01*
X150883810Y-62634762D01*
X150788572Y-62682381D01*
X150550476Y-62682381D01*
X150455238Y-62634762D01*
X150407619Y-62587143D01*
X150368096Y-64270000D02*
X150272858Y-64222381D01*
X150130001Y-64222381D01*
X149987143Y-64270000D01*
X149891905Y-64365238D01*
X149844286Y-64460476D01*
X149796667Y-64650952D01*
X149796667Y-64793810D01*
X149844286Y-64984286D01*
X149891905Y-65079524D01*
X149987143Y-65174762D01*
X150130001Y-65222381D01*
X150225239Y-65222381D01*
X150368096Y-65174762D01*
X150415715Y-65127143D01*
X150415715Y-64793810D01*
X150225239Y-64793810D01*
X150844286Y-65222381D02*
X150844286Y-64222381D01*
X151415715Y-65222381D01*
X151415715Y-64222381D01*
X151891905Y-65222381D02*
X151891905Y-64222381D01*
X152130000Y-64222381D01*
X152272858Y-64270000D01*
X152368096Y-64365238D01*
X152415715Y-64460476D01*
X152463334Y-64650952D01*
X152463334Y-64793810D01*
X152415715Y-64984286D01*
X152368096Y-65079524D01*
X152272858Y-65174762D01*
X152130000Y-65222381D01*
X151891905Y-65222381D01*
X148360000Y-67762381D02*
X147883809Y-67762381D01*
X147883809Y-66762381D01*
X148455238Y-67857619D02*
X149217143Y-67857619D01*
X149312381Y-66762381D02*
X149645714Y-67762381D01*
X149979048Y-66762381D01*
X150883810Y-67667143D02*
X150836191Y-67714762D01*
X150693334Y-67762381D01*
X150598096Y-67762381D01*
X150455238Y-67714762D01*
X150360000Y-67619524D01*
X150312381Y-67524286D01*
X150264762Y-67333810D01*
X150264762Y-67190952D01*
X150312381Y-67000476D01*
X150360000Y-66905238D01*
X150455238Y-66810000D01*
X150598096Y-66762381D01*
X150693334Y-66762381D01*
X150836191Y-66810000D01*
X150883810Y-66857619D01*
X151883810Y-67667143D02*
X151836191Y-67714762D01*
X151693334Y-67762381D01*
X151598096Y-67762381D01*
X151455238Y-67714762D01*
X151360000Y-67619524D01*
X151312381Y-67524286D01*
X151264762Y-67333810D01*
X151264762Y-67190952D01*
X151312381Y-67000476D01*
X151360000Y-66905238D01*
X151455238Y-66810000D01*
X151598096Y-66762381D01*
X151693334Y-66762381D01*
X151836191Y-66810000D01*
X151883810Y-66857619D01*
X149264762Y-70302381D02*
X148788571Y-70302381D01*
X148788571Y-69302381D01*
X149455238Y-69302381D02*
X149788571Y-70302381D01*
X150121905Y-69302381D01*
X150883810Y-69635714D02*
X150883810Y-70302381D01*
X150645714Y-69254762D02*
X150407619Y-69969048D01*
X151026667Y-69969048D01*
X149264762Y-72842381D02*
X148788571Y-72842381D01*
X148788571Y-71842381D01*
X149455238Y-71842381D02*
X149788571Y-72842381D01*
X150121905Y-71842381D01*
X150360000Y-71842381D02*
X150979048Y-71842381D01*
X150645714Y-72223333D01*
X150788572Y-72223333D01*
X150883810Y-72270952D01*
X150931429Y-72318571D01*
X150979048Y-72413810D01*
X150979048Y-72651905D01*
X150931429Y-72747143D01*
X150883810Y-72794762D01*
X150788572Y-72842381D01*
X150502857Y-72842381D01*
X150407619Y-72794762D01*
X150360000Y-72747143D01*
X149264762Y-75382381D02*
X148788571Y-75382381D01*
X148788571Y-74382381D01*
X149455238Y-74382381D02*
X149788571Y-75382381D01*
X150121905Y-74382381D01*
X150407619Y-74477619D02*
X150455238Y-74430000D01*
X150550476Y-74382381D01*
X150788572Y-74382381D01*
X150883810Y-74430000D01*
X150931429Y-74477619D01*
X150979048Y-74572857D01*
X150979048Y-74668095D01*
X150931429Y-74810952D01*
X150360000Y-75382381D01*
X150979048Y-75382381D01*
X149264762Y-77922381D02*
X148788571Y-77922381D01*
X148788571Y-76922381D01*
X149455238Y-76922381D02*
X149788571Y-77922381D01*
X150121905Y-76922381D01*
X150979048Y-77922381D02*
X150407619Y-77922381D01*
X150693333Y-77922381D02*
X150693333Y-76922381D01*
X150598095Y-77065238D01*
X150502857Y-77160476D01*
X150407619Y-77208095D01*
X158107143Y-65096666D02*
X158154762Y-65144285D01*
X158202381Y-65287142D01*
X158202381Y-65382380D01*
X158154762Y-65525238D01*
X158059524Y-65620476D01*
X157964286Y-65668095D01*
X157773810Y-65715714D01*
X157630952Y-65715714D01*
X157440476Y-65668095D01*
X157345238Y-65620476D01*
X157250000Y-65525238D01*
X157202381Y-65382380D01*
X157202381Y-65287142D01*
X157250000Y-65144285D01*
X157297619Y-65096666D01*
X157630952Y-64525238D02*
X157583333Y-64620476D01*
X157535714Y-64668095D01*
X157440476Y-64715714D01*
X157392857Y-64715714D01*
X157297619Y-64668095D01*
X157250000Y-64620476D01*
X157202381Y-64525238D01*
X157202381Y-64334761D01*
X157250000Y-64239523D01*
X157297619Y-64191904D01*
X157392857Y-64144285D01*
X157440476Y-64144285D01*
X157535714Y-64191904D01*
X157583333Y-64239523D01*
X157630952Y-64334761D01*
X157630952Y-64525238D01*
X157678571Y-64620476D01*
X157726190Y-64668095D01*
X157821429Y-64715714D01*
X158011905Y-64715714D01*
X158107143Y-64668095D01*
X158154762Y-64620476D01*
X158202381Y-64525238D01*
X158202381Y-64334761D01*
X158154762Y-64239523D01*
X158107143Y-64191904D01*
X158011905Y-64144285D01*
X157821429Y-64144285D01*
X157726190Y-64191904D01*
X157678571Y-64239523D01*
X157630952Y-64334761D01*
X126052381Y-95988095D02*
X125052381Y-95988095D01*
X125052381Y-95750000D01*
X125100000Y-95607142D01*
X125195238Y-95511904D01*
X125290476Y-95464285D01*
X125480952Y-95416666D01*
X125623810Y-95416666D01*
X125814286Y-95464285D01*
X125909524Y-95511904D01*
X126004762Y-95607142D01*
X126052381Y-95750000D01*
X126052381Y-95988095D01*
X125147619Y-95035714D02*
X125100000Y-94988095D01*
X125052381Y-94892857D01*
X125052381Y-94654761D01*
X125100000Y-94559523D01*
X125147619Y-94511904D01*
X125242857Y-94464285D01*
X125338095Y-94464285D01*
X125480952Y-94511904D01*
X126052381Y-95083333D01*
X126052381Y-94464285D01*
X95582381Y-100583333D02*
X96296667Y-100583333D01*
X96439524Y-100630953D01*
X96534762Y-100726191D01*
X96582381Y-100869048D01*
X96582381Y-100964286D01*
X95915714Y-99678571D02*
X96582381Y-99678571D01*
X95534762Y-99916667D02*
X96249048Y-100154762D01*
X96249048Y-99535714D01*
X128344762Y-82747619D02*
X128249524Y-82700000D01*
X128154286Y-82604762D01*
X128011429Y-82461905D01*
X127916190Y-82414286D01*
X127820952Y-82414286D01*
X127868571Y-82652381D02*
X127773333Y-82604762D01*
X127678095Y-82509524D01*
X127630476Y-82319048D01*
X127630476Y-81985714D01*
X127678095Y-81795238D01*
X127773333Y-81700000D01*
X127868571Y-81652381D01*
X128059048Y-81652381D01*
X128154286Y-81700000D01*
X128249524Y-81795238D01*
X128297143Y-81985714D01*
X128297143Y-82319048D01*
X128249524Y-82509524D01*
X128154286Y-82604762D01*
X128059048Y-82652381D01*
X127868571Y-82652381D01*
X129249524Y-82652381D02*
X128678095Y-82652381D01*
X128963809Y-82652381D02*
X128963809Y-81652381D01*
X128868571Y-81795238D01*
X128773333Y-81890476D01*
X128678095Y-81938095D01*
X122924762Y-84717619D02*
X122829524Y-84670000D01*
X122734286Y-84574762D01*
X122591429Y-84431905D01*
X122496190Y-84384286D01*
X122400952Y-84384286D01*
X122448571Y-84622381D02*
X122353333Y-84574762D01*
X122258095Y-84479524D01*
X122210476Y-84289048D01*
X122210476Y-83955714D01*
X122258095Y-83765238D01*
X122353333Y-83670000D01*
X122448571Y-83622381D01*
X122639048Y-83622381D01*
X122734286Y-83670000D01*
X122829524Y-83765238D01*
X122877143Y-83955714D01*
X122877143Y-84289048D01*
X122829524Y-84479524D01*
X122734286Y-84574762D01*
X122639048Y-84622381D01*
X122448571Y-84622381D01*
X123258095Y-83717619D02*
X123305714Y-83670000D01*
X123400952Y-83622381D01*
X123639048Y-83622381D01*
X123734286Y-83670000D01*
X123781905Y-83717619D01*
X123829524Y-83812857D01*
X123829524Y-83908095D01*
X123781905Y-84050952D01*
X123210476Y-84622381D01*
X123829524Y-84622381D01*
X92444762Y-75827619D02*
X92349524Y-75780000D01*
X92254286Y-75684762D01*
X92111429Y-75541905D01*
X92016190Y-75494286D01*
X91920952Y-75494286D01*
X91968571Y-75732381D02*
X91873333Y-75684762D01*
X91778095Y-75589524D01*
X91730476Y-75399048D01*
X91730476Y-75065714D01*
X91778095Y-74875238D01*
X91873333Y-74780000D01*
X91968571Y-74732381D01*
X92159048Y-74732381D01*
X92254286Y-74780000D01*
X92349524Y-74875238D01*
X92397143Y-75065714D01*
X92397143Y-75399048D01*
X92349524Y-75589524D01*
X92254286Y-75684762D01*
X92159048Y-75732381D01*
X91968571Y-75732381D01*
X92730476Y-74732381D02*
X93349524Y-74732381D01*
X93016190Y-75113333D01*
X93159048Y-75113333D01*
X93254286Y-75160952D01*
X93301905Y-75208571D01*
X93349524Y-75303810D01*
X93349524Y-75541905D01*
X93301905Y-75637143D01*
X93254286Y-75684762D01*
X93159048Y-75732381D01*
X92873333Y-75732381D01*
X92778095Y-75684762D01*
X92730476Y-75637143D01*
X90678095Y-35202381D02*
X90678095Y-36011905D01*
X90725714Y-36107143D01*
X90773333Y-36154762D01*
X90868571Y-36202381D01*
X91059048Y-36202381D01*
X91154286Y-36154762D01*
X91201905Y-36107143D01*
X91249524Y-36011905D01*
X91249524Y-35202381D01*
X91678095Y-35297619D02*
X91725714Y-35250000D01*
X91820952Y-35202381D01*
X92059048Y-35202381D01*
X92154286Y-35250000D01*
X92201905Y-35297619D01*
X92249524Y-35392857D01*
X92249524Y-35488095D01*
X92201905Y-35630952D01*
X91630476Y-36202381D01*
X92249524Y-36202381D01*
X149098095Y-32662381D02*
X149098095Y-33471905D01*
X149145714Y-33567143D01*
X149193333Y-33614762D01*
X149288571Y-33662381D01*
X149479048Y-33662381D01*
X149574286Y-33614762D01*
X149621905Y-33567143D01*
X149669524Y-33471905D01*
X149669524Y-32662381D01*
X150621905Y-32662381D02*
X150145714Y-32662381D01*
X150098095Y-33138571D01*
X150145714Y-33090952D01*
X150240952Y-33043333D01*
X150479048Y-33043333D01*
X150574286Y-33090952D01*
X150621905Y-33138571D01*
X150669524Y-33233810D01*
X150669524Y-33471905D01*
X150621905Y-33567143D01*
X150574286Y-33614762D01*
X150479048Y-33662381D01*
X150240952Y-33662381D01*
X150145714Y-33614762D01*
X150098095Y-33567143D01*
X88832381Y-49021905D02*
X89641905Y-49021905D01*
X89737143Y-48974286D01*
X89784762Y-48926667D01*
X89832381Y-48831429D01*
X89832381Y-48640952D01*
X89784762Y-48545714D01*
X89737143Y-48498095D01*
X89641905Y-48450476D01*
X88832381Y-48450476D01*
X89832381Y-47450476D02*
X89832381Y-48021905D01*
X89832381Y-47736191D02*
X88832381Y-47736191D01*
X88975238Y-47831429D01*
X89070476Y-47926667D01*
X89118095Y-48021905D01*
X99568095Y-43112381D02*
X99568095Y-43921905D01*
X99615714Y-44017143D01*
X99663333Y-44064762D01*
X99758571Y-44112381D01*
X99949048Y-44112381D01*
X100044286Y-44064762D01*
X100091905Y-44017143D01*
X100139524Y-43921905D01*
X100139524Y-43112381D01*
X101044286Y-43445714D02*
X101044286Y-44112381D01*
X100806190Y-43064762D02*
X100568095Y-43779048D01*
X101187143Y-43779048D01*
X129206667Y-121162381D02*
X129206667Y-121876667D01*
X129159047Y-122019524D01*
X129063809Y-122114762D01*
X128920952Y-122162381D01*
X128825714Y-122162381D01*
X129635238Y-121257619D02*
X129682857Y-121210000D01*
X129778095Y-121162381D01*
X130016191Y-121162381D01*
X130111429Y-121210000D01*
X130159048Y-121257619D01*
X130206667Y-121352857D01*
X130206667Y-121448095D01*
X130159048Y-121590952D01*
X129587619Y-122162381D01*
X130206667Y-122162381D01*
X107616667Y-110152381D02*
X107616667Y-110866667D01*
X107569047Y-111009524D01*
X107473809Y-111104762D01*
X107330952Y-111152381D01*
X107235714Y-111152381D01*
X108569048Y-110152381D02*
X108092857Y-110152381D01*
X108045238Y-110628571D01*
X108092857Y-110580952D01*
X108188095Y-110533333D01*
X108426191Y-110533333D01*
X108521429Y-110580952D01*
X108569048Y-110628571D01*
X108616667Y-110723810D01*
X108616667Y-110961905D01*
X108569048Y-111057143D01*
X108521429Y-111104762D01*
X108426191Y-111152381D01*
X108188095Y-111152381D01*
X108092857Y-111104762D01*
X108045238Y-111057143D01*
X86026667Y-83062381D02*
X86026667Y-83776667D01*
X85979047Y-83919524D01*
X85883809Y-84014762D01*
X85740952Y-84062381D01*
X85645714Y-84062381D01*
X86931429Y-83062381D02*
X86740952Y-83062381D01*
X86645714Y-83110000D01*
X86598095Y-83157619D01*
X86502857Y-83300476D01*
X86455238Y-83490952D01*
X86455238Y-83871905D01*
X86502857Y-83967143D01*
X86550476Y-84014762D01*
X86645714Y-84062381D01*
X86836191Y-84062381D01*
X86931429Y-84014762D01*
X86979048Y-83967143D01*
X87026667Y-83871905D01*
X87026667Y-83633810D01*
X86979048Y-83538571D01*
X86931429Y-83490952D01*
X86836191Y-83443333D01*
X86645714Y-83443333D01*
X86550476Y-83490952D01*
X86502857Y-83538571D01*
X86455238Y-83633810D01*
X175196667Y-34234381D02*
X174863333Y-33758190D01*
X174625238Y-34234381D02*
X174625238Y-33234381D01*
X175006191Y-33234381D01*
X175101429Y-33282000D01*
X175149048Y-33329619D01*
X175196667Y-33424857D01*
X175196667Y-33567714D01*
X175149048Y-33662952D01*
X175101429Y-33710571D01*
X175006191Y-33758190D01*
X174625238Y-33758190D01*
X175625238Y-33710571D02*
X175958572Y-33710571D01*
X176101429Y-34234381D02*
X175625238Y-34234381D01*
X175625238Y-33234381D01*
X176101429Y-33234381D01*
X176863334Y-33710571D02*
X176530000Y-33710571D01*
X176530000Y-34234381D02*
X176530000Y-33234381D01*
X177006191Y-33234381D01*
X177530000Y-33234381D02*
X177530000Y-33472476D01*
X177291905Y-33377238D02*
X177530000Y-33472476D01*
X177768096Y-33377238D01*
X177387143Y-33662952D02*
X177530000Y-33472476D01*
X177672858Y-33662952D01*
X178291905Y-33234381D02*
X178291905Y-33472476D01*
X178053810Y-33377238D02*
X178291905Y-33472476D01*
X178530001Y-33377238D01*
X178149048Y-33662952D02*
X178291905Y-33472476D01*
X178434763Y-33662952D01*
X175196667Y-123134381D02*
X174863333Y-122658190D01*
X174625238Y-123134381D02*
X174625238Y-122134381D01*
X175006191Y-122134381D01*
X175101429Y-122182000D01*
X175149048Y-122229619D01*
X175196667Y-122324857D01*
X175196667Y-122467714D01*
X175149048Y-122562952D01*
X175101429Y-122610571D01*
X175006191Y-122658190D01*
X174625238Y-122658190D01*
X175625238Y-122610571D02*
X175958572Y-122610571D01*
X176101429Y-123134381D02*
X175625238Y-123134381D01*
X175625238Y-122134381D01*
X176101429Y-122134381D01*
X176863334Y-122610571D02*
X176530000Y-122610571D01*
X176530000Y-123134381D02*
X176530000Y-122134381D01*
X177006191Y-122134381D01*
X177530000Y-122134381D02*
X177530000Y-122372476D01*
X177291905Y-122277238D02*
X177530000Y-122372476D01*
X177768096Y-122277238D01*
X177387143Y-122562952D02*
X177530000Y-122372476D01*
X177672858Y-122562952D01*
X178291905Y-122134381D02*
X178291905Y-122372476D01*
X178053810Y-122277238D02*
X178291905Y-122372476D01*
X178530001Y-122277238D01*
X178149048Y-122562952D02*
X178291905Y-122372476D01*
X178434763Y-122562952D01*
X98996667Y-35504381D02*
X98663333Y-35028190D01*
X98425238Y-35504381D02*
X98425238Y-34504381D01*
X98806191Y-34504381D01*
X98901429Y-34552000D01*
X98949048Y-34599619D01*
X98996667Y-34694857D01*
X98996667Y-34837714D01*
X98949048Y-34932952D01*
X98901429Y-34980571D01*
X98806191Y-35028190D01*
X98425238Y-35028190D01*
X99425238Y-34980571D02*
X99758572Y-34980571D01*
X99901429Y-35504381D02*
X99425238Y-35504381D01*
X99425238Y-34504381D01*
X99901429Y-34504381D01*
X100663334Y-34980571D02*
X100330000Y-34980571D01*
X100330000Y-35504381D02*
X100330000Y-34504381D01*
X100806191Y-34504381D01*
X101330000Y-34504381D02*
X101330000Y-34742476D01*
X101091905Y-34647238D02*
X101330000Y-34742476D01*
X101568096Y-34647238D01*
X101187143Y-34932952D02*
X101330000Y-34742476D01*
X101472858Y-34932952D01*
X102091905Y-34504381D02*
X102091905Y-34742476D01*
X101853810Y-34647238D02*
X102091905Y-34742476D01*
X102330001Y-34647238D01*
X101949048Y-34932952D02*
X102091905Y-34742476D01*
X102234763Y-34932952D01*
X86296667Y-123134381D02*
X85963333Y-122658190D01*
X85725238Y-123134381D02*
X85725238Y-122134381D01*
X86106191Y-122134381D01*
X86201429Y-122182000D01*
X86249048Y-122229619D01*
X86296667Y-122324857D01*
X86296667Y-122467714D01*
X86249048Y-122562952D01*
X86201429Y-122610571D01*
X86106191Y-122658190D01*
X85725238Y-122658190D01*
X86725238Y-122610571D02*
X87058572Y-122610571D01*
X87201429Y-123134381D02*
X86725238Y-123134381D01*
X86725238Y-122134381D01*
X87201429Y-122134381D01*
X87963334Y-122610571D02*
X87630000Y-122610571D01*
X87630000Y-123134381D02*
X87630000Y-122134381D01*
X88106191Y-122134381D01*
X88630000Y-122134381D02*
X88630000Y-122372476D01*
X88391905Y-122277238D02*
X88630000Y-122372476D01*
X88868096Y-122277238D01*
X88487143Y-122562952D02*
X88630000Y-122372476D01*
X88772858Y-122562952D01*
X89391905Y-122134381D02*
X89391905Y-122372476D01*
X89153810Y-122277238D02*
X89391905Y-122372476D01*
X89630001Y-122277238D01*
X89249048Y-122562952D02*
X89391905Y-122372476D01*
X89534763Y-122562952D01*
M02*
